<svg width="32" height="32" viewBox="0 0 32 32" fill="none" xmlns="http://www.w3.org/2000/svg">
<path d="M25.6288 20.3575L22.2422 19.9708C21.4288 19.8775 20.6288 20.1575 20.0555 20.7308L17.6022 23.1842C13.8288 21.2642 10.7355 18.1842 8.81549 14.3975L11.2822 11.9308C11.8555 11.3575 12.1355 10.5575 12.0422 9.74417L11.6555 6.38417C11.4955 5.0375 10.3622 4.02417 9.00216 4.02417H6.69549C5.18882 4.02417 3.93549 5.2775 4.02882 6.78417C4.73549 18.1708 13.8422 27.2642 25.2155 27.9708C26.7222 28.0642 27.9755 26.8108 27.9755 25.3042V22.9975C27.9888 21.6508 26.9755 20.5175 25.6288 20.3575Z" fill="#8316B5"/>
</svg>
