<svg width="57" height="56" viewBox="0 0 57 56" fill="none" xmlns="http://www.w3.org/2000/svg">
<g id="Illustration">
<path id="Vector (Stroke)" d="M12.7746 6.11271C5.1934 11.2612 0.168148 20.2135 1.919 32.3836C3.66753 44.5376 10.7225 50.1432 17.3427 52.7381C20.6653 54.0405 23.8841 54.5848 26.2753 54.8027C27.4698 54.9115 28.4549 54.9386 29.1391 54.9386C29.4812 54.9386 29.7478 54.9318 29.9276 54.9251L30.1947 54.9123C30.4889 54.8918 30.7444 55.1119 30.7652 55.4041C30.7859 55.6962 30.5641 55.9498 30.2699 55.9704L30.1888 55.9752C30.1379 55.978 30.0637 55.9816 29.9675 55.9851C29.7753 55.9923 29.4953 55.9993 29.1391 55.9993C28.4269 55.9993 27.409 55.9711 26.1777 55.859C23.7174 55.6348 20.3933 55.0742 16.9505 53.7248C10.0398 51.016 2.67373 45.1303 0.861511 32.5336C-0.948391 19.9531 4.26353 10.6076 12.1716 5.23715C20.055 -0.11659 30.6062 -1.51326 39.4965 1.72968C48.4387 4.99155 53.6926 13.0407 55.6337 21.423C57.5694 29.7819 56.2483 38.6461 51.8181 43.5952C47.479 48.4424 42.6378 51.0103 37.8745 51.2859C33.102 51.5619 28.5022 49.5308 24.6748 45.3683C20.8578 41.2171 18.4236 35.648 17.0312 30.4741C15.6403 25.3061 15.2695 20.4587 15.638 17.7149C15.9959 15.0489 16.6292 12.1341 17.8852 9.96308C18.5167 8.87159 19.3204 7.94162 20.3515 7.33465C21.3912 6.72263 22.6262 6.46055 24.0716 6.65193C26.9202 7.02907 29.0341 8.73133 30.0025 10.7506C30.9711 12.7705 30.803 15.1624 28.9849 16.7671C28.1003 17.5479 27.2339 17.8632 26.421 17.9218C25.6268 17.979 24.9223 17.7867 24.3856 17.6312L24.2753 17.5992C24.0469 17.5327 23.864 17.4794 23.6991 17.4468C23.5071 17.4088 23.4124 17.4154 23.3677 17.4279L23.366 17.4284C23.3499 17.4329 23.3201 17.4411 23.2746 17.5225C23.2157 17.6278 23.1487 17.8296 23.1076 18.1972C23.0704 18.5294 23.0964 19.1178 23.1947 19.9295C23.2914 20.7282 23.453 21.7049 23.6683 22.7931C24.0989 24.9693 24.7401 27.5711 25.4917 30.0517C26.2449 32.5374 27.102 34.8778 27.9595 36.543C28.3902 37.3796 28.8049 38.0133 29.1851 38.4096C29.5831 38.8246 29.8234 38.8611 29.9385 38.8357L32.8987 38.1825C32.9303 38.1272 32.9678 38.065 33.0112 37.9985C33.1643 37.7641 33.4047 37.4549 33.7397 37.2054C34.0801 36.9519 34.5321 36.751 35.0839 36.7739C35.6327 36.7966 36.2086 37.0376 36.8056 37.5317L36.9433 37.6685C37.0061 37.7339 37.0954 37.8287 37.2039 37.9486C37.4205 38.188 37.7153 38.5292 38.029 38.938C38.6479 39.7442 39.3767 40.8588 39.6936 41.9965C39.8533 42.5701 39.9168 43.1788 39.7842 43.7691C39.6491 44.3707 39.3175 44.9194 38.7475 45.3662C37.6404 46.2341 35.6722 46.6907 32.5316 46.6016C32.2367 46.5932 32.0045 46.3491 32.013 46.0563C32.0214 45.7635 32.2673 45.5329 32.5621 45.5413C35.6528 45.629 37.2899 45.1575 38.0856 44.5337C38.467 44.2347 38.6611 43.8966 38.7416 43.5383C38.8246 43.1687 38.7935 42.7443 38.664 42.2793C38.4023 41.3396 37.7735 40.3549 37.1795 39.581C36.8868 39.1998 36.6113 38.8808 36.4093 38.6575C36.3084 38.546 36.2262 38.4589 36.1699 38.4002C36.1418 38.3708 36.1201 38.3486 36.1058 38.3341L36.1023 38.3305C35.6407 37.9535 35.2882 37.844 35.0394 37.8337C34.7901 37.8234 34.5743 37.9098 34.3807 38.054C34.1815 38.2023 34.0213 38.4014 33.9074 38.5758C33.8518 38.6609 33.8105 38.7352 33.7837 38.7866L33.7491 38.8571C33.6811 39.013 33.542 39.1271 33.3749 39.164L30.1702 39.8712C29.4841 40.0226 28.8787 39.6281 28.4116 39.1412C27.9266 38.6356 27.4566 37.8965 27.0084 37.0259C26.1077 35.2769 25.2289 32.866 24.4688 30.3574C23.7071 27.8437 23.0575 25.2081 22.6202 22.9976C22.4015 21.8926 22.2349 20.8887 22.1341 20.0562C22.0349 19.2367 21.9941 18.5434 22.0459 18.0801C22.0938 17.6521 22.1826 17.2904 22.3407 17.0076C22.5105 16.7039 22.7584 16.4969 23.0765 16.4074C23.3657 16.326 23.6604 16.3575 23.908 16.4065C24.1233 16.4491 24.3581 16.5177 24.5812 16.5828L24.6847 16.6129C25.2162 16.7669 25.758 16.906 26.3436 16.8638C26.9105 16.823 27.5574 16.6079 28.2752 15.9743C29.6618 14.7504 29.8497 12.8993 29.038 11.2067C28.226 9.51333 26.423 8.03338 23.9305 7.70336C22.7054 7.54116 21.7148 7.76525 20.8963 8.24711C20.0691 8.73403 19.3818 9.50566 18.8115 10.4915C17.664 12.475 17.051 15.2175 16.6968 17.8551C16.3531 20.415 16.6944 25.1143 18.0632 30.2002C19.4303 35.2801 21.8032 40.672 25.4637 44.6531C29.114 48.623 33.416 50.4812 37.8124 50.2269C42.2182 49.9721 46.8129 47.5899 51.0197 42.8904C55.1352 38.2929 56.4848 29.8316 54.5926 21.6607C52.7059 13.5131 47.6336 5.82794 39.1281 2.72537C30.5707 -0.396137 20.3805 0.947442 12.7746 6.11271Z" fill="#8316B5"/>
</g>
</svg>
