<svg width="168" height="24" viewBox="0 0 168 24" fill="none" xmlns="http://www.w3.org/2000/svg">
    <mask id="mask0_4900_1567" style="mask-type:alpha" maskUnits="userSpaceOnUse" x="0" y="0" width="14" height="20">
        <path d="M0 0.355713H13.9453V19.2194H0V0.355713Z" fill="white" />
    </mask>
    <g mask="url(#mask0_4900_1567)">
        <path fill-rule="evenodd" clip-rule="evenodd"
            d="M9.34885 19.2194C9.2015 19.2194 9.06147 19.1574 8.9604 19.0518L4.33214 14.1045V18.6999C4.33214 18.9869 4.09603 19.2194 3.80396 19.2194H0.527353C0.235871 19.2194 -0.000244141 18.9869 -0.000244141 18.6999V0.876404C-0.000244141 0.588221 0.235871 0.355713 0.527353 0.355713H3.80396C4.09603 0.355713 4.33214 0.588221 4.33214 0.876404V9.78151L8.23683 5.49454C8.33613 5.3829 8.47733 5.32059 8.62908 5.32059H12.745C12.9539 5.32059 13.1422 5.44002 13.2263 5.62839C13.3118 5.81648 13.277 6.03514 13.1366 6.18745L7.83227 11.997L13.804 18.3474C13.9475 18.498 13.9853 18.7192 13.9004 18.9079C13.8166 19.0971 13.6276 19.2194 13.4176 19.2194H9.34885Z"
            fill="#8316B5" />
    </g>
    <path fill-rule="evenodd" clip-rule="evenodd"
        d="M29.3317 19.3073C29.0406 19.3073 28.8054 19.075 28.8054 18.7884V5.94317C28.8054 5.65794 29.0406 5.42572 29.3317 5.42572H32.1374C32.4273 5.42572 32.664 5.65794 32.664 5.94317V5.97602C32.7889 5.86567 32.9197 5.76887 33.0558 5.67753C33.6441 5.29031 34.3 5.09497 35.0019 5.09497C35.5025 5.09497 36.0279 5.22549 36.5615 5.47614C36.8044 5.59196 36.9202 5.87057 36.8289 6.12007L35.8099 8.89316C35.7582 9.03491 35.6484 9.14669 35.5095 9.20028C35.4463 9.22564 35.3805 9.23803 35.3143 9.23803C35.2327 9.23803 35.1526 9.21987 35.0791 9.18271C34.6745 8.9842 34.4589 8.95424 34.3661 8.95424C34.2559 8.95424 33.9217 8.95424 33.5502 9.6094C33.3428 9.97502 33.0964 10.8561 33.0964 12.9671L33.1075 13.5848V18.7884C33.1075 19.075 32.8726 19.3073 32.5798 19.3073H29.3317Z"
        fill="#8316B5" />
    <path fill-rule="evenodd" clip-rule="evenodd"
        d="M38.4848 19.3072C38.1914 19.3072 37.9521 19.0739 37.9521 18.7859V5.88282C37.9521 5.5963 38.1914 5.36304 38.4848 5.36304H41.789C42.082 5.36304 42.3208 5.5963 42.3208 5.88282V18.7859C42.3208 19.0739 42.082 19.3072 41.789 19.3072H38.4848Z"
        fill="#8316B5" />
    <path fill-rule="evenodd" clip-rule="evenodd"
        d="M46.2429 23.9999C46.0607 23.9999 45.8918 23.9089 45.7935 23.7594C45.6963 23.6092 45.6821 23.4201 45.7601 23.2603L48.3683 17.7933L43.4536 6.08095C43.3854 5.92113 43.404 5.73905 43.5035 5.5928C43.6019 5.44859 43.7675 5.36304 43.9441 5.36304H47.3201C47.5362 5.36304 47.7314 5.48963 47.8123 5.68442L50.7645 12.663L54.0289 5.66593C54.1145 5.48096 54.3038 5.36304 54.5131 5.36304H57.8974C58.079 5.36304 58.2473 5.45148 58.3465 5.60321C58.4433 5.75263 58.4575 5.9376 58.3816 6.10032L50.1362 23.6973C50.0508 23.882 49.8613 23.9999 49.6528 23.9999H46.2429Z"
        fill="#8316B5" />
    <path fill-rule="evenodd" clip-rule="evenodd"
        d="M73.8361 19.3073C73.5461 19.3073 73.3105 19.075 73.3105 18.7884V5.94317C73.3105 5.65794 73.5461 5.42572 73.8361 5.42572H76.6413C76.9333 5.42572 77.1697 5.65794 77.1697 5.94317V5.97602C77.2932 5.86567 77.424 5.76887 77.56 5.67753C78.1496 5.29031 78.8048 5.09497 79.5073 5.09497C80.0071 5.09497 80.5326 5.22549 81.0672 5.47614C81.3109 5.59312 81.4256 5.87057 81.3334 6.12007L80.3149 8.89316C80.2628 9.03491 80.1531 9.14669 80.0147 9.20028C79.9506 9.22564 79.8851 9.23803 79.8186 9.23803C79.7373 9.23803 79.6577 9.21987 79.5834 9.18271C79.179 8.9842 78.9634 8.95424 78.8721 8.95424C78.7612 8.95424 78.4264 8.95424 78.0563 9.6094C77.848 9.97444 77.6007 10.8546 77.6007 12.9671L77.6121 13.5848V18.7884C77.6121 19.075 77.3769 19.3073 77.0851 19.3073H73.8361Z"
        fill="#8316B5" />
    <path fill-rule="evenodd" clip-rule="evenodd"
        d="M40.0683 4.69274C39.4122 4.69274 38.8437 4.46243 38.38 4.00553C37.9148 3.54777 37.6792 2.988 37.6792 2.33994C37.6792 1.69359 37.9151 1.13525 38.38 0.68178C38.8437 0.230308 39.4122 0 40.0683 0C40.7232 0 41.2902 0.230308 41.756 0.68178C42.2214 1.13525 42.4574 1.69359 42.4574 2.33994C42.4574 2.988 42.2214 3.54777 41.756 4.00553C41.2923 4.46243 40.7244 4.69274 40.0683 4.69274Z"
        fill="#8316B5" />
    <path fill-rule="evenodd" clip-rule="evenodd"
        d="M67.5574 10.7991C67.3498 10.2867 67.0714 9.84287 66.7206 9.45985C66.1294 8.81831 65.4589 8.50535 64.6697 8.50535C63.8075 8.50535 63.074 8.86029 62.4298 9.58781C62.1947 9.85126 61.9653 10.2548 61.7421 10.7991H67.5574ZM64.8616 19.5755C62.6607 19.5755 60.8368 18.8792 59.4402 17.5055C58.0453 16.1324 57.3379 14.3942 57.3379 12.3384C57.3379 10.2375 58.0421 8.46366 59.4307 7.06969C60.8238 5.67023 62.5898 4.96094 64.6806 4.96094C66.8918 4.96094 68.7219 5.67023 70.1173 7.06825C71.5122 8.46366 72.2184 10.3206 72.2184 12.5874L72.2051 13.2156C72.1992 13.499 71.9633 13.7272 71.6734 13.7272H61.7421C61.9237 14.2373 62.2154 14.653 62.6305 14.9917C63.2037 15.4575 63.925 15.6842 64.8385 15.6842C65.9378 15.6842 66.857 15.3171 67.6486 14.5624C67.7499 14.4654 67.8836 14.4142 68.0189 14.4142C68.0953 14.4142 68.1733 14.4312 68.2459 14.4637L71.0285 15.745C71.1702 15.8107 71.2765 15.9341 71.3164 16.0837C71.3566 16.2331 71.3279 16.3923 71.2367 16.518C70.4947 17.5512 69.5885 18.3288 68.543 18.828C67.5072 19.3224 66.2694 19.5755 64.8616 19.5755Z"
        fill="#8316B5" />
    <path fill-rule="evenodd" clip-rule="evenodd"
        d="M93.8254 19.3073C93.5326 19.3073 93.2969 19.0762 93.2969 18.7884V13.1649C93.2969 11.3217 93.191 10.5626 93.1039 10.2483C92.9932 9.85276 92.8152 9.56784 92.558 9.3728C92.3008 9.17978 91.9844 9.08644 91.5889 9.08644C91.0574 9.08644 90.6154 9.25353 90.2367 9.60097C89.8382 9.96454 89.558 10.4854 89.3974 11.1503C89.3382 11.3989 89.2673 12.0307 89.2673 13.6357V18.7884C89.2673 19.0762 89.0295 19.3073 88.7379 19.3073H85.4469C85.1526 19.3073 84.9146 19.0762 84.9146 18.7884V5.9457C84.9146 5.65905 85.1526 5.42685 85.4469 5.42685H88.7379C89.0295 5.42685 89.2673 5.65905 89.2673 5.9457V6.20613C89.7243 5.89557 90.1546 5.65905 90.5657 5.4957C91.234 5.23181 91.9267 5.09497 92.6274 5.09497C94.0667 5.09497 95.3063 5.59711 96.3115 6.5818C97.1755 7.43713 97.6108 8.68859 97.6108 10.301V18.7884C97.6108 19.0762 97.3733 19.3073 97.0814 19.3073H93.8254Z"
        fill="#8316B5" />
    <path fill-rule="evenodd" clip-rule="evenodd"
        d="M114.248 19.3074C113.958 19.3074 113.72 19.0755 113.72 18.7867V0.923018C113.72 0.635361 113.958 0.402344 114.248 0.402344H117.527C117.819 0.402344 118.055 0.635361 118.055 0.923018V5.38388H119.473C119.763 5.38388 120 5.6169 120 5.90398V8.35528C120 8.64352 119.763 8.87711 119.473 8.87711H118.055V18.7867C118.055 19.0755 117.819 19.3074 117.527 19.3074H114.248Z"
        fill="#8316B5" />
    <path fill-rule="evenodd" clip-rule="evenodd"
        d="M108.384 10.7996C108.175 10.2872 107.898 9.84518 107.547 9.46045C106.956 8.82039 106.286 8.50775 105.497 8.50775C104.634 8.50775 103.9 8.86179 103.257 9.59014C103.022 9.85387 102.793 10.2577 102.569 10.7996H108.384ZM105.682 19.5755C103.48 19.5755 101.656 18.8792 100.259 17.5062C98.8648 16.1332 98.157 14.3959 98.157 12.3403C98.157 10.2403 98.8609 8.46577 100.251 7.07044C101.642 5.67221 103.409 4.96094 105.5 4.96094C107.713 4.96094 109.542 5.67105 110.938 7.07044C112.33 8.46548 113.038 10.3234 113.038 12.5907L113.026 13.2177C113.021 13.4994 112.784 13.7284 112.494 13.7284H102.562C102.743 14.2376 103.037 14.6565 103.452 14.9926C104.023 15.4595 104.744 15.6844 105.659 15.6844C106.758 15.6844 107.678 15.3174 108.469 14.5633C108.571 14.4657 108.704 14.4145 108.84 14.4145C108.917 14.4145 108.994 14.4321 109.067 14.464L111.85 15.7476C111.992 15.811 112.096 15.9363 112.138 16.0845C112.177 16.2342 112.149 16.3931 112.058 16.5196C111.314 17.5531 110.408 18.3289 109.364 18.8286C108.327 19.3242 107.09 19.5755 105.682 19.5755Z"
        fill="#8316B5" />
    <path fill-rule="evenodd" clip-rule="evenodd"
        d="M81.2959 19.5753C80.6409 19.5753 80.0722 19.3445 79.6088 18.8872C79.1433 18.4302 78.908 17.8695 78.908 17.2234C78.908 16.5764 79.1433 16.0171 79.6088 15.5644C80.0722 15.1136 80.6409 14.8826 81.2959 14.8826C81.9517 14.8826 82.5193 15.1136 82.9839 15.5644C83.449 16.0171 83.6861 16.5764 83.6861 17.2234C83.6861 17.8695 83.449 18.4302 82.9853 18.8872C82.5205 19.3445 81.9529 19.5753 81.2959 19.5753Z"
        fill="#8316B5" />
    <path fill-rule="evenodd" clip-rule="evenodd"
        d="M20.0664 15.4449C20.9513 15.4449 21.7164 15.1328 22.3422 14.5153C22.9684 13.8995 23.2873 13.1448 23.2873 12.2702C23.2873 11.398 22.9684 10.6429 22.3422 10.0318C21.714 9.42271 20.9495 9.11294 20.0664 9.11294C19.1824 9.11294 18.4174 9.42271 17.7921 10.0318C17.1665 10.6429 16.8476 11.398 16.8476 12.2702C16.8476 13.1448 17.1648 13.8995 17.7915 14.5153C18.4174 15.1328 19.1824 15.4449 20.0664 15.4449ZM19.4635 19.5755C17.6297 19.5755 16.0232 18.8659 14.6898 17.4711C13.3671 16.0835 12.6963 14.3393 12.6963 12.2914C12.6963 10.1722 13.3456 8.4054 14.6282 7.03781C15.9207 5.65892 17.5154 4.96094 19.3671 4.96094C20.2212 4.96094 21.0362 5.12306 21.7874 5.44093C22.1945 5.6155 22.5869 5.83494 22.9607 6.10128V5.81322C22.9607 5.52662 23.1977 5.29357 23.4899 5.29357H26.7749C27.0683 5.29357 27.3038 5.52662 27.3038 5.81322V18.7203C27.3038 19.0086 27.0683 19.2417 26.7749 19.2417H23.4899C23.1977 19.2417 22.9607 19.0086 22.9607 18.7203V18.467C22.5645 18.7484 22.1636 18.9716 21.7654 19.1366C21.0564 19.4267 20.2832 19.5755 19.4635 19.5755Z"
        fill="#8316B5" />
    <path d="M127.258 19.6172H126.241" stroke="#49CA77" stroke-width="0.5" stroke-miterlimit="10" />
    <path
        d="M127.258 19.8015H126.24C126.214 19.8043 126.187 19.8016 126.162 19.7936C126.136 19.7855 126.113 19.7724 126.093 19.7549C126.074 19.7375 126.058 19.7162 126.047 19.6923C126.036 19.6685 126.031 19.6427 126.031 19.6166C126.031 19.5905 126.036 19.5647 126.047 19.5409C126.058 19.5171 126.074 19.4957 126.093 19.4783C126.113 19.4609 126.136 19.4477 126.162 19.4397C126.187 19.4317 126.214 19.4289 126.24 19.4317H127.258C127.284 19.4289 127.311 19.4317 127.336 19.4397C127.361 19.4477 127.385 19.4609 127.404 19.4783C127.424 19.4957 127.44 19.5171 127.451 19.5409C127.462 19.5647 127.467 19.5905 127.467 19.6166C127.467 19.6427 127.462 19.6685 127.451 19.6923C127.44 19.7162 127.424 19.7375 127.404 19.7549C127.385 19.7724 127.361 19.7855 127.336 19.7936C127.311 19.8016 127.284 19.8043 127.258 19.8015Z"
        fill="#49CA77" stroke="#49CA77" stroke-width="0.5" stroke-miterlimit="10" />
    <path d="M164.385 1.45581H160.239" stroke="#FF9B0F" stroke-width="0.5" stroke-miterlimit="10" />
    <path
        d="M164.385 1.64014H160.239C160.192 1.63525 160.149 1.61367 160.118 1.57954C160.087 1.5454 160.069 1.50113 160.069 1.45524C160.069 1.40935 160.087 1.36508 160.118 1.33095C160.149 1.29681 160.192 1.27523 160.239 1.27034H164.385C164.411 1.26757 164.438 1.27028 164.463 1.27831C164.488 1.28633 164.512 1.29949 164.531 1.31693C164.551 1.33437 164.567 1.3557 164.578 1.37953C164.589 1.40335 164.594 1.42915 164.594 1.45524C164.594 1.48133 164.589 1.50713 164.578 1.53096C164.567 1.55479 164.551 1.57611 164.531 1.59355C164.512 1.61099 164.488 1.62415 164.463 1.63218C164.438 1.6402 164.411 1.64292 164.385 1.64014Z"
        fill="#FF9B0F" stroke="#FF9B0F" stroke-width="0.5" stroke-miterlimit="10" />
    <path d="M155.038 5.19189H153.81" stroke="#4AB5E2" stroke-width="0.5" stroke-miterlimit="10" />
    <path
        d="M155.039 5.37623H153.81C153.761 5.37623 153.713 5.35686 153.678 5.32238C153.643 5.2879 153.623 5.24114 153.623 5.19239C153.623 5.14363 153.643 5.09687 153.678 5.06239C153.713 5.02791 153.761 5.00854 153.81 5.00854H155.039C155.088 5.00854 155.136 5.02791 155.171 5.06239C155.206 5.09687 155.226 5.14363 155.226 5.19239C155.226 5.24114 155.206 5.2879 155.171 5.32238C155.136 5.35686 155.088 5.37623 155.039 5.37623Z"
        fill="#4AB5E2" stroke="#4AB5E2" stroke-width="0.5" stroke-miterlimit="10" />
    <path
        d="M142.051 19.8015H128.681C128.655 19.8043 128.628 19.8016 128.603 19.7936C128.577 19.7855 128.554 19.7724 128.534 19.7549C128.514 19.7375 128.499 19.7162 128.488 19.6923C128.477 19.6685 128.471 19.6427 128.471 19.6166C128.471 19.5905 128.477 19.5647 128.488 19.5409C128.499 19.5171 128.514 19.4957 128.534 19.4783C128.554 19.4609 128.577 19.4477 128.603 19.4397C128.628 19.4317 128.655 19.4289 128.681 19.4317H142.051C142.077 19.4289 142.104 19.4317 142.129 19.4397C142.155 19.4477 142.178 19.4609 142.198 19.4783C142.217 19.4957 142.233 19.5171 142.244 19.5409C142.255 19.5647 142.26 19.5905 142.26 19.6166C142.26 19.6427 142.255 19.6685 142.244 19.6923C142.233 19.7162 142.217 19.7375 142.198 19.7549C142.178 19.7724 142.155 19.7855 142.129 19.7936C142.104 19.8016 142.077 19.8043 142.051 19.8015Z"
        fill="#DE4747" stroke="#DE4747" stroke-width="0.5" stroke-miterlimit="10" />
    <path
        d="M128.68 16.2159C128.654 16.2164 128.628 16.2113 128.604 16.2011C128.58 16.1909 128.558 16.1758 128.54 16.1567C128.507 16.1203 128.489 16.0722 128.492 16.0231C128.494 15.974 128.516 15.9279 128.553 15.8947L135.761 9.49409C136.168 9.11705 136.525 8.69106 136.824 8.22621C137.085 7.80911 137.221 7.32772 137.215 6.8379C137.229 6.57136 137.184 6.30511 137.086 6.05645C136.987 5.8078 136.836 5.58231 136.643 5.39464C136.192 5.01629 135.612 4.82078 135.019 4.84787C134.427 4.87495 133.868 5.1226 133.455 5.54044C132.998 6.07124 132.726 6.73187 132.68 7.42534C132.675 7.4741 132.65 7.51886 132.611 7.54977C132.573 7.58068 132.523 7.59521 132.473 7.59017C132.424 7.58512 132.378 7.56092 132.347 7.52287C132.315 7.48483 132.3 7.43606 132.306 7.38731C132.357 6.6175 132.659 5.88424 133.166 5.29532C133.647 4.80247 134.303 4.51043 134.998 4.47974C135.693 4.44905 136.373 4.68207 136.897 5.1305C137.128 5.3522 137.31 5.61863 137.431 5.91291C137.551 6.20719 137.608 6.52289 137.598 6.84001C137.6 7.3975 137.443 7.94433 137.144 8.41851C136.827 8.91048 136.449 9.3613 136.017 9.76034L128.805 16.1694C128.77 16.1993 128.726 16.2158 128.68 16.2159Z"
        fill="#49CA77" stroke="#59BD75" stroke-width="0.5" stroke-miterlimit="10" />
    <path
        d="M142.051 16.0572H134.503C134.465 16.0567 134.428 16.0449 134.397 16.0235C134.366 16.0021 134.342 15.9721 134.329 15.9372C134.316 15.9024 134.313 15.8643 134.322 15.8281C134.331 15.7918 134.35 15.759 134.378 15.7339L138.662 11.9895C139.071 11.6218 139.478 11.2393 139.869 10.8547C140.248 10.4824 140.591 10.0756 140.891 9.63969C141.187 9.20462 141.421 8.73182 141.586 8.23446C141.76 7.6875 141.845 7.11697 141.838 6.54397C141.857 5.72023 141.672 4.90428 141.298 4.16671C140.95 3.50366 140.456 2.92589 139.85 2.47621C139.225 2.02091 138.52 1.68344 137.769 1.48093C136.979 1.2622 136.161 1.15198 135.34 1.1534C134.486 1.14887 133.638 1.28091 132.827 1.54433C132.064 1.79213 131.354 2.17531 130.731 2.67485C130.119 3.1736 129.608 3.78158 129.225 4.46677C128.815 5.20829 128.56 6.02314 128.477 6.86305C128.471 6.91152 128.446 6.9559 128.408 6.98642C128.369 7.01693 128.319 7.03108 128.27 7.02576C128.221 7.02043 128.176 6.99607 128.144 6.95803C128.113 6.91998 128.099 6.87138 128.104 6.8229C128.187 5.96548 128.441 5.13246 128.852 4.37167C129.262 3.61088 129.822 2.93729 130.499 2.38958C131.157 1.86205 131.907 1.45739 132.713 1.19566C133.56 0.92041 134.448 0.781964 135.34 0.785719C136.196 0.784344 137.048 0.898825 137.873 1.12593C138.667 1.34198 139.414 1.70016 140.076 2.18249C140.724 2.66054 141.256 3.27495 141.631 3.98075C142.033 4.77139 142.233 5.64588 142.214 6.52917C142.221 7.14444 142.13 7.75697 141.943 8.34434C141.768 8.87368 141.518 9.37648 141.201 9.83832C140.886 10.2945 140.525 10.7192 140.125 11.1062C139.751 11.5035 139.321 11.8902 138.914 12.2642L134.998 15.6874H142.051C142.077 15.6847 142.104 15.6874 142.129 15.6954C142.155 15.7034 142.178 15.7166 142.198 15.734C142.217 15.7515 142.233 15.7728 142.244 15.7966C142.255 15.8204 142.26 15.8462 142.26 15.8723C142.26 15.8984 142.255 15.9242 142.244 15.948C142.233 15.9719 142.217 15.9932 142.198 16.0106C142.178 16.0281 142.155 16.0412 142.129 16.0493C142.104 16.0573 142.077 16.06 142.051 16.0572Z"
        fill="#8316B5" stroke="#8316B5" stroke-width="0.5" stroke-miterlimit="10" />
    <path
        d="M148.952 20.2886C148.126 20.2914 147.304 20.1804 146.51 19.9589C145.762 19.7526 145.049 19.4386 144.395 19.0271C143.767 18.6255 143.215 18.1209 142.762 17.5352C142.387 17.0488 142.09 16.5085 141.882 15.9334V15.9102L141.863 15.8637C141.847 15.8174 141.851 15.7672 141.873 15.7234C141.894 15.6797 141.932 15.6459 141.979 15.6292C142.026 15.6129 142.077 15.6156 142.122 15.6366C142.167 15.6576 142.201 15.6952 142.218 15.7412C142.221 15.7505 142.224 15.7597 142.228 15.7686L142.246 15.8088C142.44 16.3484 142.719 16.8553 143.072 17.3112C143.5 17.8643 144.022 18.3399 144.617 18.7164C145.234 19.1109 145.906 19.4142 146.613 19.6166C148.226 20.0581 149.934 20.0317 151.532 19.5405C151.555 19.5332 151.58 19.5304 151.604 19.5325C151.629 19.5345 151.653 19.5412 151.675 19.5523C151.697 19.5634 151.716 19.5786 151.732 19.5971C151.748 19.6155 151.76 19.6369 151.767 19.6599C151.775 19.683 151.778 19.7072 151.776 19.7313C151.774 19.7554 151.767 19.7789 151.755 19.8003C151.744 19.8218 151.729 19.8409 151.71 19.8565C151.691 19.8721 151.669 19.884 151.646 19.8913C150.774 20.1586 149.865 20.2926 148.952 20.2886Z"
        fill="#8316B5" stroke="#8316B5" stroke-width="0.5" stroke-miterlimit="10" />
    <path
        d="M148.899 16.6471C148.173 16.6616 147.463 16.4303 146.89 15.992C146.34 15.5718 145.939 14.9921 145.743 14.3353C145.729 14.2886 145.734 14.2381 145.758 14.1951C145.781 14.1521 145.821 14.1201 145.869 14.1061C145.917 14.0921 145.968 14.0972 146.012 14.1204C146.055 14.1436 146.088 14.1829 146.102 14.2297C146.275 14.8161 146.632 15.3339 147.122 15.7089C147.646 16.089 148.282 16.2896 148.933 16.2796C149.583 16.2697 150.213 16.0499 150.724 15.6539C151.232 15.2419 151.479 14.6417 151.479 13.8197C151.494 13.3872 151.386 12.9591 151.167 12.5836C150.992 12.2501 150.718 11.9768 150.382 11.7996C148.71 11.1086 147.585 12.0405 147.568 12.049C147.533 12.0786 147.489 12.0951 147.443 12.0954L143.355 12.032C143.329 12.0318 143.304 12.0266 143.281 12.0169C143.258 12.0071 143.237 11.9928 143.219 11.975C143.202 11.9569 143.189 11.9356 143.18 11.9123C143.172 11.8891 143.168 11.8644 143.17 11.8398L143.624 1.44532C143.626 1.39785 143.647 1.353 143.681 1.31999C143.716 1.28698 143.763 1.26831 143.811 1.26782H158.685C158.731 1.27271 158.774 1.29429 158.805 1.32843C158.837 1.36256 158.854 1.40683 158.854 1.45272C158.854 1.49861 158.837 1.54288 158.805 1.57701C158.774 1.61115 158.731 1.63273 158.685 1.63762H143.987L143.557 11.6601L147.378 11.7193C147.654 11.508 148.846 10.7578 150.524 11.4531C150.935 11.6584 151.271 11.984 151.486 12.3849C151.742 12.8185 151.87 13.3142 151.854 13.8155C151.854 14.7432 151.554 15.4553 150.963 15.9286C150.384 16.4025 149.652 16.6574 148.899 16.6471Z"
        fill="#8316B5" stroke="#8316B5" stroke-width="0.5" stroke-miterlimit="10" />
    <path
        d="M156.08 13.7995C156.03 13.7989 155.983 13.7791 155.948 13.7443C155.913 13.7094 155.893 13.6625 155.893 13.6135C155.911 12.7754 155.739 11.9439 155.389 11.1792C155.067 10.5053 154.598 9.90941 154.015 9.43376C153.407 8.94827 152.706 8.58883 151.953 8.3772C151.123 8.13831 150.261 8.01944 149.395 8.02431C149.122 8.02431 148.816 8.03699 148.483 8.06235C148.18 8.08407 147.88 8.13001 147.586 8.1997C147.557 8.20628 147.527 8.20626 147.499 8.19963C147.47 8.19301 147.444 8.17996 147.421 8.16152C147.399 8.14308 147.381 8.11975 147.369 8.09337C147.357 8.06699 147.352 8.03829 147.353 8.00952L147.51 5.13779C147.513 5.09069 147.534 5.04637 147.569 5.0138C147.603 4.98124 147.649 4.96286 147.698 4.9624H152.646C152.693 4.96729 152.736 4.98887 152.767 5.02301C152.798 5.05714 152.815 5.10141 152.815 5.1473C152.815 5.19319 152.798 5.23746 152.767 5.27159C152.736 5.30573 152.693 5.32731 152.646 5.3322H147.876L147.741 7.78342C147.976 7.73908 148.214 7.70804 148.453 7.69044C148.797 7.66508 149.113 7.6524 149.395 7.6524C150.297 7.64744 151.195 7.77057 152.061 8.01797C152.862 8.24527 153.608 8.62827 154.256 9.14426C154.88 9.65352 155.383 10.2921 155.727 11.0144C156.103 11.8281 156.288 12.714 156.269 13.6072C156.27 13.632 156.266 13.6568 156.256 13.68C156.247 13.7031 156.233 13.7243 156.216 13.7421C156.198 13.76 156.177 13.7743 156.154 13.7841C156.13 13.794 156.105 13.7992 156.08 13.7995Z"
        fill="#4AB5E2" stroke="#4AB5E2" stroke-width="0.5" stroke-miterlimit="10" />
    <path
        d="M153.045 17.3168C153.048 17.3956 153.033 17.4741 153.002 17.5469C152.971 17.6198 152.925 17.6854 152.867 17.7394C152.751 17.8479 152.596 17.9072 152.436 17.9043C152.355 17.9044 152.274 17.8894 152.197 17.8599C152.125 17.8316 152.059 17.7908 152.002 17.7394C151.946 17.6878 151.9 17.6261 151.868 17.5577C151.837 17.4859 151.821 17.4086 151.821 17.3305C151.821 17.2525 151.837 17.1752 151.868 17.1034C151.9 17.0327 151.945 16.9688 152.002 16.9153C152.059 16.8621 152.125 16.8192 152.197 16.7885C152.308 16.7419 152.431 16.7283 152.549 16.7494C152.668 16.7704 152.777 16.8252 152.864 16.9069C152.922 16.9589 152.968 17.0224 152.999 17.093C153.03 17.1636 153.046 17.2399 153.045 17.3168Z"
        fill="#8316B5" />
    <path
        d="M154.946 18.2832C154.886 18.4298 154.814 18.5712 154.73 18.7059C154.66 18.8219 154.57 18.9261 154.466 19.0144C154.358 19.1009 154.235 19.1662 154.102 19.2067C153.942 19.2535 153.776 19.2756 153.609 19.2722C153.513 19.2716 153.417 19.266 153.321 19.2553C153.235 19.2447 153.149 19.2285 153.065 19.2067L153.173 18.3868C153.276 18.4191 153.384 18.4369 153.493 18.4396C153.553 18.4453 153.613 18.4391 153.671 18.4213C153.728 18.4035 153.781 18.3745 153.827 18.3361C153.905 18.2508 153.965 18.1509 154.003 18.0423L154.1 17.7993L152.841 14.8875H153.952L154.625 16.7893H154.642L155.24 14.8875H156.295L154.946 18.2832Z"
        fill="#8316B5" />
    <path d="M156.565 17.8375V14.8792H157.557V17.8375H156.565Z" fill="#8316B5" />
    <path d="M158.235 17.8379V13.3455H159.247V17.8379H158.235Z" fill="#8316B5" />
    <path d="M129.87 18.313H123.63" stroke="#FF9B0F" stroke-width="0.5" stroke-miterlimit="10" />
    <path
        d="M129.87 18.4973H123.63C123.387 18.4973 123.2 18.4149 123.2 18.3135C123.2 18.2121 123.396 18.1296 123.63 18.1296H129.87C130.111 18.1296 130.3 18.2121 130.3 18.3135C130.3 18.4149 130.111 18.4973 129.87 18.4973Z"
        fill="#FF9B0F" stroke="#FF9B0F" stroke-width="0.5" stroke-miterlimit="10" />
    <path d="M132.222 17.1855H125.997" stroke="#4AB5E2" stroke-width="0.5" stroke-miterlimit="10" />
    <path
        d="M132.219 17.3692H125.997C125.969 17.3751 125.94 17.3748 125.912 17.3683C125.885 17.3619 125.859 17.3493 125.836 17.3317C125.814 17.3141 125.796 17.2918 125.784 17.2665C125.772 17.2412 125.765 17.2134 125.765 17.1854C125.765 17.1573 125.772 17.1296 125.784 17.1043C125.796 17.079 125.814 17.0567 125.836 17.0391C125.859 17.0214 125.885 17.0089 125.912 17.0024C125.94 16.9959 125.969 16.9956 125.997 17.0015H132.219C132.247 16.9956 132.276 16.9959 132.304 17.0024C132.332 17.0089 132.358 17.0214 132.38 17.0391C132.402 17.0567 132.42 17.079 132.433 17.1043C132.445 17.1296 132.451 17.1573 132.451 17.1854C132.451 17.2134 132.445 17.2412 132.433 17.2665C132.42 17.2918 132.402 17.3141 132.38 17.3317C132.358 17.3493 132.332 17.3619 132.304 17.3683C132.276 17.3748 132.247 17.3751 132.219 17.3692Z"
        fill="#4AB5E2" stroke="#4AB5E2" stroke-width="0.5" stroke-miterlimit="10" />
    <path fill-rule="evenodd" clip-rule="evenodd"
        d="M167.568 2.5136C167.675 2.65357 167.647 2.85227 167.504 2.95739C164.946 4.84452 162.951 5.73578 161.394 5.81169C160.605 5.85011 159.927 5.67962 159.354 5.3239C158.784 4.97031 158.338 4.44639 157.99 3.8078C157.857 3.56978 157.662 3.37159 157.423 3.23446C157.185 3.09715 156.912 3.02624 156.636 3.02935L156.634 3.02937H151.275C151.096 3.02937 150.952 2.88746 150.952 2.7124C150.952 2.53735 151.096 2.39543 151.275 2.39543H156.63C157.023 2.39136 157.41 2.4923 157.749 2.68748C158.089 2.88298 158.368 3.16564 158.557 3.50515L158.558 3.50726C158.869 4.07686 159.246 4.50714 159.699 4.788C160.148 5.06694 160.692 5.21117 161.362 5.17854C162.72 5.11234 164.584 4.31839 167.117 2.4505C167.259 2.34538 167.461 2.37362 167.568 2.5136Z"
        fill="#49CA77" />
    <path fill-rule="evenodd" clip-rule="evenodd"
        d="M162.39 3.75597C161.481 3.71945 160.628 4.1504 160.172 4.6807C159.617 5.32752 159.012 5.64431 158.387 5.60565C157.774 5.56775 157.24 5.19311 156.805 4.67889C156.535 4.36002 156.185 4.22744 155.887 4.17592C155.738 4.15022 155.607 4.14564 155.514 4.14747C155.467 4.14838 155.431 4.15086 155.408 4.15294C155.396 4.15397 155.388 4.15491 155.383 4.15548L155.378 4.15603C155.378 4.15606 155.378 4.15605 155.378 4.15603L155.356 4.15932H149.217C149.039 4.15932 148.895 4.0174 148.895 3.84235C148.895 3.66729 149.039 3.52538 149.217 3.52538H155.312C155.322 3.52423 155.335 3.52292 155.35 3.52158C155.386 3.5183 155.438 3.51489 155.501 3.51366C155.626 3.51119 155.8 3.51731 155.999 3.55157C156.394 3.61997 156.904 3.80436 157.302 4.27368C157.682 4.72304 158.067 4.95064 158.428 4.97297C158.776 4.99452 159.2 4.82952 159.679 4.27187C160.258 3.59769 161.301 3.07773 162.416 3.12257C163.558 3.16844 164.732 3.80235 165.554 5.35259C165.637 5.50784 165.575 5.69926 165.417 5.78014C165.259 5.86102 165.064 5.80073 164.982 5.64548C164.253 4.27116 163.273 3.79145 162.39 3.75597Z"
        fill="#DE4747" />
</svg>