<svg width="225" height="37" viewBox="0 0 225 37" fill="none" xmlns="http://www.w3.org/2000/svg">
<path d="M220.13 2.23491C218.493 2.23491 217.17 3.55691 217.17 5.19491C217.17 6.86491 218.493 8.15491 220.13 8.15491C221.768 8.15491 223.091 6.86491 223.091 5.19491C223.091 3.55691 221.8 2.23491 220.131 2.23491H220.13ZM215.595 5.19491C215.595 2.70691 217.61 0.659912 220.131 0.659912C222.618 0.659912 224.666 2.70691 224.666 5.19491C224.666 7.71491 222.618 9.72991 220.131 9.72991C217.705 9.72991 215.595 7.74591 215.595 5.19491ZM26.24 25.4959C27.399 25.4849 28.398 25.0559 29.211 24.2139C30.025 23.3759 30.433 22.3539 30.423 21.1749C30.412 19.9999 29.984 18.9849 29.155 18.1689C28.325 17.3559 27.32 16.9469 26.161 16.9589C25.003 16.9689 24.003 17.3969 23.191 18.2259C22.379 19.0569 21.97 20.0799 21.979 21.2549C21.99 22.4349 22.416 23.4479 23.246 24.2699C24.073 25.0959 25.081 25.5069 26.24 25.4959ZM25.5 31.0729C23.096 31.0949 20.98 30.1589 19.215 28.2939C17.465 26.4399 16.564 24.0959 16.538 21.3339C16.512 18.4779 17.341 16.0869 19.006 14.2279C20.683 12.3519 22.766 11.3919 25.193 11.3679C26.313 11.3579 27.383 11.5679 28.373 11.9869C28.908 12.2169 29.425 12.5069 29.919 12.8619L29.915 12.4739C29.911 12.0869 30.22 11.7699 30.602 11.7659L34.908 11.7259C35.293 11.7219 35.605 12.0339 35.608 12.4209L35.768 29.8229C35.771 30.2119 35.466 30.5289 35.081 30.5329L30.774 30.5729C30.392 30.5769 30.078 30.2649 30.074 29.8759L30.071 29.5349C29.555 29.9189 29.033 30.2249 28.511 30.4519C27.586 30.8519 26.575 31.0619 25.5 31.0719V31.0729ZM106.385 31.0659C105.516 31.0659 104.761 30.7509 104.145 30.1259C103.529 29.5009 103.217 28.7359 103.217 27.8519C103.217 26.9679 103.529 26.2039 104.145 25.5849C104.761 24.9689 105.516 24.6529 106.385 24.6529C107.255 24.6529 108.008 24.9689 108.625 25.5849C109.242 26.2039 109.556 26.9679 109.556 27.8519C109.556 28.7349 109.242 29.5019 108.627 30.1259C108.009 30.7509 107.256 31.0659 106.385 31.0659ZM141.984 19.2329C141.712 18.5429 141.351 17.9459 140.892 17.4269C140.122 16.5639 139.248 16.1419 138.219 16.1419C137.093 16.1419 136.136 16.6189 135.298 17.6019C134.991 17.9569 134.693 18.5019 134.4 19.2319H141.984V19.2329ZM138.46 31.0659C135.589 31.0659 133.21 30.1269 131.39 28.2759C129.57 26.4239 128.648 24.0819 128.648 21.3099C128.648 18.4779 129.566 16.0859 131.378 14.2039C133.193 12.3189 135.496 11.3599 138.224 11.3599C141.108 11.3599 143.494 12.3169 145.314 14.2039C147.129 16.0839 148.051 18.5909 148.051 21.6469L148.036 22.4929C148.029 22.8729 147.721 23.1829 147.342 23.1829H134.392C134.628 23.8679 135.01 24.4329 135.552 24.8859C136.296 25.5159 137.237 25.8189 138.43 25.8189C139.863 25.8189 141.063 25.3239 142.094 24.3069C142.227 24.1769 142.401 24.1069 142.579 24.1069C142.679 24.1069 142.779 24.1309 142.874 24.1739L146.502 25.9039C146.688 25.9899 146.825 26.1589 146.878 26.3589C146.93 26.5609 146.892 26.7749 146.775 26.9459C145.805 28.3389 144.622 29.3859 143.26 30.0589C141.909 30.7269 140.296 31.0659 138.46 31.0659ZM149.585 30.6159C149.203 30.6159 148.891 30.3029 148.891 29.9129V5.79391C148.891 5.40391 149.203 5.09091 149.585 5.09091H153.893C154.276 5.09091 154.586 5.40491 154.586 5.79391V11.8169H156.448C156.83 11.8169 157.142 12.1309 157.142 12.5189V15.8289C157.142 16.2179 156.83 16.5329 156.448 16.5329H154.586V29.9129C154.586 30.3029 154.276 30.6159 153.893 30.6159H149.585ZM122.855 30.6159C122.472 30.6159 122.163 30.3029 122.163 29.9129V22.2929C122.163 19.7959 122.025 18.7669 121.91 18.3419C121.766 17.8059 121.533 17.4199 121.196 17.1549C120.86 16.8939 120.446 16.7679 119.929 16.7679C119.233 16.7679 118.655 16.9939 118.159 17.4649C117.639 17.9569 117.271 18.6629 117.062 19.5649C116.984 19.9009 116.891 20.7569 116.891 22.9309V29.9129C116.891 30.3029 116.581 30.6159 116.198 30.6159H111.893C111.507 30.6159 111.195 30.3029 111.195 29.9129V12.5119C111.195 12.1239 111.507 11.8089 111.893 11.8089H116.198C116.58 11.8089 116.891 12.1239 116.891 12.5119V12.8649C117.489 12.4449 118.053 12.1239 118.591 11.9029C119.464 11.5439 120.371 11.3599 121.287 11.3599C123.17 11.3599 124.793 12.0389 126.107 13.3739C127.238 14.5329 127.807 16.2279 127.807 18.4129V29.9129C127.807 30.3029 127.497 30.6159 127.115 30.6159H122.855ZM88.445 19.2329C88.175 18.5429 87.812 17.9429 87.354 17.4269C86.584 16.5619 85.709 16.1399 84.679 16.1399C83.555 16.1399 82.599 16.6179 81.758 17.5999C81.452 17.9539 81.152 18.4999 80.861 19.2329H88.445ZM84.93 31.0659C82.06 31.0659 79.681 30.1269 77.86 28.2759C76.04 26.4239 75.118 24.0799 75.118 21.3079C75.118 18.4749 76.036 16.0839 77.847 14.2039C79.665 12.3169 81.967 11.3609 84.693 11.3609C87.577 11.3609 89.963 12.3169 91.783 14.2019C93.603 16.0839 94.523 18.5869 94.523 21.6439L94.507 22.4909C94.498 22.8729 94.19 23.1809 93.813 23.1809H80.861C81.098 23.8679 81.479 24.4289 82.021 24.8859C82.768 25.5129 83.709 25.8189 84.899 25.8189C86.333 25.8189 87.532 25.3239 88.564 24.3069C88.696 24.1769 88.871 24.1069 89.047 24.1069C89.147 24.1069 89.249 24.1299 89.343 24.1739L92.972 25.9009C93.156 25.9899 93.295 26.1559 93.347 26.3579C93.4 26.5599 93.362 26.7749 93.243 26.9429C92.275 28.3369 91.093 29.3859 89.73 30.0579C88.38 30.7249 86.765 31.0659 84.93 31.0659ZM52.469 10.9639C51.599 10.9639 50.844 10.6489 50.229 10.0249C49.611 9.39991 49.299 8.63491 49.299 7.74991C49.299 6.86691 49.612 6.10391 50.229 5.48491C50.844 4.86791 51.599 4.55391 52.469 4.55391C53.338 4.55391 54.089 4.86791 54.709 5.48491C55.325 6.10391 55.639 6.86691 55.639 7.74991C55.639 8.63491 55.325 9.39991 54.709 10.0249C54.093 10.6489 53.339 10.9649 52.469 10.9649V10.9639ZM96.605 30.6159C96.224 30.6159 95.915 30.3019 95.915 29.9129V12.5099C95.915 12.1239 96.224 11.8099 96.605 11.8099H100.297C100.681 11.8099 100.993 12.1239 100.993 12.5099V12.5539C101.155 12.4049 101.327 12.2739 101.506 12.1499C102.282 11.6249 103.144 11.3599 104.068 11.3599C104.726 11.3599 105.417 11.5379 106.121 11.8779C106.442 12.0359 106.593 12.4119 106.471 12.7489L105.131 16.5069C105.062 16.6989 104.918 16.8499 104.736 16.9229C104.652 16.9579 104.566 16.9739 104.478 16.9739C104.371 16.9739 104.266 16.9499 104.168 16.8989C103.636 16.6299 103.353 16.5889 103.233 16.5889C103.087 16.5889 102.646 16.5889 102.159 17.4769C101.885 17.9719 101.559 19.1639 101.559 22.0259L101.574 22.8629V29.9129C101.574 30.3019 101.265 30.6159 100.881 30.6159H96.605ZM60.51 36.9799C60.272 36.9799 60.052 36.8569 59.924 36.6549C59.797 36.4529 59.779 36.1979 59.88 35.9809L63.282 28.5979L56.873 12.7779C56.784 12.5619 56.809 12.3179 56.938 12.1199C57.066 11.9239 57.282 11.8099 57.513 11.8099H61.915C62.196 11.8099 62.452 11.9799 62.557 12.2429L66.405 21.6689L70.663 12.2189C70.774 11.9689 71.021 11.8089 71.294 11.8089H75.707C75.944 11.8089 76.163 11.9289 76.292 12.1339C76.419 12.3349 76.438 12.5849 76.339 12.8049L65.586 36.5719C65.474 36.8219 65.227 36.9799 64.956 36.9799H60.509H60.51ZM50.317 30.6159C49.934 30.6159 49.622 30.3019 49.622 29.9129V12.5099C49.622 12.1239 49.934 11.8099 50.317 11.8099H54.622C55.004 11.8099 55.316 12.1239 55.316 12.5099V29.9129C55.316 30.3019 55.004 30.6159 54.622 30.6159H50.317ZM38.388 30.6159C38.006 30.6159 37.696 30.3019 37.696 29.9129V12.5099C37.696 12.1239 38.006 11.8099 38.388 11.8099H42.081C42.462 11.8099 42.774 12.1239 42.774 12.5099V12.5539C42.939 12.4049 43.111 12.2739 43.29 12.1499C44.064 11.6249 44.927 11.3599 45.851 11.3599C46.511 11.3599 47.201 11.5379 47.904 11.8779C48.224 12.0339 48.376 12.4119 48.256 12.7489L46.915 16.5069C46.847 16.6989 46.703 16.8499 46.519 16.9229C46.436 16.9579 46.349 16.9739 46.262 16.9739C46.155 16.9739 46.05 16.9499 45.952 16.8989C45.42 16.6299 45.136 16.5889 45.014 16.5889C44.87 16.5889 44.429 16.5889 43.94 17.4769C43.668 17.9729 43.343 19.1669 43.343 22.0259L43.358 22.8629V29.9129C43.358 30.3019 43.048 30.6159 42.663 30.6159H38.388ZM12.288 30.6159C12.095 30.6159 11.911 30.5319 11.778 30.3889L5.695 23.6949V29.9129C5.695 30.3019 5.385 30.6159 5.001 30.6159H0.693C0.31 30.6159 0 30.3019 0 29.9129V5.79491C0 5.40491 0.31 5.09091 0.693 5.09091H5C5.384 5.09091 5.694 5.40491 5.694 5.79491V17.8449L10.826 12.0449C10.956 11.8939 11.142 11.8089 11.342 11.8089H16.752C17.026 11.8089 17.274 11.9709 17.384 12.2249C17.497 12.4799 17.451 12.7759 17.266 12.9829L10.295 20.8429L18.143 29.4359C18.333 29.6399 18.382 29.9389 18.27 30.1949C18.16 30.4509 17.912 30.6159 17.636 30.6159H12.288ZM164.684 15.7539H166.076C166.852 15.7539 167.598 15.6719 168.313 15.5059C169.028 15.3409 169.647 15.0749 170.174 14.7069C170.7 14.3409 171.12 13.8619 171.434 13.2699C171.747 12.6799 171.904 11.9699 171.904 11.1409C171.904 9.79291 171.472 8.74691 170.606 8.00091C169.741 7.25591 168.532 6.88291 166.978 6.88291C165.85 6.88291 164.86 7.11991 164.008 7.59291C163.155 8.06691 162.452 8.75291 161.901 9.65091L159.532 8.51591C160.335 7.16791 161.356 6.16791 162.597 5.51691C163.838 4.86691 165.272 4.54091 166.902 4.54091C167.955 4.54091 168.946 4.68291 169.874 4.96691C170.8 5.25091 171.614 5.67091 172.317 6.22691C173.018 6.78291 173.577 7.46891 173.991 8.28491C174.404 9.10091 174.611 10.0299 174.611 11.0699C174.611 11.7569 174.492 12.4069 174.254 13.0219C174.016 13.6369 173.69 14.1919 173.276 14.6899C172.862 15.1859 172.38 15.6189 171.828 15.9849C171.278 16.3519 170.7 16.6299 170.098 16.8179L170.211 16.8899C170.963 17.0319 171.653 17.2979 172.281 17.6879C172.906 18.0779 173.446 18.5569 173.896 19.1249C174.348 19.6919 174.699 20.3309 174.949 21.0409C175.199 21.7509 175.325 22.4959 175.325 23.2769C175.325 24.4359 175.1 25.4649 174.648 26.3639C174.198 27.2629 173.583 28.0189 172.806 28.6339C172.029 29.2499 171.126 29.7169 170.099 30.0359C169.07 30.3559 167.979 30.5159 166.827 30.5159C164.872 30.5159 163.167 30.1129 161.713 29.3089C160.259 28.5049 159.169 27.2149 158.442 25.4409L161.3 24.6249C161.751 25.8319 162.422 26.7249 163.311 27.3039C164.201 27.8839 165.449 28.1739 167.054 28.1739C167.806 28.1739 168.519 28.0549 169.196 27.8189C169.874 27.5819 170.469 27.2459 170.983 26.8069C171.496 26.3699 171.897 25.8439 172.186 25.2279C172.474 24.6129 172.618 23.9389 172.618 23.2059C172.618 22.2599 172.43 21.4609 172.054 20.8109C171.679 20.1609 171.176 19.6339 170.551 19.2309C169.923 18.8299 169.203 18.5399 168.388 18.3619C167.573 18.1849 166.728 18.0959 165.85 18.0959H164.684V15.7539ZM181.863 22.6149C181.863 23.4329 182.003 24.1789 182.286 24.8509C182.566 25.5249 182.964 26.1079 183.478 26.6009C183.993 27.0939 184.603 27.4729 185.314 27.7369C186.024 28.0019 186.805 28.1339 187.663 28.1339C188.519 28.1339 189.302 28.0019 190.011 27.7369C190.721 27.4729 191.332 27.0939 191.847 26.6009C192.36 26.1079 192.758 25.5249 193.039 24.8509C193.321 24.1789 193.462 23.4329 193.462 22.6149C193.462 21.7979 193.321 21.0519 193.039 20.3779C192.759 19.7049 192.36 19.1279 191.847 18.6469C191.332 18.1669 190.721 17.7869 190.011 17.5099C189.301 17.2339 188.519 17.0949 187.663 17.0949C186.805 17.0949 186.023 17.2339 185.313 17.5099C184.603 17.7869 183.993 18.1659 183.478 18.6469C182.964 19.1279 182.566 19.7049 182.286 20.3779C182.004 21.0519 181.863 21.7979 181.863 22.6149ZM184.506 15.5079L184.579 15.5799C184.996 15.2919 185.552 15.0749 186.249 14.9299C186.947 14.7869 187.589 14.7139 188.176 14.7139C189.302 14.7139 190.348 14.9129 191.315 15.3099C192.281 15.7059 193.118 16.2539 193.829 16.9509C194.539 17.6489 195.095 18.4789 195.499 19.4409C195.903 20.4019 196.104 21.4609 196.104 22.6149C196.104 23.7939 195.896 24.8639 195.48 25.8249C195.064 26.7869 194.477 27.6169 193.719 28.3149C192.959 29.0119 192.066 29.5539 191.039 29.9379C190.011 30.3229 188.886 30.5149 187.663 30.5149C186.439 30.5149 185.313 30.3229 184.286 29.9379C183.258 29.5539 182.364 29.0119 181.606 28.3149C180.848 27.6169 180.26 26.7869 179.845 25.8249C179.428 24.8639 179.221 23.7939 179.221 22.6149C179.221 21.1959 179.435 19.9569 179.864 18.8989C180.291 17.8409 180.823 16.7949 181.459 15.7609L188.469 4.54091H191.589L184.506 15.5079ZM205.845 6.88291C204.485 6.88291 203.412 7.24991 202.626 7.98291C201.841 8.71691 201.249 9.62791 200.85 10.7149C200.452 11.8049 200.2 12.9639 200.094 14.1929C199.989 15.4229 199.936 16.5349 199.936 17.5279C199.936 18.5219 199.989 19.6339 200.094 20.8639C200.2 22.0939 200.452 23.2539 200.85 24.3409C201.25 25.4299 201.841 26.3409 202.626 27.0729C203.412 27.8069 204.485 28.1729 205.846 28.1729C207.204 28.1729 208.277 27.8069 209.063 27.0729C209.849 26.3399 210.441 25.4299 210.839 24.3409C211.239 23.2529 211.49 22.0939 211.596 20.8639C211.701 19.6339 211.754 18.5219 211.754 17.5279C211.754 16.5349 211.701 15.4229 211.596 14.1929C211.49 12.9629 211.238 11.8039 210.839 10.7149C210.441 9.62791 209.849 8.71691 209.063 7.98291C208.277 7.24991 207.204 6.88291 205.845 6.88291ZM205.845 4.54091C207.627 4.54091 209.069 4.95591 210.171 5.78391C211.273 6.61191 212.129 7.66391 212.739 8.94191C213.349 10.2189 213.759 11.6209 213.969 13.1459C214.181 14.6719 214.286 16.1329 214.286 17.5279C214.286 18.9249 214.181 20.3849 213.97 21.9099C213.759 23.4369 213.349 24.8379 212.74 26.1149C212.129 27.3929 211.273 28.4449 210.171 29.2729C209.069 30.1009 207.627 30.5149 205.845 30.5149C204.063 30.5149 202.62 30.1009 201.519 29.2729C200.416 28.4449 199.561 27.3929 198.951 26.1149C198.341 24.8379 197.931 23.4369 197.721 21.9099C197.509 20.3849 197.403 18.9249 197.403 17.5279C197.403 16.1329 197.509 14.6719 197.721 13.1459C197.931 11.6209 198.341 10.2189 198.951 8.94191C199.561 7.66391 200.416 6.61191 201.519 5.78391C202.62 4.95591 204.063 4.54091 205.845 4.54091Z" fill="white"/>
</svg>
