<svg width="143" height="22" viewBox="0 0 143 22" fill="none" xmlns="http://www.w3.org/2000/svg">
<g clip-path="url(#clip0_4900_2934)">
<path d="M8.4701 16.9061C8.40979 16.9054 8.35026 16.8926 8.29515 16.8684C8.24004 16.8442 8.1905 16.8092 8.14958 16.7655L4.31929 12.6426V16.4666C4.32024 16.524 4.30961 16.581 4.28802 16.6343C4.26643 16.6876 4.23431 16.7361 4.19354 16.777C4.15277 16.8179 4.10416 16.8504 4.05054 16.8726C3.99692 16.8947 3.93937 16.9061 3.88124 16.9061H1.16924C1.11126 16.9059 1.0539 16.8943 1.00049 16.872C0.947081 16.8498 0.898682 16.8172 0.8581 16.7764C0.817518 16.7355 0.78556 16.687 0.76408 16.6339C0.7426 16.5807 0.732025 16.5238 0.732968 16.4666V1.63642C0.732734 1.57962 0.743832 1.52333 0.76563 1.47077C0.787428 1.4182 0.819499 1.3704 0.86001 1.33007C0.900522 1.28974 0.948681 1.25769 1.00174 1.23574C1.0548 1.21379 1.11171 1.20238 1.16924 1.20215H3.88124C3.93892 1.20215 3.99603 1.21339 4.04929 1.23524C4.10255 1.25708 4.15092 1.2891 4.19162 1.32945C4.23232 1.3698 4.26455 1.41768 4.28646 1.47036C4.30837 1.52304 4.31953 1.57947 4.31929 1.63642V9.04535L7.54948 5.47802C7.59013 5.4323 7.64028 5.39576 7.69651 5.37088C7.75274 5.34601 7.81373 5.33338 7.87535 5.33385H11.2818C11.3662 5.33431 11.4486 5.35881 11.5192 5.4044C11.5898 5.45 11.6456 5.51475 11.6798 5.59088C11.714 5.667 11.7253 5.75127 11.7121 5.83355C11.699 5.91583 11.6622 5.99262 11.6059 6.0547L7.21471 10.8897L12.1579 16.173C12.2181 16.2344 12.2584 16.312 12.274 16.396C12.2895 16.48 12.2795 16.5667 12.2452 16.6451C12.211 16.7235 12.1539 16.7901 12.0814 16.8366C12.0088 16.883 11.9239 16.9072 11.8374 16.9061H8.4701Z" fill="white"/>
<path d="M25.0095 16.9711C24.8936 16.9706 24.7827 16.9249 24.7009 16.8438C24.6191 16.7627 24.5732 16.653 24.5732 16.5386V5.85242C24.5732 5.73817 24.6192 5.62861 24.701 5.54783C24.7828 5.46705 24.8938 5.42166 25.0095 5.42166H27.3244C27.4401 5.42166 27.5511 5.46705 27.6329 5.54783C27.7147 5.62861 27.7607 5.73817 27.7607 5.85242V5.87879C27.8631 5.78917 27.9713 5.70636 28.0848 5.63089C28.5576 5.31412 29.116 5.14505 29.6874 5.14563C30.1365 5.15479 30.5777 5.26355 30.9784 5.46386C31.0741 5.51003 31.1495 5.58904 31.1905 5.68613C31.2315 5.78321 31.2352 5.8917 31.201 5.99131L30.3569 8.29979C30.3364 8.35748 30.3035 8.41011 30.2605 8.4541C30.2174 8.4981 30.1653 8.53242 30.1077 8.55473C30.0568 8.57548 30.0024 8.58624 29.9474 8.58637C29.8794 8.58629 29.8123 8.57064 29.7515 8.54066C29.5715 8.43541 29.3703 8.37058 29.1621 8.35078C29.0713 8.35078 28.7935 8.35078 28.4872 8.89581C28.3091 9.19997 28.1115 9.93313 28.1115 11.6895V12.2029V16.5386C28.1117 16.5953 28.1006 16.6515 28.0788 16.704C28.057 16.7564 28.0249 16.8041 27.9843 16.8443C27.9438 16.8845 27.8956 16.9164 27.8426 16.9381C27.7895 16.9599 27.7327 16.9711 27.6752 16.9711H25.0095Z" fill="white"/>
<path d="M32.5839 16.9716C32.4672 16.9716 32.3554 16.9258 32.2729 16.8444C32.1904 16.7629 32.144 16.6525 32.144 16.5373V5.8019C32.1445 5.68702 32.1911 5.57702 32.2735 5.49596C32.3559 5.4149 32.4675 5.36938 32.5839 5.36938H35.319C35.4354 5.36938 35.547 5.4149 35.6294 5.49596C35.7118 5.57702 35.7584 5.68702 35.7589 5.8019V16.5373C35.7589 16.6525 35.7125 16.7629 35.63 16.8444C35.5475 16.9258 35.4357 16.9716 35.319 16.9716H32.5839Z" fill="white"/>
<path d="M39.0051 20.8764C38.931 20.8765 38.8581 20.8581 38.7931 20.8231C38.728 20.7881 38.673 20.7375 38.633 20.6759C38.5929 20.6148 38.5694 20.5446 38.5648 20.4719C38.5601 20.3993 38.5744 20.3266 38.6062 20.261L40.7644 15.7126L36.7027 5.96707C36.6751 5.90127 36.6644 5.82977 36.6716 5.75892C36.6787 5.68806 36.7035 5.62005 36.7437 5.56091C36.7838 5.50177 36.8382 5.45334 36.9018 5.41991C36.9655 5.38649 37.0366 5.3691 37.1087 5.36929H39.9026C39.9895 5.36882 40.0746 5.39401 40.147 5.44163C40.2193 5.48925 40.2756 5.55712 40.3086 5.63653L42.7535 11.4385L45.4548 5.61544C45.4902 5.54008 45.5468 5.47634 45.6178 5.43177C45.6888 5.38721 45.7713 5.36369 45.8555 5.36402H48.6512C48.7252 5.36408 48.7981 5.38246 48.8631 5.41747C48.9281 5.45248 48.9832 5.50301 49.0233 5.56445C49.0628 5.62541 49.0862 5.69522 49.0912 5.76743C49.0961 5.83964 49.0826 5.91193 49.0518 5.97762L42.2228 20.6249C42.1874 20.7003 42.1308 20.764 42.0598 20.8086C41.9888 20.8532 41.9063 20.8767 41.8222 20.8764H39.0051Z" fill="white"/>
<path d="M61.8432 16.9711C61.7859 16.9709 61.7292 16.9595 61.6764 16.9377C61.6235 16.9158 61.5756 16.8839 61.5352 16.8437C61.4949 16.8035 61.4629 16.7559 61.4412 16.7036C61.4195 16.6512 61.4085 16.5952 61.4087 16.5386V5.85244C61.4087 5.7385 61.4544 5.6292 61.5358 5.54847C61.6173 5.46774 61.7278 5.42215 61.8432 5.42169H64.1581C64.2738 5.42169 64.3848 5.46707 64.4666 5.54785C64.5484 5.62863 64.5944 5.7382 64.5944 5.85244V5.87881C64.6967 5.7892 64.805 5.70638 64.9185 5.63091C65.3938 5.31245 65.9555 5.1433 66.53 5.14565C66.979 5.15523 67.4201 5.26397 67.821 5.46388C67.92 5.5103 67.9977 5.59166 68.0389 5.69191C68.0801 5.79215 68.0818 5.90401 68.0436 6.0054L67.1995 8.31388C67.1791 8.37134 67.1464 8.42381 67.1037 8.46778C67.061 8.51175 67.0093 8.5462 66.952 8.56881C66.9005 8.58941 66.8455 8.60015 66.79 8.60046C66.722 8.60019 66.655 8.58455 66.5941 8.55475C66.4145 8.45 66.214 8.3852 66.0065 8.36487C65.9139 8.36487 65.6361 8.36487 65.3298 8.9099C65.1517 9.2123 64.9541 9.94546 64.9541 11.7036L64.963 12.217V16.5386C64.9632 16.5953 64.9521 16.6515 64.9303 16.704C64.9085 16.7565 64.8764 16.8041 64.8358 16.8443C64.7953 16.8845 64.7471 16.9164 64.6941 16.9382C64.641 16.9599 64.5841 16.9711 64.5267 16.9711H61.8432Z" fill="white"/>
<path d="M33.8958 4.81185C33.6362 4.8164 33.3784 4.7687 33.138 4.67167C32.8977 4.57464 32.6799 4.43031 32.4979 4.24748C32.3112 4.06713 32.1635 3.85114 32.0641 3.61265C31.9646 3.37417 31.9153 3.11818 31.9192 2.86028C31.915 2.60366 31.9642 2.34892 32.0638 2.11183C32.1633 1.87473 32.3111 1.66033 32.4979 1.48188C32.8698 1.11791 33.3722 0.913696 33.8958 0.913696C34.4194 0.913696 34.9218 1.11791 35.2936 1.48188C35.4807 1.66024 35.6287 1.87459 35.7286 2.11167C35.8284 2.34876 35.8779 2.60355 35.8741 2.86028C35.8777 3.11829 35.8281 3.37432 35.7283 3.6128C35.6285 3.85128 35.4806 4.06722 35.2936 4.24748C35.1122 4.43158 34.8947 4.57721 34.6543 4.67546C34.414 4.77371 34.1559 4.82252 33.8958 4.81889" fill="white"/>
<path d="M56.6468 9.89308C56.4849 9.48379 56.2503 9.10631 55.9541 8.7784C55.7478 8.53091 55.4888 8.33138 55.1954 8.19402C54.9021 8.05666 54.5817 7.98485 54.2571 7.98371C53.5448 7.98371 52.9358 8.27908 52.4016 8.88389C52.1608 9.18853 51.9708 9.52922 51.8389 9.89308H56.6468ZM54.4156 17.1948C52.5939 17.1948 51.0839 16.6146 49.9282 15.4718C48.7725 14.3289 48.1885 12.8837 48.1885 11.173C48.1885 9.42541 48.7708 7.94854 49.9211 6.78991C51.0714 5.63127 52.5352 5.03174 54.266 5.03174C56.0948 5.03174 57.6101 5.62073 58.7658 6.78991C59.9215 7.95909 60.5038 9.49574 60.5038 11.3823L60.4931 11.9097C60.4908 12.0234 60.4434 12.1316 60.3612 12.2111C60.2789 12.2907 60.1684 12.3352 60.0533 12.3352H51.8389C51.9795 12.7477 52.2343 13.1131 52.5743 13.3901C53.048 13.7769 53.6428 13.965 54.4013 13.965C54.8326 13.9728 55.261 13.8942 55.6607 13.734C56.0604 13.5739 56.4231 13.3355 56.7269 13.0332C56.7908 12.9707 56.8726 12.9293 56.9612 12.9145C57.0498 12.8997 57.1409 12.9123 57.222 12.9505L59.5244 14.016C59.583 14.0424 59.6351 14.0813 59.6768 14.1297C59.7186 14.1782 59.749 14.2352 59.766 14.2966C59.783 14.358 59.7861 14.4223 59.7751 14.485C59.7642 14.5477 59.7393 14.6073 59.7025 14.6595C59.1334 15.4755 58.3622 16.134 57.4623 16.5724C56.5076 17.005 55.4658 17.2179 54.4156 17.1948Z" fill="white"/>
<path d="M78.3879 16.9717C78.3304 16.9719 78.2735 16.961 78.2204 16.9394C78.1672 16.9179 78.1189 16.8862 78.0782 16.8462C78.0375 16.8062 78.0052 16.7586 77.9832 16.7062C77.9611 16.6538 77.9498 16.5977 77.9498 16.541V11.8607C77.9498 10.3276 77.8626 9.6964 77.7895 9.43443C77.7257 9.14902 77.5671 8.89284 77.339 8.70655C77.1066 8.53919 76.8234 8.45487 76.5359 8.46744C76.3301 8.46253 76.1253 8.49791 75.9333 8.57154C75.7414 8.64517 75.5661 8.75559 75.4177 8.89643C75.0609 9.24785 74.819 9.69673 74.7232 10.1852C74.6733 10.3909 74.6146 10.9166 74.6146 12.2528V16.541C74.6146 16.5977 74.6032 16.6538 74.5812 16.7062C74.5591 16.7586 74.5268 16.8062 74.4861 16.8462C74.4454 16.8862 74.3971 16.9179 74.344 16.9394C74.2909 16.961 74.2339 16.9719 74.1765 16.9717H71.4538C71.3961 16.9722 71.3389 16.9614 71.2855 16.94C71.2321 16.9186 71.1834 16.8869 71.1424 16.8469C71.1014 16.8069 71.0687 16.7593 71.0464 16.7068C71.0241 16.6543 71.0124 16.5979 71.0122 16.541V5.8548C71.0124 5.79777 71.024 5.74134 71.0464 5.68874C71.0687 5.63614 71.1013 5.5884 71.1423 5.54824C71.1833 5.50808 71.2319 5.47628 71.2854 5.45467C71.3388 5.43306 71.3961 5.42206 71.4538 5.42229H74.1765C74.2927 5.42229 74.4041 5.46786 74.4863 5.54897C74.5684 5.63008 74.6146 5.74009 74.6146 5.8548V6.07105C74.9478 5.83628 75.3061 5.63819 75.683 5.48031C76.2245 5.26156 76.8038 5.14813 77.3889 5.14626C77.955 5.13651 78.5172 5.2406 79.0413 5.45218C79.5654 5.66376 80.0404 5.9784 80.4374 6.37698C81.1497 7.08903 81.5059 8.13515 81.5059 9.47136V16.541C81.5059 16.5977 81.4945 16.6538 81.4725 16.7062C81.4504 16.7586 81.4181 16.8062 81.3774 16.8462C81.3367 16.8862 81.2884 16.9179 81.2353 16.9394C81.1822 16.961 81.1253 16.9719 81.0678 16.9717H78.3879Z" fill="white"/>
<path d="M95.2877 16.971C95.1715 16.971 95.0601 16.9254 94.9779 16.8443C94.8958 16.7632 94.8496 16.6532 94.8496 16.5385V1.67487C94.8496 1.56 94.8957 1.44981 94.9778 1.36841C95.0599 1.28702 95.1713 1.24107 95.2877 1.2406H98.0014C98.059 1.24083 98.1159 1.25225 98.1689 1.2742C98.222 1.29614 98.2702 1.3282 98.3107 1.36852C98.3512 1.40885 98.3833 1.45666 98.4051 1.50922C98.4269 1.56178 98.438 1.61807 98.4377 1.67487V5.38637H99.6112C99.7271 5.38683 99.838 5.43261 99.9198 5.51367C100.002 5.59473 100.047 5.70447 100.047 5.81888V7.85836C100.047 7.97246 100.002 8.08194 99.9204 8.16295C99.839 8.24396 99.7285 8.28994 99.613 8.29087H98.4395V16.5367C98.4397 16.5934 98.4286 16.6496 98.4068 16.7021C98.385 16.7545 98.3529 16.8022 98.3123 16.8424C98.2718 16.8826 98.2236 16.9145 98.1706 16.9362C98.1175 16.958 98.0607 16.9692 98.0032 16.9692L95.2877 16.971Z" fill="white"/>
<path d="M90.4353 9.89308C90.2739 9.48358 90.0392 9.10603 89.7426 8.7784C89.5364 8.53137 89.2776 8.33224 88.9846 8.19519C88.6916 8.05814 88.3716 7.98653 88.0474 7.98547C87.3351 7.98547 86.7244 8.28084 86.1919 8.88565C85.9495 9.1898 85.7572 9.52979 85.6221 9.89308H90.4353ZM88.2006 17.1948C86.3771 17.1948 84.8671 16.6146 83.7114 15.4735C82.5557 14.3325 81.9717 12.8855 81.9717 11.1748C81.9717 9.42717 82.554 7.9503 83.7043 6.78991C84.8546 5.62952 86.3184 5.03174 88.0492 5.03174C89.8798 5.03174 91.3934 5.62248 92.549 6.78991C93.7047 7.95734 94.287 9.49574 94.287 11.3823V11.9097C94.2837 12.0249 94.2346 12.1342 94.1503 12.2138C94.0659 12.2935 93.9532 12.3371 93.8365 12.3352H85.6168C85.7579 12.7479 86.0133 13.1133 86.354 13.3901C86.8259 13.7786 87.4224 13.9668 88.181 13.9668C88.6123 13.9737 89.0406 13.8945 89.4402 13.7341C89.8398 13.5737 90.2025 13.3353 90.5066 13.0332C90.5883 12.9541 90.6983 12.9099 90.8128 12.9101C90.8779 12.9105 90.9422 12.9243 91.0016 12.9505L93.304 14.0178C93.3622 14.0446 93.4137 14.0837 93.4549 14.1323C93.4961 14.1809 93.5261 14.2378 93.5427 14.2991C93.5587 14.3606 93.5611 14.4247 93.5498 14.4873C93.5384 14.5498 93.5135 14.6091 93.4768 14.6612C92.9104 15.4779 92.1433 16.1391 91.2473 16.5829C90.2925 17.015 89.2507 17.2272 88.2006 17.2036V17.1948Z" fill="white"/>
<path d="M68.0162 17.194C67.6243 17.1937 67.2412 17.0787 66.9156 16.8634C66.5899 16.6482 66.3363 16.3423 66.1868 15.9846C66.0373 15.6269 65.9987 15.2335 66.0758 14.8541C66.153 14.4747 66.3424 14.1265 66.6201 13.8534C66.9916 13.4896 67.4938 13.2854 68.0171 13.2854C68.5404 13.2854 69.0425 13.4896 69.414 13.8534C69.6919 14.1266 69.8813 14.475 69.9584 14.8545C70.0355 15.2341 69.9967 15.6277 69.847 15.9854C69.6973 16.3432 69.4434 16.649 69.1174 16.8642C68.7915 17.0793 68.4082 17.1941 68.0162 17.194Z" fill="white"/>
<path d="M17.3417 13.7569C18.0501 13.7569 18.7295 13.4791 19.2304 12.9845C19.7313 12.4899 20.0128 11.8191 20.0128 11.1197C20.0119 10.5992 19.8552 10.0906 19.5622 9.6579C19.2692 9.22522 18.8531 8.88782 18.3662 8.68818C17.8794 8.48854 17.3436 8.4356 16.8264 8.53602C16.3091 8.63644 15.8335 8.88573 15.4595 9.25249C15.2113 9.49741 15.0144 9.78821 14.8801 10.1083C14.7457 10.4284 14.6766 10.7714 14.6766 11.1179C14.6766 11.4644 14.7457 11.8075 14.8801 12.1275C15.0144 12.4476 15.2113 12.7384 15.4595 12.9833C15.7036 13.2322 15.9966 13.4292 16.3206 13.5622C16.6446 13.6953 16.9926 13.7615 17.3435 13.7569M16.8413 17.1942C15.3242 17.1942 13.9922 16.6034 12.8917 15.436C11.7913 14.2686 11.2393 12.8374 11.2393 11.1337C11.2393 9.37556 11.7735 7.90046 12.8419 6.76292C13.3308 6.21388 13.9338 5.7753 14.6098 5.47707C15.2858 5.17883 16.019 5.02793 16.7594 5.03464C17.4478 5.03069 18.1297 5.16653 18.7627 5.43374C19.1054 5.58123 19.4308 5.76517 19.7332 5.98229V5.74318C19.7332 5.62847 19.7793 5.51846 19.8615 5.43735C19.9436 5.35624 20.0551 5.31067 20.1712 5.31067H22.8904C22.9478 5.31067 23.0047 5.32187 23.0577 5.34363C23.1108 5.36539 23.1589 5.39727 23.1995 5.43746C23.24 5.47764 23.2721 5.52534 23.2939 5.5778C23.3158 5.63026 23.3269 5.68647 23.3266 5.74318V16.4821C23.3271 16.539 23.3162 16.5953 23.2945 16.648C23.2727 16.7007 23.2407 16.7486 23.2001 16.789C23.1596 16.8293 23.1113 16.8614 23.0581 16.8832C23.005 16.9051 22.948 16.9164 22.8904 16.9164H20.1748C20.1171 16.9164 20.06 16.9051 20.0068 16.8833C19.9535 16.8614 19.9051 16.8294 19.8644 16.7891C19.8237 16.7487 19.7915 16.7008 19.7696 16.6481C19.7477 16.5955 19.7365 16.539 19.7367 16.4821V16.2711C19.4295 16.4938 19.0973 16.6809 18.7467 16.8285C18.1426 17.0746 17.4948 17.199 16.8413 17.1942Z" fill="white"/>
<path d="M107.92 16.7303H107.078" stroke="white" stroke-width="0.374626" stroke-miterlimit="10"/>
<path d="M107.92 16.8836H107.078C107.056 16.8859 107.034 16.8837 107.013 16.877C106.992 16.8703 106.973 16.8594 106.956 16.8449C106.94 16.8304 106.927 16.8126 106.918 16.7928C106.909 16.773 106.904 16.7515 106.904 16.7298C106.904 16.7081 106.909 16.6866 106.918 16.6668C106.927 16.647 106.94 16.6292 106.956 16.6147C106.973 16.6002 106.992 16.5893 107.013 16.5826C107.034 16.5759 107.056 16.5736 107.078 16.576H107.92C107.942 16.5736 107.964 16.5759 107.985 16.5826C108.006 16.5893 108.025 16.6002 108.041 16.6147C108.058 16.6292 108.071 16.647 108.08 16.6668C108.089 16.6866 108.093 16.7081 108.093 16.7298C108.093 16.7515 108.089 16.773 108.08 16.7928C108.071 16.8126 108.058 16.8304 108.041 16.8449C108.025 16.8594 108.006 16.8703 107.985 16.877C107.964 16.8837 107.942 16.8859 107.92 16.8836Z" fill="white" stroke="white" stroke-width="0.374626" stroke-miterlimit="10"/>
<path d="M138.647 1.61963H135.216" stroke="white" stroke-width="0.374626" stroke-miterlimit="10"/>
<path d="M138.647 1.77304H135.215C135.177 1.76897 135.141 1.75101 135.115 1.72261C135.089 1.69421 135.075 1.65738 135.075 1.6192C135.075 1.58101 135.089 1.54418 135.115 1.51578C135.141 1.48738 135.177 1.46942 135.215 1.46536H138.647C138.668 1.46305 138.691 1.4653 138.712 1.47198C138.732 1.47866 138.752 1.48961 138.768 1.50412C138.784 1.51863 138.797 1.53637 138.806 1.5562C138.815 1.57602 138.82 1.59749 138.82 1.6192C138.82 1.6409 138.815 1.66237 138.806 1.68219C138.797 1.70202 138.784 1.71977 138.768 1.73428C138.752 1.74878 138.732 1.75973 138.712 1.76641C138.691 1.77309 138.668 1.77535 138.647 1.77304Z" fill="white" stroke="white" stroke-width="0.374626" stroke-miterlimit="10"/>
<path d="M130.911 4.72791H129.895" stroke="white" stroke-width="0.374626" stroke-miterlimit="10"/>
<path d="M130.912 4.88148H129.895C129.854 4.88148 129.815 4.86537 129.786 4.83668C129.757 4.808 129.74 4.76909 129.74 4.72852C129.74 4.68795 129.757 4.64905 129.786 4.62036C129.815 4.59168 129.854 4.57556 129.895 4.57556H130.912C130.953 4.57556 130.992 4.59168 131.021 4.62036C131.051 4.64905 131.067 4.68795 131.067 4.72852C131.067 4.76909 131.051 4.808 131.021 4.83668C130.992 4.86537 130.953 4.88148 130.912 4.88148Z" fill="white" stroke="white" stroke-width="0.374626" stroke-miterlimit="10"/>
<path d="M120.163 16.8836H109.098C109.076 16.8859 109.054 16.8837 109.033 16.877C109.012 16.8703 108.993 16.8594 108.976 16.8449C108.96 16.8304 108.947 16.8126 108.938 16.7928C108.929 16.773 108.924 16.7515 108.924 16.7298C108.924 16.7081 108.929 16.6866 108.938 16.6668C108.947 16.647 108.96 16.6292 108.976 16.6147C108.993 16.6002 109.012 16.5893 109.033 16.5826C109.054 16.5759 109.076 16.5736 109.098 16.576H120.163C120.185 16.5736 120.207 16.5759 120.228 16.5826C120.249 16.5893 120.268 16.6002 120.284 16.6147C120.301 16.6292 120.314 16.647 120.323 16.6668C120.332 16.6866 120.336 16.7081 120.336 16.7298C120.336 16.7515 120.332 16.773 120.323 16.7928C120.314 16.8126 120.301 16.8304 120.284 16.8449C120.268 16.8594 120.249 16.8703 120.228 16.877C120.207 16.8837 120.185 16.8859 120.163 16.8836Z" fill="white" stroke="white" stroke-width="0.374626" stroke-miterlimit="10"/>
<path d="M109.097 13.9004C109.075 13.9007 109.054 13.8965 109.034 13.888C109.014 13.8796 108.996 13.867 108.981 13.8511C108.954 13.8208 108.939 13.7808 108.941 13.7399C108.943 13.6991 108.961 13.6607 108.992 13.6331L114.957 8.30761C115.294 7.9939 115.59 7.63947 115.837 7.25271C116.053 6.90566 116.166 6.50514 116.161 6.09759C116.172 5.87582 116.135 5.65429 116.054 5.44741C115.972 5.24052 115.847 5.0529 115.687 4.89676C115.314 4.58196 114.834 4.4193 114.344 4.44183C113.853 4.46437 113.39 4.67041 113.048 5.01807C112.67 5.45971 112.446 6.00937 112.407 6.58636C112.403 6.62693 112.383 6.66417 112.351 6.68988C112.319 6.7156 112.278 6.72769 112.236 6.7235C112.195 6.7193 112.158 6.69916 112.132 6.66751C112.106 6.63585 112.093 6.59528 112.098 6.55471C112.14 5.91421 112.39 5.30412 112.81 4.81412C113.208 4.40406 113.751 4.16107 114.326 4.13554C114.901 4.11 115.464 4.30389 115.898 4.67698C116.089 4.86145 116.239 5.08313 116.339 5.32797C116.439 5.57282 116.486 5.83549 116.478 6.09935C116.48 6.56319 116.349 7.01817 116.102 7.4127C115.84 7.82203 115.527 8.19712 115.169 8.52914L109.2 13.8617C109.172 13.8865 109.135 13.9003 109.097 13.9004Z" fill="white" stroke="white" stroke-width="0.374626" stroke-miterlimit="10"/>
<path d="M120.163 13.7684H113.916C113.885 13.7679 113.854 13.7582 113.829 13.7403C113.803 13.7225 113.783 13.6975 113.772 13.6685C113.761 13.6395 113.759 13.6079 113.766 13.5777C113.774 13.5476 113.79 13.5203 113.813 13.4994L117.358 10.3839C117.697 10.078 118.033 9.75975 118.357 9.43976C118.671 9.13 118.954 8.7915 119.203 8.42881C119.448 8.06682 119.642 7.67344 119.778 7.25963C119.922 6.80454 119.993 6.32984 119.987 5.85309C120.003 5.16772 119.849 4.48882 119.54 3.87515C119.252 3.32347 118.843 2.84275 118.341 2.46861C117.824 2.08979 117.24 1.809 116.619 1.64051C115.965 1.45852 115.289 1.36681 114.609 1.368C113.902 1.36423 113.2 1.47409 112.529 1.69326C111.898 1.89943 111.31 2.21825 110.795 2.63388C110.288 3.04885 109.865 3.55471 109.548 4.12481C109.209 4.74177 108.998 5.41975 108.929 6.11858C108.924 6.15891 108.904 6.19583 108.872 6.22122C108.839 6.24661 108.799 6.25838 108.758 6.25395C108.717 6.24952 108.679 6.22925 108.654 6.1976C108.628 6.16595 108.616 6.1255 108.621 6.08517C108.689 5.37177 108.899 4.67868 109.239 4.04568C109.579 3.41268 110.042 2.85224 110.602 2.39653C111.147 1.95761 111.768 1.62092 112.435 1.40316C113.136 1.17414 113.87 1.05895 114.609 1.06207C115.318 1.06093 116.023 1.15618 116.705 1.34514C117.362 1.5249 117.981 1.82292 118.528 2.22422C119.065 2.62197 119.505 3.13318 119.816 3.72043C120.148 4.37826 120.314 5.10586 120.298 5.84078C120.304 6.3527 120.228 6.86235 120.074 7.35105C119.928 7.79148 119.722 8.20982 119.46 8.59408C119.199 8.97364 118.9 9.32697 118.569 9.64898C118.259 9.97952 117.903 10.3013 117.567 10.6125L114.326 13.4607H120.163C120.185 13.4584 120.207 13.4606 120.228 13.4673C120.249 13.474 120.268 13.485 120.284 13.4995C120.301 13.514 120.314 13.5317 120.323 13.5515C120.332 13.5714 120.336 13.5928 120.336 13.6145C120.336 13.6362 120.332 13.6577 120.323 13.6775C120.314 13.6974 120.301 13.7151 120.284 13.7296C120.268 13.7441 120.249 13.7551 120.228 13.7618C120.207 13.7684 120.185 13.7707 120.163 13.7684Z" fill="white" stroke="white" stroke-width="0.374626" stroke-miterlimit="10"/>
<path d="M125.875 17.2891C125.191 17.2914 124.511 17.1991 123.854 17.0148C123.234 16.8431 122.645 16.5818 122.103 16.2394C121.584 15.9054 121.127 15.4855 120.752 14.9982C120.441 14.5934 120.195 14.144 120.023 13.6655V13.6461L120.007 13.6075C119.995 13.569 119.998 13.5271 120.015 13.4907C120.033 13.4544 120.065 13.4262 120.103 13.4123C120.142 13.3988 120.185 13.401 120.222 13.4185C120.259 13.436 120.287 13.4673 120.301 13.5055C120.304 13.5133 120.307 13.5209 120.31 13.5283L120.324 13.5617C120.485 14.0108 120.716 14.4324 121.008 14.8118C121.362 15.272 121.795 15.6677 122.287 15.981C122.797 16.3092 123.354 16.5616 123.939 16.73C125.274 17.0973 126.687 17.0753 128.01 16.6667C128.029 16.6606 128.05 16.6583 128.07 16.66C128.09 16.6616 128.11 16.6673 128.128 16.6765C128.146 16.6857 128.162 16.6984 128.175 16.7137C128.189 16.7291 128.198 16.7469 128.205 16.766C128.211 16.7852 128.213 16.8054 128.211 16.8254C128.21 16.8455 128.204 16.865 128.195 16.8828C128.185 16.9007 128.173 16.9166 128.157 16.9296C128.141 16.9426 128.123 16.9524 128.104 16.9585C127.382 17.1809 126.631 17.2924 125.875 17.2891Z" fill="white" stroke="white" stroke-width="0.374626" stroke-miterlimit="10"/>
<path d="M125.831 14.2591C125.229 14.2712 124.642 14.0788 124.167 13.7141C123.712 13.3644 123.38 12.8821 123.218 12.3357C123.207 12.2967 123.211 12.2548 123.23 12.219C123.25 12.1832 123.283 12.1566 123.323 12.1449C123.362 12.1332 123.404 12.1375 123.441 12.1568C123.477 12.1761 123.504 12.2088 123.516 12.2478C123.658 12.7357 123.954 13.1665 124.36 13.4785C124.793 13.7948 125.319 13.9616 125.858 13.9534C126.397 13.9451 126.918 13.7622 127.341 13.4328C127.761 13.0899 127.966 12.5906 127.966 11.9067C127.978 11.5468 127.889 11.1906 127.707 10.8781C127.563 10.6007 127.336 10.3733 127.058 10.2259C125.674 9.65094 124.743 10.4263 124.728 10.4333C124.7 10.458 124.663 10.4718 124.625 10.472L121.242 10.4193C121.221 10.4191 121.2 10.4148 121.181 10.4066C121.162 10.3985 121.144 10.3866 121.13 10.3718C121.115 10.3567 121.105 10.339 121.098 10.3196C121.09 10.3003 121.087 10.2798 121.089 10.2593L121.464 1.61082C121.466 1.57132 121.483 1.53401 121.512 1.50654C121.541 1.47908 121.579 1.46354 121.619 1.46313H133.929C133.968 1.4672 134.003 1.48516 134.029 1.51356C134.055 1.54196 134.069 1.57879 134.069 1.61697C134.069 1.65516 134.055 1.69199 134.029 1.72039C134.003 1.74879 133.968 1.76675 133.929 1.77081H121.765L121.409 10.1098L124.572 10.1591C124.8 9.98323 125.786 9.35908 127.175 9.93752C127.515 10.1084 127.793 10.3793 127.971 10.7129C128.184 11.0736 128.289 11.486 128.276 11.9032C128.276 12.675 128.028 13.2675 127.538 13.6613C127.06 14.0556 126.454 14.2677 125.831 14.2591Z" fill="white" stroke="white" stroke-width="0.374626" stroke-miterlimit="10"/>
<path d="M131.774 11.8898C131.733 11.8893 131.693 11.8728 131.664 11.8439C131.635 11.8149 131.619 11.7758 131.619 11.7351C131.634 11.0378 131.492 10.3459 131.202 9.70965C130.936 9.14897 130.547 8.65315 130.064 8.2574C129.562 7.85346 128.982 7.55439 128.359 7.37831C127.671 7.17955 126.958 7.08064 126.241 7.0847C126.015 7.0847 125.762 7.09525 125.486 7.11635C125.236 7.13443 124.988 7.17265 124.744 7.23063C124.72 7.2361 124.696 7.23609 124.672 7.23057C124.648 7.22506 124.626 7.2142 124.608 7.19886C124.589 7.18352 124.574 7.16411 124.564 7.14216C124.555 7.12021 124.55 7.09633 124.551 7.07239L124.681 4.68304C124.684 4.64385 124.701 4.60697 124.73 4.57988C124.758 4.55278 124.797 4.53749 124.836 4.53711H128.932C128.97 4.54117 129.006 4.55913 129.032 4.58753C129.058 4.61593 129.072 4.65277 129.072 4.69095C129.072 4.72913 129.058 4.76597 129.032 4.79437C129.006 4.82277 128.97 4.84072 128.932 4.84479H124.984L124.872 6.88427C125.067 6.84738 125.264 6.82155 125.461 6.80691C125.746 6.78581 126.008 6.77526 126.241 6.77526C126.988 6.77114 127.731 6.87358 128.448 7.07943C129.111 7.26854 129.728 7.58721 130.264 8.01653C130.781 8.44025 131.197 8.97158 131.482 9.57251C131.793 10.2495 131.946 10.9866 131.931 11.7298C131.931 11.7505 131.927 11.7711 131.92 11.7903C131.912 11.8096 131.901 11.8272 131.886 11.8421C131.872 11.857 131.854 11.8689 131.835 11.877C131.816 11.8852 131.795 11.8896 131.774 11.8898Z" fill="white" stroke="white" stroke-width="0.374626" stroke-miterlimit="10"/>
<path d="M129.262 14.8163C129.264 14.8819 129.252 14.9472 129.226 15.0078C129.201 15.0684 129.163 15.123 129.114 15.1679C129.019 15.2582 128.891 15.3075 128.758 15.3051C128.691 15.3052 128.624 15.2927 128.561 15.2682C128.501 15.2446 128.446 15.2107 128.399 15.1679C128.352 15.125 128.315 15.0737 128.288 15.0167C128.262 14.957 128.249 14.8927 128.249 14.8277C128.249 14.7628 128.262 14.6985 128.288 14.6387C128.314 14.5799 128.352 14.5268 128.399 14.4823C128.446 14.438 128.501 14.4023 128.561 14.3768C128.652 14.338 128.753 14.3267 128.852 14.3442C128.95 14.3617 129.04 14.4073 129.113 14.4752C129.16 14.5186 129.198 14.5713 129.224 14.6301C129.25 14.6888 129.263 14.7523 129.262 14.8163Z" fill="white"/>
<path d="M130.835 15.6204C130.786 15.7424 130.726 15.86 130.657 15.9721C130.598 16.0686 130.524 16.1553 130.438 16.2288C130.349 16.3008 130.247 16.3551 130.137 16.3887C130.005 16.4277 129.867 16.4461 129.729 16.4432C129.649 16.4428 129.57 16.4381 129.49 16.4292C129.419 16.4204 129.348 16.4069 129.278 16.3887L129.367 15.7066C129.453 15.7335 129.543 15.7483 129.633 15.7505C129.682 15.7553 129.732 15.7501 129.78 15.7353C129.827 15.7205 129.871 15.6964 129.909 15.6644C129.974 15.5934 130.023 15.5103 130.055 15.42L130.135 15.2178L129.093 12.795H130.012L130.569 14.3774H130.584L131.079 12.795H131.951L130.835 15.6204Z" fill="white"/>
<path d="M132.175 15.2496V12.7882H132.996V15.2496H132.175Z" fill="white"/>
<path d="M133.558 15.25V11.5121H134.395V15.25H133.558Z" fill="white"/>
<path d="M110.082 15.6451H104.917" stroke="white" stroke-width="0.374626" stroke-miterlimit="10"/>
<path d="M110.082 15.7987H104.918C104.716 15.7987 104.562 15.7302 104.562 15.6458C104.562 15.5614 104.724 15.4928 104.918 15.4928H110.082C110.281 15.4928 110.438 15.5614 110.438 15.6458C110.438 15.7302 110.281 15.7987 110.082 15.7987Z" fill="white" stroke="white" stroke-width="0.374626" stroke-miterlimit="10"/>
<path d="M112.028 14.7072H106.876" stroke="white" stroke-width="0.374626" stroke-miterlimit="10"/>
<path d="M112.026 14.86H106.876C106.853 14.8649 106.829 14.8646 106.806 14.8592C106.783 14.8538 106.762 14.8434 106.743 14.8288C106.725 14.8141 106.71 14.7956 106.7 14.7745C106.69 14.7534 106.685 14.7304 106.685 14.707C106.685 14.6837 106.69 14.6606 106.7 14.6395C106.71 14.6185 106.725 14.5999 106.743 14.5853C106.762 14.5706 106.783 14.5602 106.806 14.5548C106.829 14.5494 106.853 14.5491 106.876 14.5541H112.026C112.049 14.5491 112.073 14.5494 112.096 14.5548C112.119 14.5602 112.141 14.5706 112.159 14.5853C112.178 14.5999 112.192 14.6185 112.203 14.6395C112.213 14.6606 112.218 14.6837 112.218 14.707C112.218 14.7304 112.213 14.7534 112.203 14.7745C112.192 14.7956 112.178 14.8141 112.159 14.8288C112.141 14.8434 112.119 14.8538 112.096 14.8592C112.073 14.8646 112.049 14.8649 112.026 14.86Z" fill="white" stroke="white" stroke-width="0.374626" stroke-miterlimit="10"/>
<path d="M127.797 2.66511H132.231C132.508 2.66198 132.781 2.73348 133.021 2.87193C133.26 3.01039 133.457 3.21057 133.589 3.45102C134.681 5.46236 136.855 5.78235 141.068 2.65808" stroke="white" stroke-width="0.6" stroke-miterlimit="10" stroke-linecap="round"/>
<path d="M126.094 3.60534H131.154C131.154 3.60534 132.027 3.47699 132.579 4.13279C133.254 4.93451 134.1 5.13495 134.956 4.13279C135.813 3.13063 138.094 2.55043 139.378 4.98374" stroke="white" stroke-width="0.6" stroke-miterlimit="10" stroke-linecap="round"/>
</g>
<defs>
<clipPath id="clip0_4900_2934">
<rect width="141.534" height="20.36" fill="white" transform="translate(0.73291 0.906738)"/>
</clipPath>
</defs>
</svg>
