<svg width="120" height="120" viewBox="0 0 120 120" fill="none" xmlns="http://www.w3.org/2000/svg">
<g id="Logo06">
<g id="Vector">
<path d="M37.1937 59.9761C37.1937 66.0379 32.2268 70.9523 26.0978 70.9523C19.9689 70.9523 15 66.0379 15 59.9761C15 53.9144 19.9689 49 26.0978 49C32.2268 49 37.1937 53.9144 37.1937 59.9761Z" fill="#EE3023"/>
<path d="M26.1855 66.0964C23.1373 66.1067 19.9648 63.5334 19.9505 59.3995C19.9403 56.667 21.4328 54.0354 23.3371 52.4746C25.1966 50.9541 27.7433 49.9761 30.0513 49.968C30.349 49.968 30.661 49.9921 30.8506 50.0567C28.832 50.4701 27.2254 52.3293 27.2315 54.4367C27.2315 54.5072 27.2376 54.5818 27.2457 54.6161C30.6242 55.4308 32.1575 57.4474 32.1676 60.2363C32.1758 63.0272 29.9494 66.0843 26.1855 66.0964Z" fill="white"/>
<path d="M44.3605 64.5215L40.9677 56.5137H43.184L45.3004 61.8314L47.3516 56.5137H49.468L46.1751 64.5215H44.3605Z" fill="#EE3023"/>
<path d="M55.3727 60.4763C55.3727 60.1435 55.3339 59.8269 55.2544 59.5265C55.1769 59.226 55.0587 58.9679 54.9017 58.7521C54.7447 58.5343 54.555 58.3629 54.3308 58.2359C54.1065 58.1068 53.8435 58.0423 53.5417 58.0423C53.2399 58.0423 52.9749 58.1068 52.7526 58.2359C52.5284 58.3629 52.3367 58.5343 52.1817 58.7521C52.0247 58.9679 51.9065 59.226 51.829 59.5265C51.7495 59.8269 51.7107 60.1435 51.7107 60.4763C51.7107 60.8211 51.7495 61.1417 51.829 61.4361C51.9065 61.7306 52.0207 61.9887 52.1715 62.2105C52.3224 62.4323 52.5141 62.6078 52.7445 62.7368C52.9728 62.8638 53.2399 62.9284 53.5417 62.9284C53.8435 62.9284 54.1065 62.8639 54.3308 62.7368C54.555 62.6078 54.7447 62.4323 54.9017 62.2105C55.0587 61.9887 55.1769 61.7306 55.2544 61.4361C55.3339 61.1417 55.3727 60.8211 55.3727 60.4763ZM57.4218 60.4851C57.4218 61.0073 57.3402 61.5195 57.1791 62.0237C57.016 62.5278 56.7754 62.9775 56.4553 63.3768C56.1373 63.7761 55.7336 64.0967 55.2462 64.3407C54.7589 64.5847 54.1901 64.7057 53.5417 64.7057C52.8913 64.7057 52.3224 64.5847 51.8372 64.3407C51.3499 64.0967 50.9462 63.7761 50.6261 63.3768C50.308 62.9775 50.0674 62.5278 49.9043 62.0237C49.7432 61.5196 49.6616 61.0073 49.6616 60.4851C49.6616 59.9648 49.7432 59.4566 49.9043 58.9565C50.0674 58.4584 50.308 58.0128 50.6261 57.6195C50.9462 57.2263 51.3499 56.9117 51.8372 56.6738C52.3224 56.4358 52.8913 56.3148 53.5417 56.3148C54.1901 56.3148 54.7569 56.4358 55.2381 56.6738C55.7193 56.9117 56.123 57.2263 56.4472 57.6195C56.7734 58.0128 57.016 58.4584 57.1791 58.9565C57.3402 59.4566 57.4218 59.9648 57.4218 60.4851Z" fill="#EE3023"/>
<path d="M63.6792 58.2761C63.2776 58.1209 62.9044 58.0422 62.5578 58.0422C62.203 58.0422 61.8952 58.1109 61.6403 58.2439C61.3834 58.3769 61.1714 58.5564 61.0042 58.7843C60.837 59.0122 60.7126 59.2683 60.629 59.5526C60.5454 59.8349 60.5026 60.1274 60.5026 60.4278C60.5026 60.7605 60.5393 61.0791 60.6127 61.3857C60.6841 61.6902 60.7962 61.9584 60.9471 62.1862C61.0959 62.4141 61.2855 62.5976 61.5139 62.7368C61.7423 62.8739 62.0134 62.9445 62.3254 62.9445C62.5823 62.9445 62.8433 62.8739 63.1104 62.7368C63.3775 62.5976 63.5671 62.4323 63.6792 62.2447L63.6792 58.2761ZM63.8464 64.5214L63.7628 63.9084C63.5732 64.1181 63.3224 64.3036 63.0084 64.4629C62.6965 64.6243 62.3274 64.7049 61.9033 64.7049C61.3467 64.7049 60.8533 64.588 60.4312 64.3561C60.0051 64.1242 59.6483 63.8136 59.3587 63.4264C59.0692 63.0393 58.847 62.5896 58.6961 62.0794C58.5473 61.5712 58.4718 61.0388 58.4718 60.4843C58.4718 59.964 58.5493 59.4538 58.7043 58.9557C58.8613 58.4576 59.0978 58.012 59.4158 57.6187C59.736 57.2255 60.1335 56.9109 60.6147 56.673C61.0939 56.435 61.6587 56.314 62.305 56.314C62.7291 56.314 63.1879 56.3926 63.6792 56.5459V53.4404H65.761V64.5214H63.8464Z" fill="#EE3023"/>
<path d="M71.6249 60.7666C71.4006 60.7783 71.1682 60.7989 70.9317 60.8251C70.6951 60.8534 70.4709 60.8897 70.2568 60.934C69.8041 61.0227 69.4922 61.174 69.3168 61.3898C69.1435 61.6076 69.0559 61.8415 69.0559 62.0976C69.0559 62.3617 69.1537 62.5755 69.3515 62.7368C69.5493 62.8961 69.8266 62.9768 70.1875 62.9768C70.4586 62.9768 70.7216 62.9223 70.9745 62.8114C71.2273 62.7005 71.4455 62.5614 71.6249 62.396V60.7666ZM71.7921 64.5154L71.7105 63.9165C71.4842 64.1625 71.1988 64.3561 70.8501 64.4953C70.5015 64.6344 70.1202 64.705 69.7042 64.705C69.3556 64.705 69.0192 64.6464 68.7011 64.5295C68.3789 64.4147 68.0955 64.2472 67.8488 64.0314C67.6021 63.8157 67.4023 63.5515 67.2514 63.2349C67.0985 62.9183 67.0231 62.5614 67.0231 62.1621C67.0231 61.7648 67.1005 61.4119 67.2596 61.1074C67.4166 60.8029 67.6286 60.5468 67.8998 60.3351C68.1689 60.1254 68.4788 59.954 68.8275 59.8209C69.1741 59.6878 69.5411 59.5869 69.9224 59.5204C70.1915 59.466 70.4872 59.4256 70.8073 59.3973C71.1274 59.3691 71.3945 59.3449 71.6086 59.3227V59.2058C71.6086 58.7621 71.4944 58.4475 71.262 58.258C71.0316 58.0704 70.7135 57.9757 70.3098 57.9757C70.0733 57.9757 69.847 58.0039 69.6329 58.0604C69.4188 58.1148 69.2292 58.1835 69.0599 58.2661C68.8907 58.3508 68.7419 58.4334 68.6114 58.5161C68.4829 58.5988 68.3789 58.6734 68.2994 58.74L67.6103 57.2961C67.7 57.2175 67.8366 57.1247 68.0221 57.0138C68.2077 56.9029 68.4299 56.794 68.695 56.6891C68.958 56.5842 69.2536 56.4955 69.5839 56.4229C69.9142 56.3503 70.271 56.3141 70.6503 56.3141C71.0989 56.3141 71.5087 56.3726 71.8777 56.4895C72.2468 56.6064 72.5669 56.788 72.836 57.038C73.1031 57.286 73.3131 57.6006 73.466 57.9838C73.6169 58.3649 73.6924 58.8267 73.6924 59.3691V64.5154H71.7921Z" fill="#EE3023"/>
<path d="M80.1272 55.2675C80.0599 55.2353 79.9294 55.1868 79.7337 55.1263C79.5359 55.0658 79.277 55.0355 78.9507 55.0355C78.6612 55.0355 78.4165 55.1223 78.2208 55.2937C78.0251 55.4651 77.9272 55.7454 77.9272 56.1325V56.5137H79.6746V58.1753H77.9435V64.5214H75.8597V58.1753H74.7852V56.5137H75.8597V56.0821C75.8597 55.5618 75.927 55.1223 76.0616 54.7613C76.1962 54.4023 76.3837 54.1079 76.6243 53.8821C76.8649 53.6542 77.1483 53.4868 77.4725 53.382C77.7988 53.277 78.1515 53.2246 78.5328 53.2246C79.0364 53.2246 79.4523 53.271 79.7826 53.3659C80.1129 53.4607 80.3066 53.5232 80.3617 53.5574L80.1272 55.2675Z" fill="#EE3023"/>
<path d="M85.8056 60.4763C85.8056 60.1435 85.7648 59.8269 85.6873 59.5265C85.6099 59.226 85.4916 58.9679 85.3346 58.7521C85.1776 58.5343 84.988 58.3629 84.7637 58.2359C84.5394 58.1068 84.2764 58.0423 83.9746 58.0423C83.6729 58.0423 83.4078 58.1068 83.1856 58.2359C82.9613 58.3629 82.7696 58.5343 82.6126 58.7521C82.4577 58.9679 82.3394 59.226 82.2599 59.5265C82.1824 59.8269 82.1437 60.1435 82.1437 60.4763C82.1437 60.8211 82.1824 61.1417 82.2599 61.4361C82.3394 61.7306 82.4536 61.9887 82.6045 62.2105C82.7554 62.4323 82.947 62.6078 83.1754 62.7368C83.4058 62.8638 83.6729 62.9284 83.9746 62.9284C84.2764 62.9284 84.5394 62.8639 84.7637 62.7368C84.988 62.6078 85.1776 62.4323 85.3346 62.2105C85.4916 61.9887 85.6099 61.7306 85.6873 61.4361C85.7648 61.1417 85.8056 60.8211 85.8056 60.4763ZM87.8547 60.4851C87.8547 61.0073 87.7732 61.5195 87.61 62.0237C87.449 62.5278 87.2084 62.9775 86.8883 63.3768C86.5702 63.7761 86.1665 64.0967 85.6792 64.3407C85.1919 64.5847 84.623 64.7057 83.9746 64.7057C83.3242 64.7057 82.7554 64.5847 82.2701 64.3407C81.7828 64.0967 81.3791 63.7761 81.059 63.3768C80.7409 62.9775 80.5003 62.5278 80.3372 62.0237C80.1741 61.5196 80.0946 61.0073 80.0946 60.4851C80.0946 59.9648 80.1741 59.4566 80.3372 58.9565C80.5003 58.4584 80.7409 58.0128 81.059 57.6195C81.3791 57.2263 81.7828 56.9117 82.2701 56.6738C82.7554 56.4358 83.3242 56.3148 83.9746 56.3148C84.623 56.3148 85.1898 56.4358 85.671 56.6738C86.1522 56.9117 86.5559 57.2263 86.8801 57.6195C87.2063 58.0128 87.449 58.4584 87.61 58.9565C87.7732 59.4566 87.8547 59.9648 87.8547 60.4851Z" fill="#EE3023"/>
<path d="M94.3201 64.5215V59.954C94.3201 59.345 94.1917 58.8731 93.9348 58.5404C93.6758 58.2096 93.319 58.0423 92.8582 58.0423C92.534 58.0423 92.2343 58.1249 91.9611 58.2923C91.6858 58.4577 91.4473 58.6412 91.2454 58.8408V64.5215H89.1637V56.5137H91.0619L91.1618 57.1449C91.4881 56.8807 91.853 56.675 92.2628 56.5319C92.6706 56.3867 93.0825 56.3161 93.4964 56.3161C93.9225 56.3161 94.314 56.3786 94.6728 56.5056C95.0317 56.6347 95.3396 56.8363 95.5965 57.1126C95.8554 57.3889 96.0532 57.7499 96.1939 58.1915C96.3325 58.6351 96.4039 59.1675 96.4039 59.7866V64.5215H94.3201Z" fill="#EE3023"/>
<path d="M102.884 59.5547C102.861 59.2784 102.802 59.0364 102.706 58.8327C102.61 58.627 102.492 58.4617 102.351 58.3346C102.211 58.2055 102.06 58.1128 101.897 58.0503C101.732 57.9898 101.566 57.9596 101.397 57.9596C101.036 57.9596 100.694 58.0926 100.368 58.3588C100.041 58.625 99.8497 59.0223 99.7926 59.5547H102.884ZM99.7437 61.0328C99.7885 61.7083 100.001 62.1963 100.384 62.4948C100.765 62.7932 101.261 62.9445 101.866 62.9445C102.148 62.9445 102.413 62.9183 102.659 62.8698C102.906 62.8195 103.126 62.7569 103.318 62.6783C103.51 62.6016 103.673 62.523 103.807 62.4464C103.942 62.3678 104.042 62.2951 104.111 62.2286L104.666 63.9084C104.586 63.9628 104.46 64.0374 104.286 64.1322C104.113 64.227 103.897 64.3137 103.64 64.3984C103.383 64.4811 103.079 64.5517 102.733 64.6142C102.386 64.6746 102.005 64.7049 101.591 64.7049C101.063 64.7049 100.563 64.6222 100.086 64.4569C99.6111 64.2895 99.1932 64.0314 98.8363 63.6825C98.4775 63.3336 98.192 62.9001 97.98 62.3798C97.7659 61.8595 97.6599 61.2384 97.6599 60.5185C97.6599 59.843 97.7577 59.2441 97.9535 58.7238C98.1492 58.2035 98.4184 57.7659 98.7589 57.411C99.1014 57.0581 99.499 56.7859 99.9516 56.5963C100.406 56.4088 100.89 56.314 101.405 56.314C101.921 56.314 102.396 56.3987 102.835 56.564C103.271 56.7294 103.648 56.9875 103.968 57.3364C104.286 57.6853 104.539 58.1369 104.723 58.6915C104.908 59.244 105 59.9035 105 60.6678V61.0327L99.7437 61.0328Z" fill="#EE3023"/>
</g>
<path d="M0.370226 4C0.370226 1.99533 1.99533 0.370226 4 0.370226H116C118.005 0.370226 119.63 1.99533 119.63 4V116C119.63 118.005 118.005 119.63 116 119.63H4C1.99533 119.63 0.370226 118.005 0.370226 116V4Z" stroke="#E5E5E5" stroke-width="0.740451"/>
</g>
</svg>
