<svg width="120" height="120" viewBox="0 0 120 120" fill="none" xmlns="http://www.w3.org/2000/svg">
<g id="Logo02">
<path id="Vector" fill-rule="evenodd" clip-rule="evenodd" d="M31.1057 52.4576C31.0904 54.0185 30.815 55.6241 30.0257 56.9843C29.4812 57.9203 28.6055 58.704 27.5399 58.9402C26.5247 59.1537 25.4105 58.995 24.5447 58.3956C23.6294 57.7771 23.0309 56.7809 22.6772 55.7427C22.157 54.2493 22.0931 52.6373 22.2047 51.0718C22.346 49.6414 22.7114 48.1744 23.5871 47.014C23.8932 46.6008 24.2787 46.2548 24.7203 45.9967C25.1619 45.7386 25.6505 45.5739 26.1566 45.5124C27.0296 45.3993 27.953 45.5616 28.6946 46.0579C29.5028 46.5898 30.0626 47.4336 30.4226 48.3268C30.95 49.6313 31.1273 51.0545 31.1057 52.4576ZM38.0357 49.4653C38.3732 51.2716 38.3381 53.1418 38.0042 54.9481C37.6568 56.7763 36.9098 58.5461 35.7344 59.9875C34.4357 61.605 32.6384 62.7745 30.6872 63.4141C28.9052 64.0107 26.9972 64.174 25.1342 64.0007C22.9085 63.7908 20.7107 62.9908 18.9611 61.5649C17.2241 60.1627 15.9938 58.1648 15.4304 55.9945C15.1824 55.0548 15.0387 54.09 15.002 53.1181C15.0002 46.7458 15.002 40.3735 15.002 34.0021H22.166C22.166 36.4261 22.1642 38.85 22.166 41.2739C24.4668 40.4859 26.9254 40.2931 29.3183 40.7129C31.4729 41.0997 33.5465 42.0977 35.0945 43.6823C36.6479 45.2314 37.6415 47.3059 38.0357 49.4653ZM61.6706 34.0012C63.9773 33.9985 66.2831 34.0012 68.5889 34.0012C68.5961 39.4047 68.5817 44.8099 68.5979 50.2152C68.7239 50.1331 68.7977 49.9962 68.8787 49.8703C70.8002 46.9145 72.7352 43.9661 74.6513 41.0048C77.6519 40.9938 80.6525 41.0002 83.6531 41.0021C80.738 44.5344 77.8139 48.0585 74.897 51.5872C74.834 51.6484 74.7935 51.7405 74.8772 51.8035C78.1199 55.7098 81.386 59.5971 84.6242 63.5062C81.6893 63.5117 78.7535 63.5071 75.8168 63.5089C75.7789 63.5158 75.7398 63.511 75.7047 63.495C75.6695 63.4791 75.6399 63.4528 75.6197 63.4195C73.2779 59.9711 70.9487 56.5145 68.5952 53.0743C68.5781 56.5464 68.6042 60.0186 68.5817 63.4898C67.6142 63.5354 66.6341 63.4962 65.6612 63.5089H61.6724C61.6688 53.6727 61.6724 43.8374 61.6706 34.0012ZM60.218 54.5312C55.4372 54.5312 50.6564 54.5248 45.8765 54.5339C45.9647 55.5557 46.4291 56.5409 47.1959 57.216C48.3371 58.2496 49.8869 58.6529 51.3773 58.7769C53.7236 58.8941 56.0719 58.5915 58.3145 57.8829C58.6151 59.4675 58.9283 61.0485 59.2244 62.6331C56.6009 63.6941 53.7497 64.018 50.9444 64.018C49.2542 63.9815 47.5514 63.7562 45.9593 63.1559C44.8118 62.7308 43.7273 62.1159 42.7985 61.3058C41.7831 60.4221 40.9646 59.3296 40.3973 58.1009C39.6053 56.3922 39.2732 54.4883 39.2813 52.6072C39.261 50.7452 39.6195 48.899 40.3343 47.1837C41.1236 45.2934 42.3935 43.5865 44.0693 42.4143C45.6236 41.3086 47.4911 40.6992 49.3775 40.5468C50.9345 40.4109 52.5293 40.5359 54.0224 41.0258C55.2572 41.44 56.4119 42.1233 57.3353 43.0565C58.2092 43.9168 58.8815 44.9741 59.3675 46.1044C60.4799 48.7437 60.6671 51.7186 60.218 54.5312ZM45.845 49.7171L54.026 49.718C54.017 48.5092 53.7029 47.2384 52.8974 46.3152C52.2368 45.5489 51.2207 45.1684 50.2307 45.1675C49.2506 45.1265 48.2462 45.4513 47.5145 46.1254C46.5119 47.0331 45.9773 48.3797 45.845 49.7171ZM104.925 50.5609C105.201 53.4501 104.743 56.5063 103.184 58.9858C101.864 61.1115 99.7433 62.6696 97.3907 63.4232C95.6249 64.0107 93.7376 64.1676 91.8908 64.0034C89.9747 63.8218 88.0811 63.2134 86.4701 62.1341C84.9206 61.1004 83.6801 59.6559 82.8836 57.9577C81.7064 55.4435 81.4859 52.5442 81.9503 49.8238C82.331 47.5896 83.3165 45.4266 84.9158 43.8192C86.3558 42.3267 88.2611 41.3433 90.2582 40.8743C90.9998 40.6928 91.7594 40.5961 92.5199 40.5313C94.3892 40.4063 96.299 40.6016 98.063 41.2648C100.24 42.0612 102.146 43.6103 103.34 45.6264C104.234 47.1189 104.757 48.8267 104.924 50.5618L104.925 50.5609ZM97.7714 53.701C97.9478 51.9841 97.8389 50.207 97.2566 48.574C96.9056 47.6161 96.3521 46.6901 95.5052 46.1054C94.76 45.579 93.8159 45.3974 92.924 45.5078C92.1253 45.5953 91.3758 45.9422 90.7874 46.4967C90.0215 47.2174 89.5589 48.2054 89.2763 49.2108C88.9046 50.5244 88.8479 51.9056 88.9253 53.2613C89.0135 54.3788 89.2421 55.4973 89.7272 56.5099C90.1331 57.3538 90.7514 58.1219 91.5758 58.5744C92.3471 59.0077 93.2678 59.1081 94.1309 58.9703C95.0894 58.797 95.9309 58.184 96.4925 57.3894C97.2611 56.3183 97.6148 55.001 97.7714 53.701ZM35.5319 75.8567C57.7781 72.6837 80.027 69.5273 102.274 66.348C102.29 68.7108 102.283 71.0736 102.277 73.4345C95.93 74.3213 89.5877 75.2381 83.2418 76.1349C60.4961 79.3671 37.7504 82.6121 15.0038 85.837C15.002 83.4806 14.9948 81.1251 15.0065 78.7687C21.8501 77.8144 28.6892 76.8228 35.5319 75.8567Z" fill="#0089CF"/>
<path d="M0.370226 4C0.370226 1.99533 1.99533 0.370226 4 0.370226H116C118.005 0.370226 119.63 1.99533 119.63 4V116C119.63 118.005 118.005 119.63 116 119.63H4C1.99533 119.63 0.370226 118.005 0.370226 116V4Z" stroke="#E5E5E5" stroke-width="0.740451"/>
</g>
</svg>
