<svg width="120" height="120" viewBox="0 0 120 120" fill="none" xmlns="http://www.w3.org/2000/svg">
<g id="Logo01">
<g id="Vector">
<path fill-rule="evenodd" clip-rule="evenodd" d="M60.7754 61.4675C60.7754 62.5161 60.4326 63.2066 59.7471 63.5389C59.5118 63.6437 59.2624 63.7129 59.0069 63.7443C58.6303 63.7911 58.2509 63.8113 57.8715 63.805H49.8331V55.2735H57.4964C57.9053 55.265 58.3142 55.2909 58.7189 55.351C58.9937 55.3913 59.2598 55.4778 59.506 55.607C59.8154 55.7649 60.0648 56.0205 60.216 56.3345C60.375 56.7062 60.4493 57.109 60.4337 57.5133C60.4337 58.2723 60.2506 58.7966 59.8844 59.0862C59.7538 59.1892 59.6081 59.271 59.4524 59.3287C59.2276 59.3973 58.9981 59.4491 58.7658 59.4837C59.071 59.5021 59.3738 59.5494 59.6701 59.6251C59.8678 59.6765 60.0534 59.7669 60.216 59.8912C60.5912 60.191 60.7754 60.7164 60.7754 61.4675ZM57.8715 57.9343C57.8883 57.7782 57.8503 57.621 57.7641 57.49C57.6779 57.3589 57.5488 57.2624 57.3992 57.2169C57.3119 57.199 57.2235 57.1866 57.1346 57.1799C57.0476 57.1799 56.8834 57.1799 56.6356 57.1799H52.3652V58.6888H56.7193C56.9061 58.693 57.0929 58.6851 57.2787 58.6652C57.3805 58.6533 57.4793 58.6224 57.5701 58.5743C57.6744 58.5063 57.7579 58.4104 57.8111 58.2974C57.8644 58.1843 57.8853 58.0586 57.8715 57.9343ZM58.1763 61.1475C58.2008 60.9893 58.1684 60.8274 58.0849 60.691C58.0014 60.5546 57.8723 60.4525 57.7208 60.4032C57.6418 60.3776 57.5592 60.3651 57.4763 60.3661C57.3825 60.3661 57.1983 60.3661 56.9169 60.3661H52.3618V61.9289H57.3122C57.3835 61.9337 57.4551 61.9337 57.5265 61.9289C57.5738 61.9225 57.6208 61.9135 57.6672 61.902C57.7109 61.8948 57.7537 61.8823 57.7945 61.8649C57.9278 61.8041 58.0377 61.701 58.1072 61.5715C58.1768 61.4419 58.2022 61.293 58.1796 61.1475H58.1763Z" fill="#231F20"/>
<path fill-rule="evenodd" clip-rule="evenodd" d="M71.9019 63.805L71.0612 62.2826H65.575L64.7745 63.805H61.8472L66.6166 55.2702H70.0798L74.7253 63.805H71.9019ZM68.3248 57.1024L66.5161 60.5076H70.1568L68.3248 57.1024Z" fill="#231F20"/>
<path fill-rule="evenodd" clip-rule="evenodd" d="M83.3934 63.8084L78.3259 57.3854L78.3895 63.8084H75.9077V55.2736H80.0206L85.1619 61.7605L85.0982 55.2736H87.5399V63.8084H83.3934Z" fill="#231F20"/>
<path fill-rule="evenodd" clip-rule="evenodd" d="M100.381 60.9791C100.381 61.316 100.381 61.5888 100.344 61.838C100.324 62.0508 100.281 62.2608 100.217 62.4645C100.162 62.6319 100.085 62.7915 99.9894 62.9394C99.8942 63.067 99.7814 63.1805 99.6544 63.2762C99.4799 63.4026 99.2924 63.5099 99.0951 63.5962C98.8278 63.6899 98.5499 63.7499 98.2678 63.7747C97.9094 63.8084 97.4405 63.8319 96.8544 63.8387C96.2683 63.8454 95.5147 63.8656 94.5634 63.8656C93.9606 63.8656 93.4515 63.8656 93.0361 63.8387C92.6208 63.8117 92.2658 63.7915 91.9677 63.7511C91.7165 63.7171 91.4688 63.6607 91.2275 63.5827C91.0313 63.5107 90.8437 63.4169 90.6682 63.3031C90.4659 63.1738 90.2888 63.0082 90.1457 62.8148C89.9942 62.588 89.881 62.3376 89.8107 62.0738C89.7153 61.7054 89.6548 61.3287 89.6299 60.9488C89.5964 60.5042 89.5796 59.9653 89.5796 59.3355C89.5796 58.7719 89.5964 58.2936 89.6299 57.9007C89.6542 57.5584 89.7148 57.2196 89.8107 56.8903C89.8855 56.6451 90.006 56.4165 90.1658 56.2166C90.3251 56.0323 90.5142 55.8763 90.7251 55.7552C90.9195 55.6442 91.1249 55.5538 91.338 55.4858C91.586 55.4006 91.8418 55.3408 92.1017 55.3072C92.456 55.2584 92.8127 55.228 93.1701 55.2163C93.5921 55.1995 94.1012 55.1927 94.6974 55.1927C95.3673 55.1927 95.93 55.1927 96.3888 55.1927C96.8477 55.1927 97.2463 55.2129 97.5611 55.2298C97.8213 55.2418 98.0807 55.2677 98.3382 55.3072C98.5145 55.3352 98.6881 55.378 98.8573 55.4352C99.3114 55.5612 99.6993 55.8594 99.9391 56.2672C100.19 56.7793 100.305 57.3476 100.274 57.9175V58.2375H97.8056C97.8059 58.054 97.7753 57.8718 97.7152 57.6986C97.6846 57.6263 97.6388 57.5614 97.581 57.5085C97.5232 57.4556 97.4547 57.4159 97.3802 57.3921C97.1532 57.3009 96.9113 57.2529 96.6668 57.2506C96.352 57.2338 95.9266 57.2271 95.3941 57.2271C95.1228 57.2271 94.8615 57.2271 94.617 57.2271C94.3725 57.2271 94.1448 57.2271 93.9472 57.2271C93.7496 57.2271 93.5854 57.2271 93.4481 57.2271C93.3601 57.2197 93.2716 57.2197 93.1835 57.2271C92.9114 57.2574 92.6564 57.3755 92.4567 57.5639C92.2887 57.7909 92.1908 58.0627 92.1754 58.3453C92.1754 58.4396 92.1754 58.6114 92.1519 58.8572C92.1285 59.1031 92.1519 59.3321 92.1519 59.5612C92.1454 59.9551 92.1667 60.3491 92.2156 60.74C92.2449 60.9876 92.3642 61.2155 92.5505 61.3799C92.7815 61.5456 93.0543 61.6425 93.3376 61.6595C93.6725 61.6932 94.1582 61.71 94.751 61.71H95.9869L96.7238 61.7841C96.8649 61.7751 97.005 61.7537 97.1424 61.7201C97.2397 61.6956 97.334 61.6606 97.4238 61.6157C97.5725 61.5482 97.6916 61.4284 97.7587 61.2789C97.8411 61.0645 97.8766 60.8347 97.8625 60.6053H100.368L100.381 60.9791Z" fill="#231F20"/>
<path d="M105 55.2736H102.418V63.8084H105V55.2736Z" fill="#231F20"/>
<path d="M15 59.541C14.9985 57.5111 15.7166 55.5471 17.0253 54.0016C18.334 52.4561 20.1476 51.4302 22.1406 51.1081C24.1337 50.7861 26.1756 51.1889 27.8999 52.2443C29.6242 53.2997 30.918 54.9386 31.5491 56.8668C32.1809 54.9389 33.4751 53.3005 35.1995 52.2453C36.924 51.1902 38.9658 50.7874 40.9588 51.1091C42.9519 51.4309 44.7657 52.4562 46.075 54.0011C47.3844 55.546 48.1035 57.5095 48.1035 59.5394C48.1035 61.5692 47.3844 63.5327 46.075 65.0776C44.7657 66.6225 42.9519 67.6478 40.9588 67.9696C38.9658 68.2913 36.924 67.8885 35.1995 66.8334C33.4751 65.7783 32.1809 64.1398 31.5491 62.212C30.9181 64.1399 29.6246 65.7786 27.9006 66.834C26.1767 67.8894 24.1351 68.2925 22.1423 67.9709C20.1495 67.6492 18.3359 66.624 17.0269 65.079C15.7179 63.5341 14.9993 61.5707 15 59.541Z" fill="#004B93"/>
<path fill-rule="evenodd" clip-rule="evenodd" d="M28.7859 61.161C28.7859 60.2752 28.6084 59.6353 28.2667 59.2513C27.8715 58.7932 27.349 58.6383 26.0763 58.5777C25.3896 58.5507 24.8805 58.5373 24.7365 58.5373H22.3217C21.9859 58.5592 21.6488 58.5423 21.3169 58.4867C21.1553 58.4666 21.0071 58.3862 20.9017 58.2615C20.7962 58.1367 20.7412 57.9767 20.7475 57.8131C20.7475 57.3416 20.9752 57.1597 21.6116 57.1092C22.0068 57.0856 23.1523 57.0452 23.9561 57.0452C25.7011 57.0452 25.9423 57.1496 25.9423 57.8906H28.4308C28.4308 56.4187 28.1495 55.8293 27.2988 55.5093C26.649 55.2668 25.9758 55.2163 23.4939 55.2163C22.4313 55.1854 21.3678 55.2326 20.3121 55.3578C18.7345 55.5598 18.1886 56.2537 18.1886 57.9546C18.1886 59.3018 18.5436 59.9519 19.4345 60.2584C19.8666 60.4099 20.6068 60.4739 21.8393 60.4739H24.1839C24.6083 60.4603 25.0332 60.4693 25.4566 60.5009C25.9791 60.5514 26.2337 60.7939 26.2337 61.2284C26.2337 61.9862 25.8987 62.0603 22.8843 62.0603C22.3437 62.0687 21.8032 62.0394 21.2666 61.9727C20.8848 61.8818 20.7977 61.7302 20.7709 61.0903H18.2254C18.2254 61.2823 18.2254 61.4978 18.2254 61.5888C18.2254 62.8047 18.634 63.4177 19.5886 63.6602C20.2116 63.8286 21.0757 63.8791 22.9982 63.8791C24.1876 63.9031 25.3773 63.8604 26.5619 63.7511C28.1763 63.576 28.7859 62.8754 28.7859 61.161Z" fill="white"/>
<path fill-rule="evenodd" clip-rule="evenodd" d="M41.4598 60.5076L39.6143 57.1024L37.8056 60.5076H41.4598ZM46.0149 63.805H43.188L42.3507 62.2826H36.8779L36.064 63.805H33.1367L37.9095 55.2736H41.3693L46.0149 63.805Z" fill="white"/>
<path fill-rule="evenodd" clip-rule="evenodd" d="M57.8715 57.9343C57.8883 57.7782 57.8503 57.621 57.7641 57.49C57.6779 57.3589 57.5488 57.2624 57.3992 57.2169C57.3119 57.199 57.2235 57.1866 57.1346 57.1799C57.0476 57.1799 56.8834 57.1799 56.6356 57.1799H52.3652V58.6888H56.7193C56.9061 58.693 57.0929 58.6851 57.2787 58.6652C57.3805 58.6533 57.4793 58.6224 57.5701 58.5743C57.6744 58.5063 57.7579 58.4104 57.8111 58.2974C57.8644 58.1843 57.8853 58.0586 57.8715 57.9343ZM58.1763 61.1475C58.2008 60.9893 58.1684 60.8274 58.0849 60.691C58.0014 60.5546 57.8723 60.4525 57.7208 60.4032C57.6418 60.3776 57.5592 60.3651 57.4763 60.3661C57.3825 60.3661 57.1983 60.3661 56.9169 60.3661H52.3618V61.9289H57.3122C57.3835 61.9337 57.4551 61.9337 57.5265 61.9289L57.6672 61.902C57.7109 61.8948 57.7537 61.8823 57.7945 61.8649C57.9278 61.8041 58.0377 61.701 58.1072 61.5715C58.1768 61.4419 58.2022 61.293 58.1796 61.1475H58.1763ZM60.772 61.4675C60.772 62.5161 60.4293 63.2066 59.7438 63.5389C59.5084 63.6437 59.259 63.7129 59.0036 63.7443C58.6281 63.7909 58.2498 63.8112 57.8715 63.805H49.8331V55.2735H57.4964C57.9053 55.265 58.3142 55.2909 58.7189 55.351C58.9937 55.3913 59.2598 55.4778 59.506 55.607C59.8154 55.7649 60.0648 56.0205 60.216 56.3345C60.375 56.7062 60.4493 57.109 60.4337 57.5133C60.4337 58.2723 60.2506 58.7966 59.8844 59.0862C59.7538 59.1892 59.6081 59.271 59.4524 59.3287C59.2276 59.3973 58.9981 59.4491 58.7658 59.4837C59.071 59.5021 59.3738 59.5494 59.6701 59.6251C59.8678 59.6765 60.0534 59.7669 60.216 59.8912C60.5912 60.191 60.7754 60.7164 60.7754 61.4675H60.772Z" fill="#231F20"/>
<path fill-rule="evenodd" clip-rule="evenodd" d="M68.3248 57.1024L66.5161 60.5076H70.1568L68.3248 57.1024ZM71.9019 63.805L71.0612 62.2826H65.575L64.7745 63.805H61.8472L66.6166 55.2702H70.0798L74.7253 63.805H71.9019Z" fill="#231F20"/>
</g>
<path d="M0.370226 4C0.370226 1.99533 1.99533 0.370226 4 0.370226H116C118.005 0.370226 119.63 1.99533 119.63 4V116C119.63 118.005 118.005 119.63 116 119.63H4C1.99533 119.63 0.370226 118.005 0.370226 116V4Z" stroke="#E5E5E5" stroke-width="0.740451"/>
</g>
</svg>
