<svg width="120" height="120" viewBox="0 0 120 120" fill="none" xmlns="http://www.w3.org/2000/svg">
<g id="Logo05">
<g id="Vector">
<path d="M16.7538 56.7447C17.8157 52.8622 22.2385 51.9382 26.3106 51.8241C29.6581 51.7303 33.3905 52.1729 33.3905 52.1729L31.6368 58.5848C31.6368 58.5848 27.9044 58.1422 24.5568 58.236C20.4848 58.3502 16.0619 59.2741 15 63.1566L16.7538 56.7447Z" fill="#0190FF"/>
<path d="M73.102 49.9182C67.7412 49.9183 66.3679 55.1065 65.5993 57.9165L59.8729 78.8491H63.2138L68.2909 60.2883H71.7608L69.4509 68.7341H72.7918L75.5621 58.6056H68.7514C69.1004 57.3289 69.4725 55.9689 69.7759 54.86C70.336 52.812 71.251 51.3248 72.5817 51.3748C74.0524 51.4301 73.3039 52.3958 73.1026 53.1321C72.8239 54.1507 73.5762 55.175 74.8941 55.175C77.7569 55.175 78.4628 49.9182 73.102 49.9182ZM54.1503 53.581L50.0057 68.7341H53.4886L55.0234 63.1228H58.0488C61.3871 63.1228 63.6024 61.2803 64.2015 58.7193C64.7608 56.328 63.3642 53.581 59.6234 53.581C57.799 53.5811 55.9749 53.581 54.1503 53.581ZM57.1456 55.3641H58.4847C59.8867 55.3641 60.9991 56.4865 60.7305 58.4396C60.4815 60.2502 58.5155 61.3354 56.8013 61.3354H55.5122L57.1456 55.3641ZM90.1736 58.2988C87.2451 58.2988 85.1325 60.8182 84.6256 63.336C84.1384 65.7555 85.5259 68.9707 89.3458 68.9707C92.0608 68.9707 93.4263 67.7752 93.4263 67.7752L92.8014 66.2327C92.8014 66.2327 91.66 67.1617 90.0695 67.1617C88.4791 67.1617 87.4814 65.9063 87.7021 63.9057H94.1967C94.661 62.7276 94.9152 58.2988 90.1736 58.2988ZM103.119 58.435C100.941 58.435 99.6568 60.6844 99.6568 60.6844L100.225 58.6057H96.8844L94.1141 68.7341H97.455C97.455 68.7341 98.2595 65.7749 98.669 64.2975C99.301 61.9882 100.59 60.5421 101.21 60.4829C101.926 60.4145 101.858 62.1404 103.254 62.1404C105.373 62.1404 105.83 58.435 103.119 58.435ZM76.8209 58.6057L76.3605 60.2887H80.5953L73.9379 68.7341H83.339L83.7992 67.0512H79.0222L85.6794 58.6057H76.8209ZM90.1611 59.9712C91.9775 59.9712 91.5642 62.3698 91.5642 62.3698L87.9254 62.3613C87.9254 62.3613 88.5289 59.9712 90.1611 59.9712Z" fill="#2B01BE"/>
<path d="M42.1658 68.7577C30.1851 68.0106 16.2623 61.8308 16.7538 56.7447L15.1008 62.7883C14.5994 67.9775 27.5146 74.1384 40.4121 75.1696L42.1658 68.7577Z" fill="#2B01BE"/>
<path d="M46.5198 60.4249C45.4579 64.3074 41.035 65.2314 36.963 65.3456C33.6155 65.4394 29.883 64.9968 29.883 64.9968L31.6368 58.5848C31.6368 58.5848 35.3692 59.0275 38.7168 58.9336C42.7888 58.8195 47.2116 57.8955 48.2735 54.013L46.5198 60.4249Z" fill="#2B01BE"/>
<path d="M21.1077 48.4119C33.0885 49.159 47.0112 55.3389 46.5198 60.4249L48.1728 54.3813C48.6742 49.1921 35.7589 43.0312 22.8614 42L21.1077 48.4119Z" fill="#0190FF"/>
</g>
<path d="M0.370226 4C0.370226 1.99533 1.99533 0.370226 4 0.370226H116C118.005 0.370226 119.63 1.99533 119.63 4V116C119.63 118.005 118.005 119.63 116 119.63H4C1.99533 119.63 0.370226 118.005 0.370226 116V4Z" stroke="#E5E5E5" stroke-width="0.740451"/>
</g>
</svg>
