<svg width="120" height="120" viewBox="0 0 120 120" fill="none" xmlns="http://www.w3.org/2000/svg">
<g id="Logo04">
<g id="Vector">
<path d="M59.9997 39.627C35.0221 39.627 15 47.202 15 56.6995C15 66.139 35.1871 73.7726 59.9997 73.7726C84.8128 73.7726 105 66.1134 105 56.6995C105 47.2855 84.8128 39.627 59.9997 39.627Z" fill="#003478"/>
<path d="M77.7248 60.316C77.7368 60.3942 77.8383 60.4691 77.9365 60.5045C77.9727 60.5168 77.9904 60.5412 77.9526 60.6243C77.6724 61.232 77.4148 61.5823 77.0635 62.1103C76.7403 62.5982 76.3764 62.9788 75.9358 63.3449C75.2711 63.9014 74.3481 64.5071 73.585 64.0999C73.2461 63.922 73.0994 63.4419 73.1059 63.0534C73.122 61.9607 73.6025 60.8389 74.4896 59.7365C75.5711 58.3893 76.7667 57.6905 77.5514 58.0725C78.3632 58.4642 78.1041 59.4152 77.7405 60.1617C77.7124 60.2195 77.7127 60.2688 77.7248 60.316ZM86.4361 51.8018C86.4945 51.6976 86.4331 51.6214 86.3029 51.6214C85.6249 51.6214 84.7352 51.623 84.0287 51.623C83.8604 51.623 83.7735 51.6433 83.6942 51.8022C83.4334 52.3077 80.2553 57.1268 79.6638 58.0626C79.564 58.2052 79.4424 58.1852 79.4283 58.0219C79.3683 57.4661 78.8939 56.8271 78.1465 56.5214C77.5768 56.2876 77.0199 56.2452 76.4409 56.323C75.3957 56.4652 74.4644 57.023 73.6457 57.6523C72.4118 58.6014 71.3471 59.8316 69.9728 60.7406C69.2225 61.2354 68.1951 61.6669 67.5076 61.0227C66.8855 60.4391 66.9558 59.1429 67.9077 58.1403C68.0079 58.0352 68.1283 58.1239 68.1094 58.2172C68.0196 58.6706 68.1295 59.1215 68.47 59.4377C68.8853 59.8144 69.4797 59.8569 69.9884 59.6055C70.5887 59.3045 70.9414 58.7234 71.0442 58.0638C71.2032 57.0407 70.4249 56.1384 69.4509 56.0659C68.6597 56.0097 67.9009 56.2883 67.1616 56.9057C66.7909 57.2168 66.5804 57.4467 66.2598 57.908C66.1817 58.0216 66.0617 58.0329 66.0654 57.8652C66.1016 56.5553 65.5666 55.8183 64.4964 55.7943C63.6655 55.7739 62.778 56.2302 62.0862 56.7883C61.3278 57.4045 60.6647 58.2212 59.9538 58.9885C59.8653 59.083 59.7884 59.0785 59.7634 58.8952C59.7433 58.0273 59.5263 57.1867 59.1294 56.5897C58.9889 56.382 58.6932 56.2794 58.4448 56.4195C58.33 56.483 57.931 56.6687 57.6404 56.9054C57.4963 57.0256 57.44 57.1995 57.504 57.4224C57.8871 58.719 57.803 60.1932 57.283 61.4384C56.8055 62.5788 55.8777 63.6073 54.7872 63.9554C54.0688 64.1859 53.322 64.0731 52.8598 63.4287C52.2251 62.5393 52.4814 60.9925 53.4276 59.7082C54.2625 58.5773 55.4703 57.859 56.6749 57.3964C56.8166 57.341 56.846 57.249 56.8057 57.1272C56.7405 56.9268 56.6359 56.6539 56.5936 56.5294C56.4829 56.2317 56.1736 56.1836 55.7958 56.2252C54.9205 56.3282 54.1309 56.6316 53.351 57.0542C51.3085 58.1608 50.2845 60.3025 49.8358 61.4483C49.6197 61.9988 49.4349 62.3421 49.1961 62.6465C48.8741 63.056 48.4699 63.4288 47.7309 64.0855C47.6641 64.1458 47.6142 64.2712 47.6705 64.3881C47.7458 64.5461 48.1302 65.0954 48.2386 65.1444C48.359 65.2042 48.4986 65.1199 48.5546 65.08C49.0717 64.7253 49.6905 64.1631 49.9932 63.7818C50.0995 63.651 50.2086 63.706 50.2649 63.9044C50.5475 64.9243 51.2874 65.7572 52.3105 66.1056C54.1832 66.7446 56.1256 65.8197 57.5918 64.2095C58.5236 63.186 58.8598 62.5278 59.217 62.0804C59.8223 61.3216 61.0163 59.6241 62.4384 58.5342C62.96 58.1323 63.5771 57.8257 63.8874 58.0293C64.1366 58.1926 64.2171 58.5722 63.8174 59.3075C62.3674 61.9865 60.2341 65.134 59.8429 65.8972C59.7712 66.0296 59.8348 66.1338 59.9709 66.1338C60.7296 66.13 61.4817 66.1319 62.1705 66.1319C62.2852 66.1279 62.3363 66.0733 62.3939 65.9914C63.5066 64.2291 64.5538 62.5518 65.6762 60.8176C65.739 60.7154 65.7969 60.7931 65.7994 60.8379C65.8235 61.2403 65.9201 61.7906 66.1564 62.152C66.5807 62.8201 67.1819 63.1071 67.8488 63.1115C68.3793 63.1197 68.6478 63.0362 69.22 62.8199C69.6856 62.6452 70.0593 62.4159 70.3461 62.2084C70.5136 62.0903 70.543 62.2878 70.5389 62.318C70.2813 63.717 70.5994 65.3747 71.9736 66.0621C73.6182 66.8825 75.425 65.7293 76.4646 64.6883C76.5665 64.5881 76.6755 64.5987 76.686 64.8149C76.7101 65.2124 76.8856 65.6841 77.2106 66.0142C78.0819 66.8988 79.8399 66.5482 81.6042 65.1665C82.7369 64.2819 83.9222 63.0321 84.9928 61.7086C85.033 61.6573 85.062 61.575 84.9847 61.4916C84.8217 61.3189 84.5858 61.1214 84.4241 60.9692C84.3505 60.9057 84.2422 60.924 84.1803 60.9714C83.0828 62.0274 82.095 63.2317 80.6672 64.2276C80.1857 64.5677 79.4182 64.842 79.0736 64.3698C78.9391 64.1865 78.9544 63.9331 79.0857 63.6005C79.5019 62.5502 86.094 52.4006 86.4361 51.8018Z" fill="white"/>
<path d="M55.4283 53.0269C55.4565 53.1776 55.5145 53.207 55.5821 53.1943C55.9178 53.1263 56.2852 52.8469 56.5027 52.5231C56.7007 52.2295 56.7937 51.8057 56.5969 51.6359C56.4214 51.4832 56.1356 51.5264 55.9238 51.7157C55.5019 52.0928 55.3739 52.6276 55.4283 53.0269ZM38.6305 66.0958C36.1732 66.1121 34.0082 64.5766 33.7598 61.9166C33.6218 60.4426 34.0335 59.129 34.8579 58.0468C35.5894 57.0824 36.8272 56.2813 37.875 56.0855C38.2159 56.0224 38.674 56.0611 38.8634 56.2908C39.1604 56.6406 39.0751 57.0249 38.778 57.1782C37.9787 57.5912 37.0168 58.2981 36.5409 59.2634C36.1549 60.0513 36.0769 61.0008 36.6665 61.9053C37.6533 63.4128 40.4041 63.4543 42.9618 61.0501C43.5952 60.4617 44.1621 59.8964 44.7383 59.2267C45.8648 57.9235 46.2395 57.4486 47.7369 55.347C47.753 55.3226 47.761 55.2908 47.753 55.2753C47.7409 55.2468 47.7208 55.2427 47.6762 55.2387C46.6765 55.2672 45.805 55.5682 44.9578 56.2087C44.7139 56.3887 44.3628 56.3634 44.2091 56.1264C44.038 55.8584 44.1608 55.5096 44.4422 55.3126C45.8049 54.3537 47.2936 54.1798 48.8138 53.9202C48.8138 53.9202 48.9193 53.9242 49.0062 53.8086C49.6303 52.9982 50.1015 52.2672 50.7668 51.4477C51.4371 50.6162 52.3029 49.8527 52.9645 49.2791C53.8879 48.4758 54.4801 48.2054 55.0819 47.8741C55.2405 47.7902 55.0618 47.69 55.0135 47.69C51.6533 47.051 48.1607 46.2242 44.8236 47.4741C42.5125 48.3468 41.4997 50.2011 41.9869 51.4402C42.3334 52.3191 43.4759 52.462 44.5455 51.9324C45.4339 51.492 46.256 50.7822 46.8388 49.8685C47.1649 49.361 47.8519 49.7271 47.4807 50.6083C46.5042 52.9305 44.6387 54.7726 42.3662 54.8504C40.4323 54.9139 39.1845 53.4744 39.1886 51.6985C39.1966 48.1956 43.0506 45.8882 47.101 45.5433C51.9789 45.1354 56.599 46.4501 61.4422 47.0445C65.153 47.4991 68.7106 47.5086 72.4404 46.6417C72.8814 46.5447 73.1907 46.8294 73.162 47.28C73.1258 47.9313 72.627 48.5586 71.3986 49.2365C70.0015 50.0117 68.54 50.247 67.0135 50.2596C63.3224 50.2922 59.8841 48.835 56.3262 48.0527C56.3302 48.2103 56.3713 48.3981 56.2409 48.4975C54.2701 49.9684 52.4886 51.462 51.2955 53.5598C51.2553 53.6083 51.2754 53.6543 51.3466 53.6494C52.3825 53.5936 53.3141 53.5667 54.2812 53.4885C54.4503 53.4722 54.4566 53.4315 54.4417 53.3069C54.356 52.5838 54.5649 51.7592 55.1936 51.1921C55.837 50.6084 56.6426 50.542 57.1767 50.9624C57.7838 51.4411 57.73 52.302 57.398 52.9476C57.0599 53.6027 56.5015 53.953 55.9656 54.1231C55.9656 54.1231 55.8529 54.1476 55.8698 54.251C55.8899 54.4164 56.6211 54.8258 56.6835 54.9348C56.7439 55.0387 56.7117 55.1996 56.6018 55.323C56.5246 55.4126 56.4034 55.4965 56.2484 55.4936C56.1233 55.4911 56.0472 55.4472 55.887 55.3596C55.5593 55.18 55.1499 54.8848 54.8767 54.5366C54.7837 54.4189 54.7362 54.4165 54.504 54.4296C53.4574 54.4906 51.8257 54.6503 50.7201 54.79C50.452 54.8226 50.4126 54.8743 50.3574 54.9683C48.5947 57.9093 46.7126 61.0809 44.6461 63.2043C42.4297 65.481 40.5864 66.0803 38.6305 66.0958Z" fill="white"/>
<path d="M59.9987 42.4187C37.0201 42.4187 18.3942 48.8433 18.3942 56.7049C18.3942 64.5671 37.0201 70.9922 59.9987 70.9922C82.977 70.9922 101.602 64.5671 101.602 56.7049C101.602 48.8433 82.977 42.4187 59.9987 42.4187ZM59.9987 72.287C36.1836 72.287 16.878 65.3107 16.878 56.7049C16.878 48.0978 36.1836 41.1228 59.9987 41.1228C83.8116 41.1228 103.116 48.0978 103.116 56.7049C103.116 65.3107 83.8116 72.287 59.9987 72.287Z" fill="white"/>
</g>
<path d="M0.370226 4C0.370226 1.99533 1.99533 0.370226 4 0.370226H116C118.005 0.370226 119.63 1.99533 119.63 4V116C119.63 118.005 118.005 119.63 116 119.63H4C1.99533 119.63 0.370226 118.005 0.370226 116V4Z" stroke="#E5E5E5" stroke-width="0.740451"/>
</g>
</svg>
