<svg width="120" height="120" viewBox="0 0 120 120" fill="none" xmlns="http://www.w3.org/2000/svg">
<g id="Logo03">
<g id="Vector">
<path d="M95.1923 89.759C95.8578 89.7429 96.5244 89.759 97.1905 89.7523C97.1994 90.2046 97.166 90.6568 97.1571 91.1101C96.4966 91.1174 95.8355 91.1207 95.1745 91.1101C95.1745 90.6596 95.1839 90.2101 95.1917 89.7607L95.1923 89.759ZM102.514 78.4171H105C104.768 81.9103 104.517 85.4036 104.269 88.8957C103.429 88.8884 102.59 88.8884 101.75 88.8957C102.004 85.403 102.252 81.9098 102.514 78.4171ZM65.7463 78.4237C66.5869 78.4148 67.4285 78.4237 68.269 78.4165C68.0305 81.9103 67.7685 85.4019 67.5288 88.8957C66.6928 88.8885 65.8567 88.8885 65.0212 88.8957L65.6716 79.618C65.6917 79.2181 65.7413 78.8203 65.7463 78.4215V78.4237ZM35.2753 78.4165H43.1762C43.1255 78.9188 43.1094 79.4233 43.0592 79.925C43.0592 80.0235 42.9867 80.0969 42.9321 80.1715C41.6669 81.7418 40.4233 83.3276 39.1553 84.894C38.5979 85.5866 37.9736 86.2196 37.3549 86.8554C39.133 86.8787 40.9116 86.8554 42.6908 86.8665C42.6573 87.5446 42.6016 88.2204 42.5564 88.8968C39.7517 88.8902 36.9481 88.8968 34.1433 88.8968C34.1963 88.4351 34.2102 87.9701 34.252 87.5079C34.252 87.3977 34.3178 87.3087 34.383 87.2264C35.18 86.229 35.9726 85.2267 36.7663 84.2254C37.4993 83.3098 38.2061 82.3714 39.0126 81.5182C39.3392 81.1482 39.7065 80.8162 40.0298 80.4429C38.3967 80.4273 36.7636 80.4429 35.1304 80.4362C35.1823 79.7649 35.2224 79.0923 35.2753 78.4209V78.4165ZM94.0602 79.2603C94.7887 78.5194 95.8528 78.2201 96.8672 78.1717C97.8242 78.1445 98.8158 78.2507 99.677 78.698C99.5265 79.2904 99.3961 79.8883 99.2461 80.4813C98.6297 80.2199 97.9753 80.0179 97.2992 80.028C96.8488 80.0113 96.3572 80.1003 96.03 80.4329C95.7435 80.7055 95.6845 81.1549 95.8361 81.5104C95.976 81.873 96.3043 82.11 96.6153 82.3186C97.0506 82.614 97.5428 82.8098 97.9865 83.0918C98.4413 83.3755 98.8716 83.7109 99.2127 84.1292C99.9875 85.057 100.052 86.4766 99.4473 87.5073C98.963 88.3139 98.0662 88.775 97.1699 88.9702C95.9615 89.2317 94.6834 89.1182 93.5201 88.7116C93.2556 88.6167 93.001 88.4963 92.7599 88.3523C92.9015 87.7615 93.0453 87.1708 93.1946 86.5812C94.1533 87.0067 95.2085 87.3766 96.2714 87.2042C96.6994 87.1224 97.1164 86.8315 97.2312 86.3937C97.3449 85.9153 97.1671 85.3924 96.8154 85.0554C96.3862 84.6337 95.8155 84.4146 95.2993 84.1236C94.6082 83.7259 93.9549 83.2019 93.5714 82.4894C93.0313 81.4547 93.2348 80.0897 94.0602 79.2603ZM86.0507 80.429C85.1483 80.9024 84.5167 81.7763 84.1823 82.7213C83.849 83.6797 83.7325 84.7422 84.019 85.7279C84.1712 86.204 84.4359 86.6863 84.8924 86.9327C85.1361 87.0549 85.4064 87.1144 85.679 87.1058C85.9515 87.0973 86.2176 87.0209 86.4531 86.8838C86.9508 86.5939 87.3048 86.1128 87.5623 85.6083C87.9998 84.7605 88.1899 83.8099 88.2501 82.8648L88.4641 80.2149C87.6687 80.0324 86.7836 80.0313 86.0507 80.429ZM85.204 78.6145C86.3243 78.1946 87.5456 78.105 88.7311 78.2018C89.5282 78.2596 90.3174 78.4115 91.0833 78.6396C90.9456 80.3111 90.8157 81.9826 90.6819 83.6536C90.5147 85.3974 90.5515 87.1591 90.7945 88.8935C90.0142 88.8946 89.235 88.8935 88.4563 88.8935C88.3906 88.0964 88.395 87.2965 88.3655 86.4983C88.0377 87.0812 87.7523 87.7053 87.2568 88.1726C86.5083 88.9463 85.369 89.2545 84.3178 89.0898C83.2688 88.953 82.3758 88.2232 81.8775 87.3154C81.3798 86.4287 81.26 85.3885 81.2845 84.3895C81.3218 83.069 81.7209 81.749 82.494 80.6704C83.15 79.7198 84.1283 79.0195 85.204 78.6123V78.6145ZM59.2617 78.5055C60.265 78.164 61.3519 78.0878 62.397 78.2429C62.8041 78.3036 63.2018 78.4159 63.5803 78.5773C63.4416 79.2186 63.3111 79.8627 63.1645 80.5024C62.3792 80.1937 61.5008 80.1042 60.6764 80.2911C59.7344 80.5063 58.9596 81.2117 58.5344 82.0627C58.0885 82.9349 57.9747 83.954 58.1453 84.9135C58.2534 85.5143 58.5299 86.1 58.9981 86.5044C59.4713 86.9299 60.1196 87.1263 60.7505 87.1018C61.4835 87.1202 62.1958 86.9054 62.868 86.6312C62.9767 87.2609 63.1043 87.8883 63.198 88.5219C62.4859 88.8464 61.7198 89.0369 60.9384 89.0837C59.9234 89.1749 58.866 89.057 57.9497 88.5898C57.0891 88.1698 56.3896 87.4483 55.9749 86.5878C55.6003 85.8113 55.4476 84.9413 55.4548 84.083C55.4334 82.8946 55.7638 81.7263 56.4046 80.7244C57.0723 79.6925 58.1002 78.906 59.2617 78.5055ZM48.9518 80.4329C48.0383 80.918 47.3973 81.808 47.0707 82.7725C46.753 83.7165 46.6471 84.7583 46.9269 85.7245C47.0651 86.1768 47.3143 86.6223 47.7195 86.886C48.2228 87.1936 48.8989 87.1747 49.3961 86.8626C49.8598 86.5773 50.1987 86.1284 50.4456 85.6517C50.8664 84.8462 51.0732 83.9451 51.1435 83.0434C51.2176 82.0978 51.3062 81.1533 51.3681 80.2065C50.5683 80.0424 49.6854 80.0268 48.9518 80.4329ZM49.8531 78.2162C51.25 78.0845 52.6592 78.232 53.9984 78.6501C53.8328 80.4201 53.7141 82.1934 53.562 83.9651C53.417 85.6077 53.4822 87.262 53.6957 88.8946C52.921 88.8946 52.1473 88.8879 51.3737 88.8946C51.2806 88.0986 51.3146 87.2959 51.2789 86.4972C51.071 86.7881 50.9612 87.1357 50.7561 87.4289C50.3046 88.1587 49.6135 88.7655 48.7757 88.9975C48.0032 89.2033 47.1521 89.1838 46.4146 88.8584C45.4247 88.4146 44.7146 87.4734 44.422 86.4449C44.1684 85.5426 44.1299 84.5859 44.2509 83.6592C44.4047 82.4187 44.9064 81.2172 45.719 80.2633C46.7457 79.0567 48.2886 78.3609 49.8531 78.2162ZM28.0595 78.9505C29.0338 78.3792 30.1798 78.1445 31.3034 78.1684C32.0024 78.1879 32.7092 78.2952 33.3529 78.5784C33.2158 79.2181 33.0793 79.8577 32.9449 80.4969C32.1356 80.1971 31.2388 80.0947 30.3955 80.3033C29.5332 80.5169 28.8192 81.1471 28.3872 81.9075C27.8371 82.896 27.7055 84.0964 27.9814 85.1883C28.1542 85.8714 28.5973 86.4966 29.2316 86.8209C29.8058 87.1307 30.4824 87.1407 31.1145 87.0679C31.644 87.0028 32.1507 86.8287 32.6406 86.6273C32.7398 87.1875 32.8385 87.7476 32.9421 88.3072C32.9416 88.3823 33.0074 88.5147 32.9026 88.5486C31.9862 88.9753 30.9601 89.1193 29.9557 89.1093C28.8448 89.1015 27.7156 88.7494 26.8617 88.0263C26.0925 87.3799 25.5774 86.4604 25.3695 85.4837C25.0925 84.1553 25.1968 82.7341 25.7614 81.4926C26.2395 80.4245 27.0439 79.5346 28.0595 78.9505ZM16.0507 74.3926C18.7306 74.3998 21.4105 74.3998 24.0898 74.3926C24.0497 75.1018 23.9917 75.8099 23.9449 76.5175H18.3928C18.3086 77.7846 18.2183 79.0506 18.1252 80.3167C19.866 80.3233 21.6061 80.3233 23.3468 80.3155C23.3189 81.0175 23.2493 81.7184 23.1963 82.4187C21.4584 82.426 19.7205 82.412 17.9826 82.426C17.8939 83.8755 17.7652 85.3229 17.6894 86.7736C19.6341 86.7803 21.5788 86.7736 23.5235 86.7736C23.4956 87.4812 23.4326 88.1865 23.3875 88.8929C20.5917 88.8924 17.7958 88.8863 15 88.8929C15.3567 84.058 15.6917 79.2225 16.0507 74.3887V74.3926ZM74.9771 80.2633C74.1745 80.4891 73.5999 81.1761 73.2671 81.9098C72.795 82.9127 72.795 84.0402 72.722 85.1227C72.7287 85.6923 72.7565 86.3386 73.1779 86.7731C73.6394 87.2509 74.383 87.2804 74.9911 87.119C75.8416 86.8927 76.4559 86.1762 76.8494 85.4247C77.3639 84.3867 77.5595 83.183 77.3655 82.0388C77.2541 81.4737 76.996 80.9141 76.5451 80.5408C76.1137 80.187 75.5033 80.1259 74.9771 80.2633ZM71.071 73.625C71.9104 73.6027 72.7504 73.6183 73.5904 73.6161C73.4622 75.7092 73.2911 77.8007 73.1634 79.8939C73.3919 79.6013 73.6093 79.2948 73.8975 79.0567C74.9064 78.1695 76.4113 77.9431 77.6654 78.3831C78.5015 78.6757 79.1096 79.3866 79.4964 80.1576C80.0181 81.2061 80.1173 82.4176 79.9958 83.5691C79.8542 84.7667 79.4641 85.9609 78.7283 86.9305C78.089 87.7593 77.239 88.449 76.2413 88.7923C75.2018 89.1521 74.0686 89.2111 72.9862 89.0403C72.455 88.9419 71.9294 88.7678 71.4706 88.4769C70.9885 88.1476 70.6714 87.6241 70.4718 87.0862C70.2221 86.3353 70.2684 85.5298 70.3052 84.7516C70.5097 81.7496 70.7254 78.7475 70.9339 75.7448C70.974 75.0384 71.0482 74.3325 71.071 73.625Z" fill="#6C5D4F"/>
<path d="M62.3498 28.2011C64.6862 27.873 67.0717 27.9621 69.3934 28.3542C71.0624 28.6936 72.7346 29.1455 74.2313 29.9807C75.1765 30.4472 76.0024 31.1107 76.7989 31.7919C78.3984 33.3277 79.5323 35.4046 79.6925 37.6297C79.6443 37.3964 79.5732 37.1704 79.5046 36.9412C79.3657 36.4066 79.2105 35.8695 78.945 35.3795C78.6754 34.7614 78.311 34.179 77.8225 33.7051C77.6036 33.4638 77.365 33.2418 77.1265 33.0191C77.1148 32.9531 77.081 32.893 77.0306 32.8485C76.9802 32.8039 76.9161 32.7775 76.8487 32.7736C76.7937 32.7344 76.7392 32.6945 76.6853 32.6537C76.6683 32.5884 76.6292 32.5308 76.5744 32.4907C76.5197 32.4506 76.4527 32.4304 76.3847 32.4334C76.1215 32.2703 75.8598 32.1047 75.5996 31.9369C75.3831 31.7611 75.1634 31.5837 74.9061 31.4654C74.732 31.1439 74.5196 30.8271 74.2019 30.6279C73.3384 30.0714 72.3376 29.7676 71.3401 29.5481C70.0249 29.2857 68.672 29.31 67.3372 29.3294C65.8119 29.4436 64.308 29.7304 62.8024 29.9863C62.3449 30.069 61.8809 30.1038 61.4169 30.1322C60.4463 30.1864 59.502 30.4319 58.5412 30.5696C57.5041 30.7427 56.4557 30.841 55.4042 30.8636C54.9541 30.8798 54.5489 30.6546 54.1445 30.4934C56.7326 29.2962 59.5273 28.5866 62.3498 28.2011Z" fill="#6D3810"/>
<path d="M62.8024 29.9863C64.3088 29.7304 65.8119 29.4453 67.3372 29.3294C68.672 29.31 70.0249 29.2857 71.3401 29.5481C72.3376 29.7676 73.3384 30.0714 74.2019 30.6279C74.5196 30.8271 74.732 31.1439 74.9061 31.4654C74.1978 31.2443 73.7069 30.6457 73.0158 30.3905C72.1253 30.0439 71.1752 29.8762 70.2276 29.7693C67.8054 29.5668 65.3799 29.8794 62.9961 30.2917C62.0125 30.4643 61.0159 30.5663 60.02 30.6457C58.5414 30.815 57.0889 31.1431 55.6143 31.3391C55.0392 31.412 54.4616 31.5254 53.8791 31.4784C53.5099 31.4541 53.1227 31.3861 52.7657 31.5238C52.2175 31.7222 51.6955 31.9879 51.1971 32.2909C50.9627 32.4383 50.6972 32.5233 50.4292 32.5865C51.5533 31.7109 52.8717 31.122 54.1445 30.4934C54.5505 30.6546 54.9533 30.8806 55.4042 30.8636C56.4557 30.841 57.5041 30.7427 58.5412 30.5696C59.502 30.4319 60.4463 30.1864 61.4169 30.1322C61.8809 30.1038 62.3449 30.0673 62.8024 29.9863Z" fill="#8B4714"/>
<path d="M62.9961 30.2917C65.3799 29.8794 67.8054 29.5668 70.2276 29.7693C71.1752 29.8762 72.1253 30.0439 73.0158 30.3905C73.7069 30.6457 74.1978 31.2443 74.9061 31.4654C75.1634 31.5845 75.3815 31.7611 75.5996 31.9369C73.4429 30.9551 71.073 30.3395 68.6868 30.4286C67.1836 30.4189 65.6641 30.5048 64.1977 30.8531C63.969 30.8904 63.7402 30.9301 63.5115 30.9714C62.3498 31.0216 61.1906 31.1795 60.0616 31.4541C59.3141 31.6372 58.5307 31.6826 57.8232 32.0033C57.4131 32.1354 56.9989 32.2431 56.5872 32.3654C55.7964 32.5776 55.0415 32.9065 54.2393 33.0782C53.0343 33.3504 51.8294 33.6242 50.6424 33.9676C49.9684 34.1782 49.332 34.486 48.6842 34.7631C48.0192 35.0539 47.3354 35.3438 46.784 35.8258C46.5561 36.0286 46.2986 36.196 46.0201 36.3224C46.2571 35.9692 46.5838 35.6873 46.8812 35.3852C47.7365 34.5346 48.6817 33.7797 49.6637 33.0774C49.9145 32.9081 50.1441 32.6942 50.4292 32.5865C50.7007 32.5315 50.9592 32.4316 51.1971 32.2909C51.6925 31.9834 52.2181 31.7264 52.7657 31.5238C53.1227 31.3861 53.5099 31.4541 53.8791 31.4784C54.4624 31.527 55.0392 31.412 55.6143 31.3391C57.0889 31.1431 58.5414 30.815 60.02 30.6457C61.0159 30.5663 62.0125 30.4643 62.9961 30.2917Z" fill="#B25717"/>
<path d="M64.1977 30.8531C65.6641 30.5048 67.1836 30.4238 68.6868 30.4286C71.073 30.3395 73.4429 30.9551 75.5996 31.9369C75.8594 32.1045 76.1233 32.269 76.3847 32.4334C76.4035 32.4981 76.4425 32.5548 76.4972 32.5946C76.5519 32.6345 76.6175 32.6553 76.6853 32.6537L76.8487 32.7736C76.8594 32.84 76.8929 32.9007 76.9435 32.9454C76.9942 32.9901 77.0587 33.0162 77.1265 33.0191C77.365 33.2418 77.6036 33.4638 77.8225 33.7051L77.8626 33.8736C77.4288 33.5577 77.0546 33.1689 76.6209 32.853C75.7222 32.1879 74.6872 31.7319 73.6292 31.3804C72.702 31.028 71.7078 30.9373 70.7381 30.7583C70.7545 30.725 70.7912 30.6578 70.8092 30.6246C70.1025 30.5598 69.3975 30.4707 68.6868 30.4618C67.1812 30.4513 65.6927 30.7105 64.1977 30.8531Z" fill="#FED99A"/>
<path d="M64.1977 30.8531C65.6927 30.7105 67.1812 30.4513 68.6868 30.4618C69.3975 30.4707 70.1025 30.5598 70.8092 30.6246C70.7912 30.6594 70.7545 30.7242 70.7381 30.7583C69.0062 30.6044 67.2661 30.7769 65.5383 30.9162C64.6291 30.9891 63.737 31.1819 62.8523 31.386C62.6423 31.4103 62.4323 31.4265 62.2216 31.4403C62.34 31.3601 62.4585 31.2799 62.581 31.2038C62.8915 31.1276 63.2003 31.0443 63.5115 30.9714C63.7402 30.9301 63.969 30.8904 64.1977 30.8531Z" fill="#FEF5EC"/>
<path d="M65.5383 30.9162C67.2661 30.7769 69.0062 30.6044 70.7381 30.7583C71.7078 30.9365 72.7012 31.0264 73.6292 31.3804C73.4928 31.4111 73.3589 31.4403 73.2225 31.4662C72.3055 31.2183 71.3661 31.0609 70.4179 30.9964C69.0561 30.8085 67.6812 30.9559 66.3194 31.0677C65.5482 31.1698 64.7672 31.2013 64.0034 31.3609C63.0328 31.5586 62.0582 31.7578 61.1163 32.064C60.1979 32.36 59.286 32.6755 58.3812 33.0101C56.3618 33.774 54.5367 34.9801 52.9225 36.396C52.4748 36.8375 52.0075 37.2773 51.6595 37.8038C51.5732 37.9493 51.4933 38.0985 51.4201 38.2509C51.9471 37.9747 52.3122 37.496 52.7852 37.1493C53.4012 36.6941 54.0188 36.2372 54.6666 35.8266C55.7017 35.5131 56.5227 34.7816 57.4981 34.3475C59.2259 33.5512 61.0387 32.9437 62.8833 32.4763C63.9004 32.2041 64.9012 31.7935 65.9713 31.7951C66.2311 31.8404 66.486 31.8996 66.7442 31.9506C66.6369 32.1798 66.5406 32.4139 66.4558 32.6521C66.0109 32.7543 65.5867 32.9304 65.201 33.1729C64.8481 33.3997 64.4298 33.4824 64.0148 33.5002C63.2967 33.5366 62.5852 33.6387 61.8679 33.6905C61.1408 33.7513 60.3803 33.7335 59.7006 34.0364C58.8371 34.4139 58.0226 34.891 57.2285 35.3908C56.8755 35.5713 56.5569 35.8118 56.2874 36.1012C56.7433 36.0121 57.195 35.8986 57.6533 35.812C57.5667 36.1344 57.463 36.4519 57.3519 36.767C57.4198 36.7475 57.4874 36.7267 57.5545 36.7046C57.1975 36.959 56.8013 37.1493 56.4296 37.3818C56.0407 37.6167 55.6804 37.8978 55.2687 38.0946C55.5669 37.6402 55.9827 37.2198 55.9794 36.6398C55.6567 36.7232 55.3341 36.8204 55.0383 36.9768C54.2802 37.3834 53.5597 37.8597 52.8931 38.4024C51.7314 38.9265 51.0999 40.0848 50.2838 40.9929C50.4651 40.6122 50.622 40.2217 50.7658 39.8248C51.0525 39.4765 51.3523 39.1331 51.5549 38.7264C50.8957 39.1071 50.4512 39.7357 49.9358 40.2744C50.1286 39.939 50.3499 39.6207 50.5485 39.2886C50.7837 38.8957 50.9095 38.4543 51.0795 38.0314C51.48 37.4605 51.9762 36.9618 52.5467 36.5572C53.3367 35.8549 54.1454 35.1704 55.0032 34.55C55.6674 34.0818 56.4042 33.7351 57.1044 33.3268C58.5073 32.7377 59.9437 32.2303 61.4063 31.8072C61.8938 31.686 62.3761 31.5455 62.8523 31.386C63.737 31.1819 64.6291 30.9891 65.5383 30.9162Z" fill="#F68D5E"/>
<path d="M60.0616 31.4541C61.1925 31.1813 62.3486 31.0196 63.5115 30.9714C63.2003 31.0443 62.8915 31.1276 62.581 31.2038C62.1088 31.2929 61.6366 31.3844 61.1702 31.4994C60.0567 31.6833 58.9604 31.9993 57.8232 32.0033C58.5307 31.6826 59.3141 31.6372 60.0616 31.4541Z" fill="#E0742F"/>
<path d="M66.3194 31.0677C67.6812 30.9567 69.0553 30.8085 70.418 30.9948C69.9801 31.0062 69.5438 31.0613 69.1109 31.1236C69.7808 31.3383 70.489 31.3448 71.1753 31.4776C71.9791 31.6234 72.7928 31.7206 73.6105 31.7449L73.4504 31.5311C73.7649 31.6283 74.077 31.732 74.3858 31.847C74.1603 31.932 73.921 31.9993 73.6775 31.9636C72.5534 31.8227 71.4367 31.6072 70.3036 31.5505C69.1288 31.4873 67.9427 31.3286 66.7736 31.5262C66.33 31.604 65.8799 31.6153 65.4314 31.6186C65.7949 31.5246 66.1503 31.4007 66.5098 31.2913C66.4468 31.2168 66.3823 31.143 66.3194 31.0677Z" fill="#D66E32"/>
<path d="M79.5054 36.942C79.5741 37.1704 79.6443 37.3964 79.6933 37.6305C79.8434 38.8266 79.7537 40.0403 79.4295 41.2019C79.454 40.3077 79.6541 39.4182 79.5479 38.5216C79.5054 37.9967 79.4989 37.4685 79.5054 36.942ZM69.1109 31.1236C69.5438 31.0613 69.98 31.0069 70.4179 30.9964C71.3664 31.058 72.3059 31.2216 73.2225 31.4662L73.4504 31.5311L73.6105 31.7449C72.7935 31.716 71.9789 31.6266 71.1753 31.4776C70.489 31.3448 69.7808 31.3383 69.1109 31.1236Z" fill="#C65F1D"/>
<path d="M64.0034 31.3609C64.7672 31.2013 65.5482 31.1698 66.3194 31.0677L66.5088 31.2905C66.1502 31.4006 65.7957 31.5238 65.4314 31.6186C64.5001 31.7117 63.594 31.9571 62.6807 32.1499C59.819 32.7736 57.0635 33.9238 54.6813 35.6233C54.0171 35.9505 53.4412 36.4171 52.8563 36.8626C52.4208 37.2012 52.0671 37.6321 51.6292 37.9666C51.6398 37.9245 51.6505 37.8443 51.6586 37.803C52.0083 37.2765 52.4748 36.8366 52.9225 36.396C54.5367 34.9801 56.3618 33.774 58.3812 33.0101C59.286 32.6755 60.1979 32.36 61.1163 32.064C62.0599 31.7586 63.032 31.5586 64.0034 31.3609Z" fill="#BE5B1A"/>
<path d="M61.1702 31.4994C61.6366 31.3844 62.1088 31.2929 62.581 31.2038C62.4585 31.2799 62.34 31.361 62.2208 31.4412C62.4315 31.4258 62.6423 31.412 62.8514 31.3869C62.3754 31.5467 61.893 31.6872 61.4055 31.8081C59.9431 32.2309 58.507 32.738 57.1044 33.3268C57.0349 33.3268 56.9001 33.3172 56.8306 33.3148C57.2326 33.0223 57.6753 32.7866 58.1189 32.5598C59.1156 32.1499 60.1539 31.8559 61.1702 31.4994Z" fill="#FFEDD2"/>
<path d="M66.7736 31.5262C67.9427 31.3286 69.1288 31.4873 70.3036 31.5505C71.4367 31.6072 72.5534 31.8227 73.6775 31.9636C73.921 32.0001 74.1595 31.9337 74.3858 31.847C74.6056 31.9207 74.7819 32.077 74.9322 32.2488C74.2599 32.3541 73.6178 32.0349 72.9487 32.1184C72.635 32.0981 72.3123 31.9855 72.0011 32.0536C71.7152 32.2407 71.4505 32.4748 71.1057 32.5493L70.8941 32.6108C70.3092 32.8417 69.7047 33.0483 69.0642 33.0053C69.1813 32.7492 69.2542 32.4754 69.2799 32.1953C70.0878 31.9839 70.9284 31.9871 71.7527 31.877C70.984 31.6818 70.1875 31.7474 69.4049 31.6874C68.2603 31.5983 67.1126 31.6995 65.9713 31.7951C64.9012 31.7943 63.9012 32.2058 62.8833 32.4763C61.0395 32.9445 59.2251 33.5528 57.4981 34.3475C56.5227 34.7816 55.7017 35.5131 54.6666 35.8266C54.6666 35.7763 54.678 35.6743 54.6813 35.6233C57.0635 33.9238 59.819 32.7736 62.6807 32.1499C63.594 31.9571 64.5001 31.7117 65.4314 31.6186C65.8807 31.6186 66.3308 31.6032 66.7736 31.5262Z" fill="#E37449"/>
<path d="M73.2225 31.4662C73.3589 31.4403 73.4928 31.4111 73.6292 31.3804C74.6872 31.7311 75.7239 32.1879 76.6209 32.853C77.0546 33.1689 77.4288 33.5577 77.8626 33.8736C77.852 33.8331 77.8331 33.7465 77.8225 33.7051C78.3127 34.1774 78.6762 34.7606 78.945 35.3795C78.6492 35.0652 78.3756 34.7322 78.0978 34.4009C78.1812 34.9582 78.4328 35.4637 78.6926 35.9562C79.1133 36.7613 79.3282 37.6467 79.5479 38.5216C79.6541 39.4182 79.454 40.3077 79.4295 41.2019C79.3216 41.7981 79.1419 42.4136 78.7906 42.915C78.7906 42.8745 78.7906 42.7952 78.7808 42.753C78.7711 42.4267 78.8004 42.1005 78.8682 41.781C78.1166 41.8896 77.5873 42.4979 76.8724 42.7036C76.5677 42.8016 76.2557 42.8721 75.9452 42.9523L76.0187 42.7449C76.2132 42.6785 76.4027 42.5959 76.5931 42.5149C77.4182 42.1868 78.325 41.7365 78.6583 40.8584C78.9033 39.8216 78.7808 38.7483 78.713 37.6977C78.6916 37.2879 78.6253 36.8815 78.5153 36.4859C78.3462 35.8784 78.1967 35.2304 77.7596 34.75C77.3139 34.2575 76.8021 33.8279 76.2385 33.4734C75.2353 32.8214 74.0916 32.4391 72.9454 32.1183C73.6137 32.034 74.2566 32.354 74.9281 32.2487C74.7786 32.077 74.6022 31.9206 74.3816 31.8469C74.0736 31.7311 73.7607 31.6274 73.4454 31.531C73.3899 31.5132 73.2739 31.4816 73.2183 31.4654L73.2225 31.4662Z" fill="#F3805C"/>
<path d="M57.8232 32.0033C58.9604 32.0033 60.0567 31.6825 61.1702 31.4994C60.1539 31.8559 59.1156 32.1499 58.1189 32.5598C57.1141 32.8206 56.1959 33.3334 55.3144 33.8664C54.8104 34.0737 54.3178 34.3062 53.8137 34.5184C52.496 35.0676 50.9871 34.8797 49.6923 35.501C49.02 35.8201 48.2945 36.0275 47.6581 36.4195C46.9785 36.8359 46.2996 37.2555 45.682 37.7601C45.4675 37.9302 45.224 38.0608 44.9631 38.1457C45.2024 37.8128 45.4287 37.4628 45.7506 37.2004C46.3845 36.6787 47.101 36.2721 47.8093 35.859C48.3787 35.5285 48.9326 35.1624 49.5518 34.9275C50.5942 34.5403 51.6701 34.2503 52.7509 33.9943C54.1021 33.6428 55.3732 33.0426 56.5872 32.3654C56.9989 32.2431 57.4131 32.1354 57.8232 32.0033Z" fill="#F7905F"/>
<path d="M65.9713 31.7951C67.1126 31.6995 68.2603 31.5983 69.4049 31.6874C70.1875 31.7474 70.984 31.6769 71.7527 31.877C70.9284 31.9871 70.0878 31.9839 69.2799 32.1953C68.8673 32.303 68.4613 32.4488 68.0365 32.5031C67.5112 32.5712 66.9794 32.5654 66.4558 32.6521C66.5406 32.4139 66.6369 32.1798 66.7442 31.9506C66.486 31.8996 66.2311 31.8404 65.9713 31.7951Z" fill="#F27F5A"/>
<path d="M71.1057 32.5493C71.4505 32.4748 71.7152 32.2407 72.0011 32.0536C72.3123 31.9855 72.635 32.0981 72.9487 32.1184C74.0949 32.4391 75.2394 32.8214 76.2418 33.4726C76.1225 33.474 76.0035 33.484 75.8856 33.5026C75.9134 33.9822 76.3006 34.3288 76.5253 34.7282C76.9174 35.3989 77.3896 36.0485 77.571 36.814C77.7262 37.4442 77.5996 38.0971 77.6788 38.7353C77.736 39.2497 77.7956 39.794 77.5514 40.2728C77.1699 40.9961 77.0718 41.8361 76.5964 42.5149C76.4077 42.5989 76.2159 42.6756 76.0212 42.7449C75.3702 42.8203 74.7191 42.7125 74.0671 42.6988C73.2796 42.6704 72.4929 42.7879 71.7062 42.7247L71.5297 42.229C71.631 42.1439 71.7291 42.0548 71.8279 41.9673L71.8778 42.0086C72.3197 42.446 72.9806 42.3845 73.5353 42.2541C73.9626 42.1642 74.4013 42.0872 74.7942 41.8936C75.2313 41.6749 75.4837 41.2367 75.6904 40.8179C76.0172 40.1245 76.3064 39.3963 76.3578 38.6252C76.4142 38.0557 76.2868 37.4912 76.1667 36.9387C76.0656 36.4678 75.8941 36.0146 75.6577 35.5941C75.3285 35.0174 75.0507 34.3888 74.5467 33.936C74.0712 33.5059 73.5664 33.0992 72.9986 32.7955C72.4243 32.4812 71.7413 32.4869 71.1057 32.5493Z" fill="#DE824A"/>
<path d="M68.0365 32.5031C68.4613 32.4488 68.8673 32.303 69.2799 32.1953C69.2542 32.4754 69.1813 32.7492 69.0642 33.0053C68.3396 33.0053 67.664 33.2969 66.9925 33.5342C66.3373 33.7943 65.616 33.6622 64.9314 33.7287C63.2264 33.8445 61.4284 33.7829 59.8607 34.5622C59.725 34.6156 59.7046 34.7679 59.6638 34.8878C59.087 35.1227 58.4907 35.3106 57.8869 35.4629C57.6647 35.5334 57.4385 35.4637 57.2285 35.3908C58.0226 34.891 58.8371 34.4139 59.7006 34.0364C60.3811 33.7343 61.1392 33.7529 61.8679 33.6905C62.5852 33.6387 63.2967 33.5366 64.0148 33.5002C64.4282 33.4824 64.8497 33.3997 65.201 33.1729C65.5874 32.9324 66.0114 32.7517 66.4558 32.6521C66.9794 32.5654 67.5112 32.5712 68.0365 32.5031Z" fill="#ED814B"/>
<path d="M54.2393 33.0782C55.0415 32.9065 55.7964 32.5776 56.5872 32.3654C55.374 33.0434 54.1021 33.6444 52.7509 33.9943C51.6701 34.2503 50.5942 34.5403 49.5518 34.9275C48.9326 35.1624 48.3787 35.5285 47.8093 35.859C47.101 36.2721 46.3845 36.6787 45.7506 37.2004C45.4287 37.4628 45.2024 37.8128 44.9631 38.1457C44.477 38.6762 44.1265 39.3065 43.6805 39.8662C43.3815 40.2542 43.1446 40.6867 42.8129 41.048C43.4068 39.5584 44.3438 38.2259 45.3658 36.9963C45.5782 36.7679 45.753 36.4908 46.0201 36.3224C46.2995 36.1968 46.5552 36.0283 46.784 35.8258C47.3354 35.3438 48.0192 35.0539 48.6842 34.7631C49.332 34.486 49.9684 34.1782 50.6424 33.9676C51.8294 33.6242 53.0343 33.3504 54.2393 33.0782Z" fill="#D66C30"/>
<path d="M76.3847 32.4334C76.4532 32.429 76.5211 32.4487 76.5763 32.489C76.6316 32.5293 76.6708 32.5876 76.687 32.6538C76.6191 32.6554 76.5519 32.6345 76.4972 32.5946C76.4425 32.5548 76.4035 32.4981 76.3847 32.4334Z" fill="#CB7633"/>
<path d="M55.3144 33.8664C56.1959 33.3334 57.1141 32.8206 58.1189 32.5598C57.6753 32.7866 57.2326 33.0223 56.8306 33.3148C56.9001 33.3148 57.0349 33.3244 57.1044 33.3268C56.4042 33.7351 55.6674 34.0818 55.0032 34.55C54.1454 35.1704 53.3367 35.8549 52.5467 36.5572C51.9762 36.9618 51.48 37.4605 51.0795 38.0314C50.5378 38.609 50.318 39.3907 49.8246 39.9998C49.7233 40.1319 49.6155 40.259 49.515 40.3911C49.5754 40.1877 49.6212 39.9796 49.6661 39.7714C49.5656 39.8305 49.4643 39.8864 49.3663 39.9496C49.5696 39.3116 49.5764 38.628 49.3859 37.9861C48.9153 37.9732 48.4317 37.9367 47.9742 38.0752C47.0143 38.3684 46.1337 38.8682 45.3184 39.4417C44.5987 39.8929 43.9484 40.4664 43.4811 41.1768C43.2695 41.5065 43.062 41.837 42.848 42.1634C42.8374 42.0022 42.8235 41.8426 42.8153 41.6814C43.1439 40.9504 43.5686 40.2657 44.0783 39.645C45.07 38.8107 46.0258 37.9116 47.1728 37.2838C47.7798 36.9542 48.3884 36.6204 49.0354 36.3726C50.2216 35.9189 51.545 35.9927 52.7124 35.4799C53.3693 35.1737 54.0735 34.921 54.5996 34.4026C54.8373 34.2244 55.0701 34.0381 55.3136 33.8672L55.3144 33.8664Z" fill="#FFDD99"/>
<path d="M70.8941 32.6108C70.9456 32.5963 71.0534 32.5655 71.1057 32.5493C71.7413 32.4869 72.4243 32.4812 72.9986 32.7955C73.5664 33.0992 74.0712 33.5059 74.5467 33.936C75.0507 34.3888 75.3285 35.0174 75.6577 35.5941C75.8941 36.0146 76.0656 36.4678 76.1667 36.9387C76.2868 37.4912 76.4142 38.0557 76.3578 38.6252C76.3064 39.3963 76.0172 40.1245 75.6904 40.8179C75.4837 41.2359 75.2313 41.6766 74.7951 41.892C74.4013 42.0864 73.9626 42.1642 73.5353 42.2541C72.9806 42.3845 72.3197 42.446 71.8778 42.0086C71.9407 41.9463 72.0069 41.8831 72.0714 41.8216C72.5975 41.9163 73.1604 41.9585 73.6644 41.747C74.2395 41.5016 74.7158 41.0553 75.0352 40.5223C75.3645 39.9796 75.8456 39.4911 75.9306 38.8358C76.0376 38.0396 76.0155 37.1996 75.6937 36.4519C75.4551 35.8865 75.1161 35.3722 74.7787 34.8619C74.3457 34.2074 73.7755 33.6144 73.0509 33.2823C72.7364 33.139 72.2912 33.0507 72.064 33.3852C71.9136 33.2064 71.7668 33.0247 71.6237 32.8401C71.4865 32.9154 71.35 32.9923 71.2144 33.0693C71.1164 32.9105 71.0052 32.7615 70.8941 32.6108Z" fill="#CC6F30"/>
<path d="M73.0991 37.6718C73.202 38.268 73.2233 38.8755 73.2298 39.4782C73.2396 40.0484 73.077 40.6244 72.7266 41.0836C72.9725 40.5466 73.1301 39.9561 73.0231 39.3648C73.0762 38.8042 73.1783 38.2389 73.0991 37.6718ZM69.0651 33.0061C69.7039 33.0482 70.3093 32.8425 70.895 32.6116C71.0045 32.7615 71.1164 32.9105 71.2144 33.0693C71.288 33.2629 71.3443 33.4638 71.4015 33.6631C71.0298 33.6817 70.6508 33.6825 70.2938 33.7951C69.9449 33.9036 69.6018 34.06 69.2309 34.0632C68.6288 34.077 68.0308 33.9773 67.4312 33.9579C66.4926 33.9304 65.5457 33.8105 64.6128 33.9579C63.8874 34.0511 63.1505 34.0251 62.4308 34.1547C61.72 34.2827 61.0044 34.405 60.3231 34.6497C60.1025 34.7209 59.8819 34.8036 59.6638 34.8854C59.7047 34.7655 59.7251 34.6132 59.8599 34.5606C61.4284 33.7805 63.2265 33.8421 64.9314 33.7254C65.616 33.659 66.3365 33.7918 66.9925 33.5318C67.6632 33.2937 68.3405 33.0013 69.0651 33.0029V33.0061Z" fill="#E67736"/>
<path d="M71.2144 33.0693C71.35 32.9923 71.4865 32.9154 71.6237 32.8401C71.7668 33.0247 71.9136 33.2064 72.064 33.3852C72.3753 33.723 72.6375 34.1012 72.8328 34.5176C72.2029 34.6391 71.5649 35.0392 70.913 34.793C70.4147 34.6099 69.9008 34.409 69.3575 34.4722C68.9768 34.4625 68.6092 34.3539 68.2326 34.3199C67.285 34.2357 66.3349 34.3199 65.3897 34.3758C65.4322 34.2989 65.473 34.2219 65.5147 34.1441C65.2149 34.0793 64.9159 34.0089 64.6128 33.9603C65.5457 33.8096 66.4917 33.9303 67.4312 33.9603C68.0308 33.9797 68.6288 34.0777 69.2309 34.0656C69.6026 34.0656 69.9449 33.9052 70.2946 33.7966C70.6516 33.6841 71.0298 33.6832 71.4015 33.6654C71.3443 33.4653 71.2871 33.2661 71.2136 33.0717L71.2144 33.0693Z" fill="#DA6C26"/>
<path d="M76.8487 32.7736C76.9161 32.7775 76.9802 32.8039 77.0306 32.8485C77.081 32.893 77.1148 32.9531 77.1265 33.0191C77.0587 33.0162 76.9942 32.9901 76.9435 32.9454C76.8929 32.9007 76.8594 32.84 76.8487 32.7736Z" fill="#CB7E35"/>
<path d="M72.064 33.3852C72.2928 33.0507 72.7356 33.1398 73.0509 33.2823C73.7755 33.6144 74.3457 34.2074 74.7787 34.8619C75.1161 35.3722 75.4551 35.8865 75.6937 36.4519C76.0155 37.1996 76.0376 38.0396 75.9306 38.8358C75.8456 39.4911 75.3645 39.9796 75.0352 40.5223C74.7166 41.0545 74.2395 41.5 73.6644 41.747C73.1604 41.9585 72.5975 41.9163 72.0714 41.8216C72.1555 41.7389 72.2405 41.6571 72.323 41.5721C72.7462 41.807 73.2306 41.5826 73.5558 41.2837C73.8989 40.9832 74.0811 40.5563 74.3531 40.1991C74.688 39.7471 75.4233 39.709 75.5932 39.1185C75.9314 38.1214 75.8301 36.9639 75.2779 36.0591C74.8555 35.3171 74.3653 34.6092 73.76 34.0024C73.5264 33.7708 73.2151 33.6428 72.9169 33.5148L72.8107 33.7092C73.1824 34.2365 73.6129 34.7728 73.6464 35.4459C73.164 35.5795 72.6897 35.7404 72.2258 35.9279C71.4399 35.164 70.3844 34.7946 69.3575 34.4722C69.9008 34.409 70.413 34.6107 70.913 34.793C71.5649 35.0392 72.2029 34.6391 72.8328 34.5176C72.636 34.1039 72.3767 33.7215 72.064 33.3852Z" fill="#C3621B"/>
<path d="M75.8856 33.5026C76.0033 33.4864 76.1225 33.4775 76.2418 33.4726C76.8053 33.8273 77.3179 34.2568 77.7637 34.7492C78.2008 35.2296 78.3503 35.8784 78.5194 36.4851C78.6305 36.8804 78.6959 37.2878 78.7171 37.6969C78.7841 38.7475 78.9074 39.8216 78.6615 40.8576C78.3291 41.7357 77.4223 42.1868 76.5964 42.5149C77.0718 41.8361 77.1699 40.9961 77.5514 40.2728C77.7956 39.794 77.736 39.2497 77.6788 38.7353C77.6004 38.0971 77.7278 37.4442 77.571 36.814C77.3896 36.0485 76.9174 35.3989 76.5253 34.7282C76.3023 34.3288 75.9142 33.9813 75.8872 33.5018L75.8856 33.5026Z" fill="#E17A3A"/>
<path d="M72.9169 33.5148C73.2151 33.6444 73.5264 33.77 73.76 34.0024C74.3662 34.6083 74.8563 35.3162 75.2787 36.0582C75.8301 36.9638 75.9322 38.1214 75.5932 39.1185C75.4216 39.709 74.6872 39.7463 74.3531 40.1991C74.0811 40.5555 73.8997 40.9848 73.5558 41.2837C73.2306 41.5786 72.747 41.807 72.323 41.5721C72.4668 41.4166 72.6065 41.257 72.7266 41.0836C73.077 40.6252 73.2347 40.0484 73.2298 39.4782C73.2192 38.8747 73.202 38.2664 73.0991 37.6718C72.9934 37.0158 72.6888 36.4081 72.2258 35.9279C72.6898 35.7375 73.1653 35.5836 73.6464 35.4459C73.6113 34.772 73.1824 34.2357 72.8107 33.7092L72.9169 33.5148Z" fill="#B45917"/>
<path d="M53.8137 34.5184C54.3162 34.3078 54.8104 34.0737 55.3144 33.8664C55.071 34.0381 54.8381 34.2252 54.5996 34.4026C53.848 34.6966 53.1503 35.1348 52.3489 35.2896C51.3057 35.5293 50.1906 35.5245 49.216 36.0121C48.2316 36.4997 47.2063 36.9315 46.3216 37.5884C45.4818 38.1635 44.6763 38.8156 44.0783 39.645C43.5686 40.2657 43.1439 40.9504 42.8153 41.6814C42.2933 42.6802 41.9551 43.7616 41.6005 44.8259V44.5376C41.7835 43.5186 42.1299 42.5287 42.531 41.5745C42.6094 41.3922 42.6846 41.2027 42.8129 41.048C43.1446 40.6867 43.3815 40.2542 43.6805 39.8662C44.1265 39.3065 44.477 38.6762 44.9631 38.1457C45.222 38.0566 45.4704 37.9343 45.682 37.7601C46.2996 37.2555 46.9785 36.8359 47.6581 36.4195C48.2945 36.0275 49.02 35.8201 49.6923 35.501C50.9871 34.8797 52.496 35.0676 53.8137 34.5184Z" fill="#FBAC71"/>
<path d="M62.4299 34.1563C63.1513 34.0267 63.8874 34.0526 64.6128 33.9603C64.9159 34.0073 65.2141 34.0793 65.5147 34.1441L65.3897 34.3758C63.795 34.5621 62.211 34.8659 60.6923 35.3884C60.4921 35.4556 60.2953 35.5358 60.0853 35.5674C60.0363 35.5674 59.9423 35.5674 59.8941 35.5779C60.2454 35.3317 60.7274 35.1737 60.8459 34.7144C60.6725 34.6899 60.4984 34.6705 60.3238 34.6561C61.0044 34.4115 61.7208 34.2892 62.4299 34.162V34.1563Z" fill="#DC714D"/>
<path d="M65.7924 55.442C66.7482 55.4015 67.7196 55.5012 68.637 55.7766C68.5782 55.7766 68.4597 55.7895 68.4001 55.7936C67.9843 55.749 67.5717 55.6842 67.1559 55.6413C66.8005 55.5959 66.4427 55.587 66.0857 55.5498C65.9887 55.5115 65.8909 55.4762 65.7924 55.442ZM52.3489 35.2896C53.1503 35.1348 53.848 34.6966 54.5996 34.4026C54.0743 34.9218 53.3701 35.1729 52.7133 35.4791C51.5451 35.9918 50.2224 35.9206 49.0354 36.3726C48.3884 36.6204 47.7798 36.9542 47.1728 37.2838C46.0258 37.9116 45.07 38.8107 44.0783 39.645C44.6763 38.8156 45.4818 38.1635 46.3216 37.5884C47.2063 36.9315 48.2316 36.4997 49.216 36.0121C50.1906 35.5245 51.3057 35.5293 52.3489 35.2896Z" fill="#FEC481"/>
<path d="M78.0978 34.4009C78.3756 34.7322 78.6492 35.0652 78.945 35.3795C79.2113 35.8695 79.3657 36.4066 79.5054 36.942C79.4956 37.4685 79.5038 37.9967 79.5479 38.5216C79.3273 37.6475 79.1142 36.7614 78.6935 35.957C78.4337 35.4629 78.1821 34.9583 78.0988 34.4018L78.0978 34.4009Z" fill="#E47747"/>
<path d="M59.6638 34.8878C59.8819 34.8044 60.1017 34.7225 60.3239 34.6529C60.4995 34.665 60.6719 34.6877 60.8467 34.7096C60.7274 35.1705 60.2463 35.3276 59.8942 35.5738C59.9432 35.5738 60.0371 35.5738 60.0853 35.5641C59.6442 35.8015 59.1622 35.9513 58.7129 36.1668C58.3207 36.3328 57.9564 36.5604 57.5545 36.7014L57.3519 36.763C57.463 36.4487 57.5667 36.1311 57.6533 35.8088C57.1958 35.8962 56.7432 36.0088 56.2874 36.0979C56.5566 35.8079 56.8751 35.5672 57.2285 35.3867C57.4376 35.4613 57.6647 35.5293 57.887 35.4596C58.4915 35.3073 59.0862 35.1203 59.6638 34.8854L59.6638 34.8878Z" fill="#ED7B5A"/>
<path d="M52.8563 36.8626C53.442 36.4171 54.0187 35.9505 54.6813 35.6233C54.6813 35.6743 54.6707 35.7763 54.6666 35.8266C54.0188 36.2372 53.4012 36.6941 52.7852 37.1493C52.3122 37.496 51.9471 37.9747 51.4201 38.2509C51.4945 38.0987 51.5721 37.9496 51.6595 37.8038C51.6489 37.8459 51.6374 37.9245 51.6292 37.9666C52.0687 37.6313 52.4216 37.2012 52.8563 36.8626Z" fill="#DD773A"/>
<path d="M55.0383 36.9768C55.3341 36.8204 55.6567 36.7232 55.9794 36.6398C55.9794 37.2198 55.5669 37.6402 55.2687 38.0946C55.0416 38.3805 54.7057 38.5482 54.4329 38.7831C52.982 39.952 51.688 41.3217 50.6652 42.877L50.6047 42.9013C50.2624 42.9977 50.0713 43.3119 49.8679 43.5736C49.9332 43.3233 49.9684 43.0673 49.9626 42.8097C49.9528 42.4274 50.1031 42.0686 50.2102 41.7081C50.3401 41.265 50.6529 40.9143 50.9127 40.5417C51.4682 39.7365 52.282 39.1614 52.8931 38.4024C53.5599 37.8598 54.2789 37.3824 55.0383 36.9768Z" fill="#F7986E"/>
<path d="M47.9742 38.0752C48.4317 37.9375 48.9154 37.9724 49.3868 37.9853C49.5766 38.6276 49.5689 39.3112 49.3663 39.9496C49.0256 40.3465 48.7488 40.7888 48.4604 41.2213C47.9784 41.9293 47.6762 42.7361 47.2187 43.4586C46.6909 44.4128 46.0913 45.3273 45.5717 46.284L45.2695 46.386C45.5423 45.5857 45.776 44.7684 46.1526 44.007C46.3813 43.525 46.7016 42.9977 46.4687 42.4542C46.1959 42.5522 45.8936 42.8317 45.5946 42.6907C45.4043 42.4299 45.624 42.0792 45.5129 41.7875C45.4443 41.5672 45.2629 41.3177 44.9982 41.3769C44.2843 41.4222 43.848 42.0468 43.3431 42.4647C42.6651 43.0123 42.4265 43.8742 41.9879 44.5902L41.9274 44.6485C42.1218 43.7834 42.4747 42.9637 42.8489 42.1618C43.0638 41.8361 43.2704 41.5057 43.482 41.176C43.9493 40.4656 44.6004 39.8921 45.3201 39.4409C46.1346 38.8666 47.0153 38.3676 47.9752 38.0744L47.9742 38.0752Z" fill="#FFE5AF"/>
<path d="M49.8246 39.9998C50.318 39.3907 50.5378 38.609 51.0795 38.0314C50.9095 38.4543 50.7837 38.8957 50.5485 39.2886C50.3499 39.6207 50.1286 39.939 49.9358 40.2744C50.4512 39.7357 50.8957 39.1071 51.5549 38.7264C51.3523 39.1331 51.0509 39.4757 50.7658 39.8248C50.7478 39.7819 50.7159 39.6976 50.6979 39.6555C50.5023 39.8362 50.3278 40.0381 50.1776 40.2574C49.667 41.0006 49.1937 41.7684 48.7594 42.5578C48.7602 42.2565 48.77 41.9422 48.9195 41.6725C49.1294 41.2756 49.323 40.8706 49.4783 40.4477L49.515 40.3911C49.6155 40.259 49.7233 40.1319 49.8246 39.9998Z" fill="#FAAB82"/>
<path d="M50.2838 40.9929C51.0999 40.0848 51.7314 38.9265 52.8931 38.4024C52.2828 39.1622 51.4691 39.7381 50.9127 40.5417C50.6529 40.9143 50.3401 41.265 50.2102 41.7081C50.104 42.0694 49.9545 42.4282 49.9626 42.8097C49.9733 43.0673 49.9324 43.3233 49.8679 43.5736C50.0713 43.3119 50.2624 42.9977 50.6047 42.9013C50.4332 43.3063 50.1881 43.6716 49.9814 44.0596C48.6449 46.6193 48.1107 49.639 48.7577 52.4708C49.2217 54.5769 50.4528 56.4772 52.1234 57.8429C52.0091 57.9652 51.88 58.081 51.7991 58.2293C51.6782 58.4942 51.6954 58.8003 51.5671 59.062C51.4691 59.1511 51.349 59.2118 51.2346 59.2782C51.3531 59.4872 51.474 59.6946 51.5916 59.9036L51.5303 59.859C51.4519 59.7959 51.3735 59.7351 51.2967 59.6719C50.5941 58.7574 49.7985 57.9093 49.2372 56.8952C48.6065 55.8794 48.2937 54.7195 47.8517 53.6211C47.6916 53.0189 47.5756 52.406 47.5045 51.7872C47.4792 50.6985 47.3656 49.6123 47.4089 48.5228C47.4432 48.215 47.4718 47.9072 47.5004 47.5994C47.6859 46.7999 47.8337 45.9915 48.0682 45.2017C48.5445 43.5363 49.3312 41.9754 50.2412 40.5028C50.394 40.2614 50.5828 40.0443 50.7658 39.8248C50.622 40.2217 50.4651 40.6122 50.2838 40.9929Z" fill="#F79567"/>
<path d="M72.3417 40.6907C72.5345 40.2371 72.8238 39.82 73.0231 39.3648C73.1293 39.9561 72.9724 40.5474 72.7265 41.082C72.604 41.2547 72.4692 41.4186 72.323 41.5721C72.2405 41.6571 72.1555 41.7389 72.0714 41.8216C72.0069 41.8831 71.9407 41.9463 71.8778 42.0086L71.8279 41.9673C71.7884 41.9344 71.7492 41.9012 71.7102 41.8677C71.8916 41.7178 72.0705 41.5591 72.2078 41.3671C72.3532 41.1727 72.3189 40.9175 72.3417 40.6907Z" fill="#FCBE83"/>
<path d="M50.1776 40.2574C50.3295 40.0387 50.501 39.8346 50.6995 39.6547C50.7159 39.6977 50.7478 39.7827 50.7658 39.8248C50.5828 40.0443 50.394 40.2614 50.2412 40.5028C49.3295 41.9746 48.5445 43.5364 48.0666 45.2018C47.8329 45.9907 47.6867 46.7999 47.5004 47.5994C47.5143 47.1936 47.5486 46.787 47.6319 46.3884C47.5592 46.5156 47.4857 46.6444 47.4179 46.7756C47.5053 45.8457 47.8027 44.9555 48.1311 44.0864C48.3272 43.5704 48.6074 43.09 48.7594 42.5578C49.1937 41.7684 49.667 41.0006 50.1776 40.2574Z" fill="#FFECC8"/>
<path d="M49.3663 39.9496C49.4643 39.8864 49.5656 39.8305 49.6661 39.7714C49.6212 39.9796 49.5754 40.1877 49.515 40.3911L49.4783 40.4477C48.8492 41.1443 48.3721 41.9617 47.9988 42.8179C47.6925 43.4821 47.3542 44.1301 47.0405 44.7911C46.784 45.3265 46.6304 45.9065 46.3527 46.4346C46.204 46.7246 45.9932 46.9757 45.8176 47.2495L45.4851 47.0899C45.5023 46.821 45.5235 46.5505 45.5717 46.284C46.0921 45.3265 46.6893 44.4128 47.2187 43.4586C47.6762 42.7361 47.9784 41.9293 48.4604 41.2213C48.7488 40.7888 49.0256 40.3465 49.3663 39.9496Z" fill="#FFD2A8"/>
<path d="M47.9988 42.8179C48.3721 41.9617 48.8492 41.1443 49.4783 40.4477C49.323 40.8706 49.1294 41.2756 48.9195 41.6725C48.7667 41.943 48.761 42.2565 48.7594 42.5578C48.6074 43.09 48.3272 43.5704 48.1311 44.0864C47.8043 44.9555 47.5061 45.8457 47.4179 46.7756C47.1973 47.7679 47.1059 48.7869 47.0904 49.8019C47.1582 52.3713 47.7905 54.9382 49.0151 57.2111C49.7977 58.6254 50.939 59.7911 52.0835 60.9202C50.8957 60.3111 49.8819 59.4112 48.6434 58.8952C48.2431 58.7234 47.8224 58.6052 47.4033 58.4942C47.3281 58.8887 47.2685 59.2864 47.2138 59.6849C46.1967 59.3739 45.3544 58.7105 44.4738 58.1475C43.8774 57.7717 43.4649 57.1917 42.9461 56.7259C42.4723 56.3088 42.1635 55.7539 41.8645 55.2088C41.6439 54.53 41.3621 53.8658 41.2681 53.1529C41.0639 52.1299 41.0582 51.0874 41.0034 50.0506C40.9234 50.68 40.9324 51.3158 40.9381 51.9484C40.8678 51.413 40.9013 50.8735 40.8891 50.3349C40.8691 49.7093 40.8814 49.0832 40.9258 48.4589C40.9749 47.8894 40.9585 47.3046 41.1342 46.7514C41.1546 46.8891 41.1815 47.0276 41.2036 47.1669C41.193 47.6319 41.1317 48.0936 41.1235 48.5593C41.1137 48.9538 41.2093 49.3402 41.2632 49.7298C41.3368 50.2425 41.3065 50.761 41.3523 51.2761C41.4046 51.8788 41.4846 52.479 41.6014 53.0728C41.6913 53.4948 41.8024 53.9403 42.1047 54.2683C42.38 54.5624 42.6847 54.8264 42.9976 55.0784C43.3096 55.3311 43.7148 55.404 44.0841 55.5344C44.3888 55.6357 44.6772 55.7774 44.9811 55.8803C45.4451 56.0512 45.9475 55.9256 46.4254 56.0261C46.6378 56.0828 46.8314 55.9799 47.0136 55.8835C46.1967 54.0853 45.5758 52.185 45.3258 50.2247C45.2303 49.6658 45.4337 49.1247 45.5709 48.5917C45.6894 48.1519 45.6967 47.6902 45.8193 47.2503C45.9933 46.9749 46.2049 46.7246 46.3544 46.4355C46.6305 45.9065 46.784 45.3257 47.0405 44.7911C47.3551 44.1309 47.6941 43.4813 47.9988 42.8179Z" fill="#FBBEA5"/>
<path d="M71.7691 41.3064C71.9267 41.0731 72.1228 40.8689 72.3417 40.6907C72.3172 40.9175 72.3532 41.1727 72.2078 41.3671C72.0705 41.5591 71.8916 41.7178 71.7102 41.8677C70.8378 42.4363 69.9351 43.0042 68.9212 43.2877C69.4343 42.7952 70.1311 42.5895 70.7144 42.1999C71.1025 41.952 71.5232 41.709 71.7691 41.3064Z" fill="#F7945F"/>
<path d="M43.1495 44.1601C43.0123 44.4355 42.6365 44.463 42.4886 44.732C41.9772 45.5971 41.8228 46.6088 41.6962 47.5889C41.6578 47.921 41.5712 48.2588 41.6374 48.5909C41.7599 48.9757 42.103 49.26 42.1586 49.6715C42.2762 50.3373 42.3612 51.0598 42.8137 51.5993C42.9804 51.2607 43.1846 50.9116 43.1724 50.5212C43.1585 50.0457 43.1887 49.5678 43.3194 49.1085C43.5653 48.164 44.1486 47.3605 44.691 46.5642C44.9827 45.9616 45.3021 45.3273 45.2711 44.6412C44.9133 44.706 44.535 44.8664 44.1715 44.7482C43.9068 44.5076 43.7736 44.1204 43.4224 43.9786C43.2859 43.9114 43.2067 44.0653 43.1495 44.1601ZM43.3431 42.4647C43.848 42.0468 44.2843 41.4222 44.9982 41.3769C45.2629 41.3202 45.4443 41.5672 45.5129 41.7875C45.6232 42.0775 45.4035 42.4307 45.5946 42.6907C45.8936 42.8317 46.1959 42.5522 46.4687 42.4542C46.7016 42.9977 46.3813 43.525 46.1526 44.007C45.776 44.7684 45.5423 45.5857 45.2695 46.386L45.2523 46.4427C45.0317 46.5683 44.8806 46.774 44.7678 46.9952C44.5595 47.3969 44.2809 47.7582 44.0816 48.1648C43.7851 48.7966 43.5424 49.4673 43.4991 50.1688C43.4509 50.8938 43.3635 51.6171 43.1773 52.321C42.9542 52.2765 42.6708 52.2716 42.5515 52.044C42.1471 51.3919 42.1618 50.5965 41.9519 49.8788C41.8007 49.3458 41.3792 48.8849 41.4372 48.3017C41.4911 47.546 41.6774 46.8008 41.6496 46.0385C41.7672 45.5566 41.8743 45.0722 41.9879 44.5902C42.4265 43.8742 42.6651 43.0123 43.3431 42.4647Z" fill="#FFE9C9"/>
<path d="M70.3615 42.2096C70.8574 41.9504 71.2969 41.6013 71.7691 41.3064C71.5232 41.709 71.1025 41.952 70.7144 42.1999C70.1311 42.5895 69.4343 42.7952 68.9212 43.2877C68.7538 43.3509 68.5863 43.4116 68.4164 43.4611C67.3584 43.6749 66.3193 43.973 65.2532 44.1488C63.2582 44.5181 61.2543 44.8332 59.2504 45.1467C58.8566 45.2026 58.4726 45.3063 58.092 45.4164C57.2775 45.4513 56.5349 45.8133 55.7343 45.9162C56.1656 45.6951 56.6345 45.5639 57.101 45.4383C58.8149 44.9823 60.5828 44.7952 62.3269 44.4833C64.219 44.1617 66.1102 43.7883 67.9376 43.1994C68.7791 42.9548 69.5887 42.6162 70.3615 42.2096Z" fill="#BF6020"/>
<path d="M41.6005 44.8259C41.9551 43.7616 42.2933 42.6802 42.8153 41.6814C42.8251 41.8434 42.8398 42.003 42.848 42.1634C42.4738 42.9653 42.1209 43.7842 41.9265 44.6493C41.5401 45.4399 41.3964 46.3164 41.2036 47.1669C41.1815 47.0276 41.1537 46.8899 41.1333 46.7521C41.1333 46.5189 41.1905 46.2912 41.2329 46.0636C41.3424 45.5533 41.4004 45.0252 41.6005 44.5376V44.8259Z" fill="#FBBB8D"/>
<path d="M76.8757 42.7037C77.5905 42.4979 78.1191 41.8896 78.8715 41.7802C78.8061 42.1002 78.771 42.4274 78.7849 42.7531C78.5267 43.4424 78.0742 44.0329 77.6428 44.6226C77.1731 45.2082 76.6862 45.789 76.107 46.2734C75.4861 46.3188 74.8996 46.5342 74.2869 46.6331C73.6864 46.7295 73.099 46.8971 72.4961 46.9854C71.7527 47.0988 70.9791 47.145 70.2962 47.4836C69.6777 47.793 69.0462 48.1057 68.5463 48.5917C68.0994 48.9805 67.8208 49.5483 67.28 49.8294C66.6273 50.1615 65.8994 50.3097 65.1805 50.4215C65.5334 50.2611 65.8961 50.1161 66.254 49.9663C66.7212 49.7743 66.9835 49.3231 67.2996 48.9594C67.7506 48.3989 68.2628 47.8716 68.9131 47.5395C69.6287 47.1742 70.3247 46.7651 71.0796 46.4784C71.6139 46.271 72.0681 45.913 72.568 45.6376C73.2755 45.2244 74.0875 44.9004 74.563 44.1981C74.3406 44.0225 74.1173 43.8481 73.8931 43.6749L74.1774 43.2172C74.7803 43.2618 75.3718 43.1095 75.9501 42.9523C76.2589 42.8713 76.571 42.8025 76.8757 42.7037Z" fill="#F7925F"/>
<path d="M73.5533 62.631C73.8065 62.4495 74.05 62.2551 74.2918 62.0591C74.0141 62.5338 73.5402 62.8472 73.0983 63.1583C72.4883 63.5836 71.8153 63.9121 71.1033 64.1319L71.2871 63.94C71.2201 63.9505 71.0902 63.9594 71.0233 63.9643C71.9047 63.5973 72.8246 63.266 73.5533 62.631ZM68.9212 43.2877C69.9351 43.0042 70.8386 42.4355 71.7111 41.8669L71.8279 41.9673C71.7291 42.0548 71.631 42.1439 71.5297 42.229C71.355 42.3625 71.1708 42.4825 70.9783 42.5895C70.6842 42.744 70.4055 42.9257 70.1459 43.1322C70.2039 43.154 70.324 43.197 70.3828 43.2196C70.7741 43.3736 71.194 43.4319 71.6049 43.5048C70.9653 43.8669 70.23 43.9892 69.5479 44.2435C68.8371 44.4517 68.1795 44.7968 67.4851 45.0487C65.8864 45.5898 64.3367 46.2791 62.6938 46.689C62.1693 46.8064 61.6645 46.9968 61.1915 47.2495C60.1646 47.776 59.029 48.1203 58.1059 48.8298C57.5259 49.2616 57.4156 50.0206 56.9785 50.5592C56.7441 50.8751 56.3389 51.2478 56.5554 51.6746C56.8004 52.0505 57.2179 52.27 57.5079 52.6078C57.7865 52.9431 58.2334 53.161 58.6737 53.059C58.8077 52.9091 58.8975 52.7309 58.9988 52.5584L59.1622 52.7422C59.819 53.5174 60.8443 53.7783 61.6743 54.3104C61.5975 54.3218 61.4455 54.3404 61.3696 54.3517C61.1853 54.246 60.9961 54.149 60.8026 54.061C60.3892 53.8657 59.9824 53.6551 59.5478 53.5101C58.9743 53.3133 58.3469 53.3546 57.78 53.1278C57.1387 52.8808 56.4794 52.5462 55.7703 52.6321C55.4729 52.6499 55.3782 52.9666 55.2556 53.1829C54.3946 52.7309 53.6683 52.0189 53.2362 51.1497C52.9323 50.5341 52.8522 49.8294 52.9355 49.1522C52.9355 49.4827 52.9944 49.8083 53.0793 50.1267C53.3816 49.6966 53.5531 49.1952 53.8097 48.7416C54.424 47.712 55.3626 46.919 56.3912 46.3147C59.9775 44.9361 63.907 45.0268 67.5783 43.9835C67.9933 43.8693 68.3952 43.7105 68.7873 43.5331C68.6631 43.5088 68.5389 43.4837 68.4164 43.4611C68.5863 43.4116 68.7538 43.3509 68.9212 43.2877Z" fill="#FFDC96"/>
<path d="M70.9783 42.5895C71.1708 42.4825 71.355 42.3625 71.5297 42.229L71.7062 42.7247C72.4929 42.7879 73.2796 42.6704 74.0671 42.6988C74.7191 42.7125 75.3702 42.8203 76.0212 42.7449C76.0049 42.796 75.9681 42.9005 75.9501 42.9523C75.3734 43.1087 74.7811 43.2618 74.1774 43.2172C73.9021 43.1929 73.6267 43.1549 73.3531 43.12C72.7608 43.0204 72.1571 43.0633 71.5624 42.9953C71.3009 42.9856 71.1401 42.7628 70.9783 42.5895Z" fill="#E8925A"/>
<path d="M70.145 43.1313C70.4032 42.9232 70.6842 42.7458 70.9783 42.5895C71.1401 42.7628 71.3009 42.9856 71.5624 42.9953C72.1571 43.0633 72.7608 43.0204 73.3531 43.12C73.4503 43.2116 73.5443 43.3095 73.6382 43.4075C73.2958 43.5998 72.9766 43.83 72.6865 44.0936C72.8744 44.3002 73.2641 44.45 73.2265 44.7749C72.7134 45.3095 71.9545 45.4925 71.2985 45.7955C70.6915 46.0377 70.145 46.4119 69.52 46.6136C68.5618 46.9214 67.6689 47.3831 66.7515 47.7881C66.2956 48.0085 65.8079 48.1859 65.4092 48.5034C64.9591 48.8938 64.8513 49.5054 64.5743 50.0052C64.3824 50.3737 63.9314 50.4604 63.572 50.5916C62.5042 50.9577 61.3622 50.9189 60.2528 51.0266C59.8173 51.0695 59.3623 51.1448 58.9898 51.3903C58.7741 51.5247 58.6851 51.7742 58.5748 51.9881C58.8607 51.9152 59.1425 51.8342 59.426 51.7532C59.3729 51.903 59.3206 52.0529 59.2626 52.1995L59.2136 52.3291C59.1892 52.1869 59.1636 52.0449 59.1368 51.903C58.7929 52.1331 58.5511 52.4717 58.3934 52.8483C58.1974 52.7779 57.9621 52.7454 57.8395 52.56C57.6231 52.2546 57.4147 51.9298 57.3159 51.5685C57.2669 51.3822 57.4115 51.2275 57.5405 51.1157C58.1246 50.6313 58.9138 50.5049 59.52 50.0562C59.8655 49.8051 59.935 49.3555 60.2046 49.0437C60.5983 48.5763 61.1612 48.3009 61.7077 48.0473C62.1889 47.8205 62.6897 47.6423 63.1962 47.4795C63.8391 47.2713 64.4632 47.0113 65.0996 46.7829C65.8773 46.5002 66.7073 46.3973 67.4908 46.13C68.0659 45.9316 68.6402 45.7315 69.2104 45.5233C69.4522 45.4196 69.7243 45.3289 69.8901 45.1167C69.9277 44.9304 69.9171 44.7392 69.9187 44.5497C70.6213 44.075 71.4913 43.9478 72.1898 43.4683C71.6261 43.188 70.9889 43.2763 70.3828 43.2196L70.1459 43.1322L70.145 43.1313Z" fill="#FAAD7A"/>
<path d="M78.7849 42.7531C78.7849 42.7952 78.7841 42.8745 78.7939 42.915C78.7612 43.2091 78.5529 43.4505 78.4197 43.7089C77.8397 44.6177 77.2172 45.5192 76.4101 46.2483C74.2231 48.3438 71.3402 49.5394 68.4572 50.3664C66.3087 50.9658 64.0981 51.2995 61.8923 51.6155C61.2992 51.7159 60.7021 51.8018 60.1253 51.9719C59.7708 52.0836 59.3664 52.2343 59.2283 52.6118L59.1646 52.7422C59.1793 52.6037 59.1965 52.4668 59.2161 52.3299L59.2667 52.2003L59.4089 52.065C59.7884 51.8641 60.198 51.7249 60.622 51.6527C61.3041 51.5336 61.9479 51.2566 62.6349 51.1659C63.8424 50.9934 65.0482 50.8095 66.2417 50.5608C66.9198 50.4272 67.6092 50.3275 68.253 50.0659C68.8567 49.8958 69.4571 49.7176 70.0363 49.4746C70.8337 49.235 71.6102 48.9316 72.3581 48.5674C72.7911 48.4228 73.2098 48.2389 73.6088 48.0182C74.4935 47.5613 75.375 47.0526 76.058 46.3187L76.1111 46.2734C76.6886 45.7882 77.1772 45.2082 77.6461 44.6226C78.0774 44.0329 78.53 43.4424 78.7882 42.753L78.7849 42.7531Z" fill="#894714"/>
<path d="M73.3531 43.12C73.6259 43.1557 73.9005 43.1945 74.1774 43.2172L73.8931 43.6749C74.1169 43.849 74.3416 44.024 74.563 44.1981C74.0892 44.9004 73.2747 45.2253 72.568 45.6376C72.0681 45.913 71.6139 46.271 71.0796 46.4784C70.3247 46.7651 69.6287 47.1742 68.9131 47.5395C68.2628 47.8716 67.7506 48.3989 67.2996 48.9594C66.9835 49.3231 66.7212 49.7743 66.254 49.9663C65.8961 50.1161 65.5334 50.2611 65.1805 50.4215C64.473 50.6321 63.7443 50.7625 63.0328 50.9553C62.0802 51.1311 61.1024 51.1983 60.1817 51.5159C59.8712 51.6139 59.6311 51.8423 59.4056 52.0659C59.3696 52.0999 59.2994 52.1671 59.2626 52.1995C59.3206 52.0529 59.3729 51.903 59.426 51.7532C59.1425 51.8342 58.8607 51.9152 58.5748 51.9881C58.6842 51.7726 58.7733 51.5239 58.9898 51.3903C59.3623 51.1457 59.8165 51.0679 60.2528 51.0266C61.3613 50.918 62.5042 50.9561 63.572 50.5916C63.9314 50.4604 64.3824 50.3737 64.5743 50.0052C64.8513 49.5054 64.9591 48.8938 65.4092 48.5034C65.8079 48.1858 66.2956 48.0101 66.7515 47.7881C67.6689 47.3831 68.5618 46.9214 69.52 46.6136C70.145 46.4119 70.6915 46.0377 71.2985 45.7955C71.9545 45.4925 72.7134 45.3095 73.2265 44.7749C73.2641 44.45 72.8744 44.3002 72.6865 44.0936C72.9766 43.83 73.2958 43.5998 73.6382 43.4075C73.5443 43.3095 73.4503 43.2116 73.3531 43.12Z" fill="#F7996C"/>
<path d="M70.3828 43.2196C70.9873 43.2763 71.6269 43.188 72.1898 43.4683C71.4921 43.9478 70.6205 44.075 69.9171 44.5497C69.9163 44.7392 69.9277 44.9304 69.8901 45.1167C69.7243 45.3289 69.4522 45.4196 69.2104 45.5233C68.6402 45.7315 68.0659 45.9316 67.4908 46.13C66.7073 46.3973 65.8773 46.5002 65.0996 46.7829C64.4632 47.0113 63.8391 47.2713 63.1962 47.4795C62.6897 47.6423 62.1889 47.8205 61.7077 48.0473C61.1612 48.3009 60.5983 48.5763 60.2046 49.0437C59.935 49.3555 59.8655 49.8051 59.52 50.0562C58.9138 50.5049 58.1246 50.6313 57.5405 51.1157C57.4098 51.2275 57.266 51.383 57.3159 51.5685C57.4147 51.9298 57.6231 52.2546 57.8395 52.56C57.9621 52.7463 58.199 52.7787 58.3934 52.8483C58.5511 52.4717 58.7929 52.1331 59.1368 51.903C59.1638 52.044 59.1891 52.1865 59.212 52.3291C59.194 52.4668 59.1777 52.6037 59.1622 52.7422C59.1067 52.6815 59.0536 52.6199 58.9988 52.5584C58.8975 52.7309 58.8077 52.9091 58.6737 53.059C58.2334 53.161 57.7865 52.9431 57.5079 52.6078C57.2179 52.27 56.8004 52.0505 56.5554 51.6746C56.3389 51.2478 56.7441 50.8751 56.9785 50.5592C57.4156 50.0206 57.5259 49.2616 58.1059 48.8298C59.029 48.1203 60.1646 47.7776 61.1915 47.2495C61.6644 46.9955 62.1693 46.8069 62.6938 46.689C64.3367 46.2791 65.8864 45.5898 67.4851 45.0487C68.1795 44.7968 68.8371 44.4517 69.5479 44.2435C70.23 43.9892 70.9653 43.8669 71.6049 43.5048C71.1932 43.4303 70.7733 43.3744 70.3828 43.2196Z" fill="#FEC88B"/>
<path d="M42.201 57.297C42.6422 57.689 43.0572 58.1103 43.5449 58.4464C44.1208 58.8458 44.5113 59.4695 45.1452 59.7943C45.5578 60.0106 45.9957 60.1807 46.3919 60.431C46.9588 60.7833 47.5021 61.1746 48.0731 61.5213C48.306 61.6598 48.5608 61.7805 48.8362 61.7983C49.0624 61.4548 48.9701 60.9777 49.2487 60.6683C49.5265 60.5978 49.8132 60.6869 50.0787 60.7736C51.3915 61.2718 52.6398 61.9417 53.9992 62.3175C54.2059 62.4374 54.4052 62.5702 54.6119 62.6942C54.0049 62.6796 53.4249 62.5079 52.8685 62.281C52.0238 61.9951 51.1513 61.7148 50.2478 61.7343C50.2176 62.0299 50.1865 62.3256 50.1539 62.6221C49.8933 62.5897 49.6302 62.5508 49.3892 62.4439C48.3648 61.9797 47.431 61.3487 46.4327 60.8344C45.9769 60.597 45.459 60.4779 45.0439 60.1653C44.5178 59.7724 44.1347 59.2265 43.6119 58.832C43.3295 58.6236 43.0312 58.4373 42.7198 58.2747C42.7198 58.3176 42.7312 58.4027 42.7361 58.4456C42.4895 58.0977 42.3088 57.7086 42.201 57.297ZM65.2532 44.1488C66.3185 43.973 67.3584 43.6733 68.4164 43.4611C67.9001 43.7324 67.3234 43.845 66.7605 43.9738C64.4094 44.4841 62.0239 44.8097 59.6491 45.1937C59.1336 45.2868 58.6156 45.3759 58.092 45.4164C58.4726 45.3063 58.8566 45.2026 59.2504 45.1467C61.2543 44.8332 63.2582 44.5181 65.2532 44.1488Z" fill="#F79664"/>
<path d="M68.4001 55.7936C68.4597 55.7936 68.5773 55.779 68.637 55.7766C68.8861 55.8276 69.1338 55.894 69.3764 55.9767C69.8633 56.1451 70.3273 56.4198 70.6304 56.8434C70.0765 56.619 69.6256 56.2002 69.057 56.0042C68.8446 55.9175 68.6198 55.8592 68.4001 55.7936ZM68.4164 43.4611L68.7873 43.5331C68.3952 43.7105 67.9933 43.8693 67.5783 43.9835C63.907 45.0268 59.9775 44.9361 56.3912 46.3147C55.3153 46.6217 54.442 47.4026 53.7705 48.2669C53.599 48.4775 53.4053 48.6679 53.2068 48.8525C53.2068 48.6541 53.2068 48.4564 53.2166 48.2588C53.6137 47.3046 54.4829 46.6363 55.4272 46.254C56.2785 45.866 57.2031 45.6983 58.092 45.4164C58.6156 45.3759 59.1336 45.2868 59.6491 45.1937C62.0239 44.8097 64.4094 44.4841 66.7605 43.9738C67.3234 43.845 67.9001 43.7324 68.4164 43.4611Z" fill="#FEF6E7"/>
<path d="M43.1495 44.1601C43.2067 44.0653 43.2859 43.9114 43.4224 43.9786C43.7736 44.1204 43.9068 44.5076 44.1715 44.7482C44.535 44.8664 44.9133 44.706 45.2711 44.6412C45.3037 45.3273 44.9827 45.9624 44.691 46.5642C44.1494 47.3613 43.5653 48.164 43.3178 49.1085C43.1887 49.5678 43.1593 50.0457 43.1724 50.5212C43.1846 50.9116 42.9804 51.2607 42.8137 51.5993C42.3612 51.0598 42.2762 50.3373 42.1586 49.6715C42.1022 49.26 41.7583 48.9757 41.6374 48.5909C41.5704 48.2588 41.6594 47.9202 41.6962 47.5889C41.8228 46.6088 41.9772 45.5971 42.4886 44.732C42.6365 44.463 43.0123 44.4355 43.1495 44.1601Z" fill="#FFF1D7"/>
<path d="M41.2036 47.1669C41.3964 46.3164 41.5394 45.4399 41.9274 44.6485L41.9879 44.5902C41.8743 45.0722 41.7672 45.5566 41.6496 46.0385C41.4372 46.7692 41.3506 47.5281 41.2902 48.2839C41.2542 48.7051 41.3694 49.1182 41.4903 49.5167C41.7174 50.249 41.7068 51.0282 41.9315 51.7621C42.0793 52.2335 42.2215 52.7333 42.5589 53.1092C42.826 53.4008 43.2663 53.617 43.6585 53.451C44.0261 52.8953 43.9134 52.1914 43.9665 51.562C44.0383 50.7828 43.9501 49.9728 44.2475 49.2324C44.5579 48.2928 45.044 47.4147 45.2523 46.4427L45.2678 46.3868L45.5701 46.2855C45.5262 46.5521 45.4984 46.8201 45.4851 47.0899C45.597 47.1426 45.7065 47.1952 45.8176 47.2495C45.6951 47.6893 45.6886 48.1519 45.5709 48.5917C45.4337 49.1255 45.2286 49.6666 45.3234 50.2255C45.5734 52.1857 46.1934 54.086 47.0103 55.8843C46.8306 55.9807 46.6354 56.0835 46.4238 56.026C45.9459 55.9264 45.4435 56.052 44.9786 55.8802C44.6747 55.779 44.3872 55.6372 44.0825 55.5352C43.7124 55.4047 43.3072 55.331 42.9959 55.0783C42.6831 54.8272 42.3792 54.5632 42.1047 54.2683C41.8024 53.9411 41.6897 53.4955 41.5998 53.0735C41.4838 52.4796 41.4004 51.8798 41.3498 51.2769C41.3041 50.7617 41.3359 50.2433 41.2616 49.7297C41.2085 49.3409 41.1145 48.9538 41.1235 48.5593C41.1333 48.0936 41.1979 47.6327 41.2036 47.1669Z" fill="#FDCBB5"/>
<path d="M55.7343 45.9162C56.5349 45.8133 57.2775 45.4513 58.092 45.4164C57.2031 45.6983 56.2785 45.866 55.4272 46.254C54.4829 46.6363 53.6137 47.3046 53.2166 48.2588C53.0892 48.5439 52.9715 48.8396 52.9355 49.1522C52.8514 49.8294 52.9355 50.5317 53.2362 51.1497C53.6683 52.0189 54.3946 52.7309 55.2556 53.1829C55.5832 53.3676 55.9263 53.5255 56.276 53.6656C57.2408 54.1014 58.3101 54.1921 59.3534 54.2845C60.0249 54.3088 60.6964 54.4287 61.3696 54.3517C61.4455 54.3404 61.5975 54.3218 61.6743 54.3104C60.8443 53.7783 59.8206 53.5174 59.1622 52.7422C59.1828 52.6985 59.2033 52.655 59.2251 52.6118C59.7308 53.3854 60.6474 53.7037 61.466 54.0399C61.8385 54.1905 62.2486 54.2829 62.5647 54.5445H62.4749C61.3173 54.5315 60.154 54.6547 59.0029 54.4886C57.5463 54.3161 56.0464 53.9961 54.8349 53.1359C54.5024 52.901 54.1626 52.6742 53.8742 52.3866C53.5842 52.0982 53.3906 51.737 53.1545 51.4065C53.1643 51.4502 53.1716 51.5361 53.179 51.5806C52.8375 51.0865 52.7199 50.4766 52.6815 49.8893C52.6292 48.6087 53.3309 47.3726 54.3668 46.6347C54.7875 46.3422 55.2286 46.0377 55.7343 45.9162Z" fill="#EA8248"/>
<path d="M41.2902 48.2839C41.3523 47.5289 41.4372 46.7684 41.6496 46.0385C41.6774 46.8008 41.4911 47.546 41.4372 48.3017C41.3792 48.8849 41.8007 49.3458 41.9519 49.8788C42.1602 50.5965 42.1471 51.3919 42.5515 52.044C42.6708 52.2716 42.9542 52.2765 43.1773 52.321C43.3619 51.6163 43.4509 50.8938 43.4991 50.1688C43.5424 49.4673 43.7851 48.7966 44.0816 48.1648C44.2809 47.7582 44.5595 47.3969 44.7678 46.9952C44.8806 46.774 45.0317 46.5683 45.2523 46.4427C45.044 47.4147 44.5579 48.2928 44.2475 49.2324C43.9501 49.9728 44.0383 50.7828 43.9665 51.562C43.9134 52.1914 44.0261 52.8953 43.6585 53.451C43.2663 53.6178 42.8277 53.4016 42.5589 53.1092C42.2215 52.7333 42.0793 52.2335 41.9315 51.7621C41.7068 51.0282 41.7174 50.249 41.4903 49.5167C41.3678 49.1174 41.2542 48.7051 41.2902 48.2839Z" fill="#FFDCC6"/>
<path d="M74.2869 46.6331C74.8996 46.5342 75.4861 46.3188 76.107 46.2734L76.0555 46.3187C75.9681 46.3625 75.8807 46.4038 75.7925 46.4451C74.3343 46.957 72.7764 47.3766 71.5755 48.3932C71.0886 48.7909 70.5396 49.1036 70.0331 49.4738C69.4547 49.7168 68.8535 49.8974 68.2497 50.0651C66.5007 50.2984 64.7949 50.8022 63.0328 50.9553C63.746 50.7617 64.4722 50.6313 65.1805 50.4215C65.8994 50.3089 66.6289 50.1615 67.28 49.8294C67.8208 49.5483 68.0994 48.9805 68.5463 48.5917C69.0462 48.1057 69.6777 47.7946 70.2962 47.4836C70.9791 47.145 71.7527 47.0988 72.4961 46.9854C73.099 46.8971 73.6864 46.7295 74.2869 46.6331Z" fill="#F5835D"/>
<path d="M53.7705 48.2669C54.442 47.4026 55.3153 46.6217 56.3912 46.3147C55.3626 46.919 54.424 47.712 53.8097 48.7416C53.5515 49.1952 53.3816 49.6966 53.0793 50.1267C52.9883 49.8096 52.9405 49.4819 52.9355 49.1522C52.9715 48.8396 53.0892 48.5439 53.2166 48.2588C53.2068 48.4564 53.2068 48.6541 53.2068 48.8525C53.4053 48.6679 53.599 48.4775 53.7705 48.2669Z" fill="#FFE9C2"/>
<path d="M75.7925 46.4451C75.8799 46.4038 75.9682 46.3625 76.0539 46.3188C75.3718 47.0526 74.4903 47.5621 73.6056 48.0182C73.2066 48.2393 72.7879 48.4234 72.3549 48.5682C72.7495 48.215 73.2306 47.9874 73.6889 47.7314C74.3882 47.2989 75.112 46.9068 75.7925 46.4451Z" fill="#DC6929"/>
<path d="M47.4179 46.7756C47.4857 46.6444 47.5592 46.5156 47.6319 46.3884C47.5526 46.7875 47.5086 47.1927 47.5004 47.5994C47.4718 47.9072 47.4432 48.215 47.4089 48.5228C47.2414 49.605 47.3231 50.7131 47.5045 51.7872C47.578 52.406 47.6891 53.0192 47.8517 53.6211C48.2553 55.5303 49.176 57.3245 50.4365 58.819C50.6898 59.1349 50.9683 59.433 51.2967 59.6719C51.3743 59.7367 51.4511 59.7967 51.5303 59.859C51.6847 60.0891 51.8408 60.324 52.0549 60.5054C52.8824 61.2069 53.7328 61.8906 54.6674 62.4495C55.1698 62.7443 55.7065 62.9744 56.2384 63.2109C56.7775 63.4393 57.3085 63.6969 57.882 63.8249C59.7397 64.6495 61.787 64.9443 63.8048 65.0586C65.5669 65.1355 67.3536 65.0164 69.0683 64.5831C69.7439 64.46 70.386 64.2129 71.0233 63.9643C71.0894 63.9537 71.2218 63.9456 71.2871 63.94C71.2275 64.0031 71.1638 64.0671 71.1033 64.1319C70.9179 64.2064 70.7332 64.2834 70.5486 64.3571C70.1957 64.4948 69.8354 64.6195 69.4694 64.7216C68.8191 64.8714 68.1631 64.9938 67.5055 65.1039C64.3619 65.4555 61.1114 65.2465 58.114 64.1951C57.8297 64.0971 57.5463 63.9958 57.2636 63.8954C57.1271 63.8437 56.9909 63.7911 56.8551 63.7374C56.7032 63.6775 56.5504 63.6175 56.4009 63.5552C56.0792 63.4233 55.7615 63.2817 55.4484 63.1307L55.2474 63.0303C55.1331 62.9711 55.0187 62.912 54.9059 62.8521C54.8071 62.7994 54.7107 62.746 54.6119 62.6942C54.4052 62.5702 54.2059 62.4374 53.9992 62.3175C53.4142 61.9327 52.8563 61.5058 52.2828 61.1049C52.2158 61.0433 52.1489 60.9818 52.0835 60.9202C50.939 59.7911 49.7977 58.6254 49.0151 57.2111C47.7905 54.9382 47.1582 52.3713 47.0904 49.8019C47.1068 48.7869 47.1965 47.7695 47.4179 46.7756Z" fill="#FEF3DE"/>
<path d="M71.5755 48.3932C72.7764 47.3766 74.3343 46.957 75.7925 46.4451C75.112 46.9068 74.3882 47.2989 73.6889 47.7314C73.2306 47.9874 72.7495 48.215 72.3549 48.5682C71.6074 48.9327 70.8288 49.2348 70.0331 49.4738C70.5396 49.1036 71.0886 48.7909 71.5755 48.3932Z" fill="#F47C46"/>
<path d="M47.5045 51.7872C47.3231 50.7131 47.2406 49.605 47.4081 48.5212C47.3656 49.6123 47.48 50.6985 47.5045 51.7872Z" fill="#FFD694"/>
<path d="M40.9364 51.9484C40.9364 51.3158 40.9234 50.68 41.0034 50.0506C41.0582 51.0874 41.0639 52.1299 41.2681 53.1529C41.3613 53.8658 41.6431 54.5299 41.8628 55.2087C42.0483 55.9167 42.326 56.6409 42.884 57.1455C43.1634 57.4007 43.4534 57.6477 43.7156 57.9231C44.5456 58.8158 45.5807 59.4856 46.6174 60.1191C47.0079 60.3888 47.4049 60.6594 47.8673 60.793C47.8575 60.2454 47.8223 59.6971 47.8959 59.1519C48.8648 59.1616 49.685 59.727 50.4864 60.1952C51.077 60.5144 51.6015 60.9809 52.2828 61.1049C52.8554 61.5058 53.4126 61.9336 53.9992 62.3175C52.6398 61.9417 51.3915 61.2718 50.0787 60.7736C49.8148 60.6853 49.5265 60.5978 49.2471 60.6691C48.9701 60.9777 49.0624 61.4548 48.8362 61.7983C48.5608 61.7821 48.306 61.6606 48.0731 61.5213C47.5021 61.1746 46.9588 60.7833 46.3919 60.431C45.9957 60.1807 45.5578 60.0106 45.1452 59.7943C44.5121 59.4703 44.1224 58.8466 43.5449 58.4464C43.0572 58.1103 42.6422 57.689 42.201 57.297C41.9535 56.9892 41.8922 56.5793 41.7542 56.218C41.3457 54.8264 41.0263 53.3984 40.9381 51.9484L40.9364 51.9484Z" fill="#FAA47D"/>
<path d="M63.0328 50.9553C64.7949 50.8014 66.5006 50.2984 68.2489 50.0659C67.606 50.3276 66.9156 50.4272 66.2376 50.5609C65.0449 50.8104 63.8391 50.9934 62.6316 51.166C61.9438 51.2559 61.3 51.5337 60.6187 51.6528C60.1947 51.7254 59.7852 51.8649 59.4056 52.0659C59.6319 51.8423 59.8712 51.6155 60.1817 51.5159C61.1024 51.1983 62.0802 51.1311 63.0328 50.9553Z" fill="#D75C33"/>
<path d="M69.235 55.7215C69.4356 55.6219 69.6421 55.5345 69.8534 55.4598C70.4056 55.5748 70.9595 55.7093 71.4823 55.9248H71.2912C71.4848 56.0803 71.6858 56.2277 71.89 56.3703C71.729 57.2027 71.5887 58.0389 71.4693 58.8781C71.3737 59.4273 71.2364 59.97 71.1621 60.5233C71.0771 61.1599 70.8688 61.7755 70.8304 62.4187C70.7912 62.801 70.7585 63.2789 70.3656 63.475C69.9032 63.7155 69.3902 63.85 68.9515 64.1376C68.3339 64.3644 67.673 64.4073 67.0439 64.5806C66.9418 64.5912 66.8397 64.5944 66.7376 64.6025C66.5342 64.5758 66.3324 64.5393 66.1306 64.5037C66.4684 64.3972 66.8159 64.3239 67.1681 64.285C67.7212 64.1918 68.2979 64.1392 68.8085 63.8913C69.0299 63.8006 69.0275 63.5365 69.0724 63.3405C69.2121 62.2607 69.5013 61.2085 69.654 60.132C69.7194 59.6808 69.8117 59.2329 69.8615 58.7793L69.8722 58.6975C69.9441 58.6408 70.0159 58.5849 70.0862 58.5274C70.3427 58.3079 70.5559 58.0397 70.712 57.7416C70.7651 57.4411 70.779 57.1179 70.6344 56.8401C70.3313 56.4156 69.8664 56.1411 69.3804 55.9718L69.239 55.7182L69.235 55.7215ZM53.1545 51.4065C53.3906 51.737 53.5842 52.0982 53.8742 52.3866C54.1626 52.6742 54.5041 52.9026 54.8349 53.1359C56.0464 53.9961 57.5463 54.3161 59.0029 54.4886C60.154 54.6547 61.3173 54.5315 62.4749 54.5445C62.2772 54.666 62.0484 54.7227 61.8197 54.743C60.3671 54.905 58.9048 54.7008 57.4801 54.4189C56.0782 54.1395 54.6919 53.5182 53.741 52.4312C53.5237 52.1703 53.2917 51.9038 53.179 51.5806C53.1684 51.5353 53.1627 51.4502 53.1545 51.4065Z" fill="#974A12"/>
<path d="M55.2556 53.1829C55.3782 52.9666 55.4729 52.6499 55.7703 52.6321C56.481 52.5462 57.1387 52.8808 57.78 53.1278C58.3469 53.3546 58.9743 53.3133 59.5478 53.5101C59.9824 53.6551 60.3892 53.8657 60.8026 54.061C60.0747 53.907 59.3485 53.7491 58.6067 53.6722C58.021 53.6114 57.4875 53.3482 56.9157 53.2234C56.6134 53.1481 56.3062 53.2404 56.0179 53.3303C56.1028 53.4429 56.1861 53.5571 56.276 53.6656C55.9255 53.5275 55.5846 53.3657 55.2556 53.1829Z" fill="#FFEAC6"/>
<path d="M56.0179 53.3303C56.3054 53.2412 56.6118 53.1481 56.9157 53.2234C57.4875 53.3482 58.021 53.6114 58.6067 53.6722C59.3469 53.7483 60.0747 53.907 60.8026 54.061C60.9962 54.1476 61.1841 54.2464 61.3696 54.3517C60.6964 54.4287 60.0249 54.3088 59.3534 54.2845C58.311 54.193 57.2399 54.1014 56.2751 53.6648C56.1852 53.5563 56.1028 53.4421 56.0179 53.3303Z" fill="#FEFAF4"/>
<path d="M47.8517 53.6211C48.2937 54.7195 48.6066 55.8786 49.2365 56.8936C49.7977 57.9086 50.5941 58.7566 51.2967 59.6719C50.9683 59.433 50.6898 59.1349 50.4365 58.819C49.176 57.3245 48.2553 55.5303 47.8517 53.6211Z" fill="#FECF8D"/>
<path d="M65.4297 55.28C65.5923 55.2412 65.7565 55.1998 65.9231 55.1836C67.2384 55.1107 68.5659 55.1844 69.8534 55.4598C69.6418 55.5327 69.4367 55.6234 69.235 55.7215C69.2823 55.8041 69.3282 55.8908 69.3764 55.9767C69.1341 55.8951 68.8876 55.8277 68.637 55.7766C67.7196 55.5012 66.7482 55.4015 65.7924 55.442C65.6666 55.442 65.5416 55.4574 65.4174 55.468L65.3496 55.4777L65.4297 55.2833V55.28Z" fill="#AE5218"/>
<path d="M41.8645 55.2088C42.1635 55.7539 42.4723 56.3088 42.9461 56.7259C43.4649 57.1917 43.8774 57.7717 44.4738 58.1475C45.3544 58.7105 46.1967 59.3739 47.2138 59.6849C47.2685 59.2864 47.3281 58.8887 47.4033 58.4942C47.8224 58.6052 48.2431 58.7234 48.6434 58.8952C49.8827 59.4112 50.8973 60.3111 52.0835 60.9202C52.1489 60.9818 52.2158 61.0433 52.2828 61.1049C51.6015 60.9809 51.077 60.5144 50.4864 60.1952C49.6858 59.727 48.8648 59.1584 47.8959 59.1519C47.8223 59.6971 47.8616 60.2454 47.8673 60.793C47.4049 60.6594 47.0079 60.3888 46.6174 60.1191C45.5807 59.4856 44.5456 58.8158 43.7156 57.9231C43.4534 57.6477 43.1634 57.4007 42.884 57.1455C42.3268 56.64 42.0483 55.9167 41.8645 55.2088Z" fill="#FBAF92"/>
<path d="M65.4174 55.468C65.5416 55.4566 65.6658 55.4477 65.7924 55.442C65.8904 55.476 65.9893 55.5125 66.0873 55.5497C66.9427 56.0358 67.8429 56.4537 68.7914 56.7267C69.3632 57.2338 69.8828 57.9012 69.8681 58.7007L69.8583 58.7825C69.7742 58.823 69.69 58.8635 69.6083 58.9057C69.739 58.2803 69.3363 57.723 68.8845 57.3391C68.2947 56.8433 67.5774 56.5372 66.8879 56.2075C66.3937 55.9685 65.8341 55.8349 65.4142 55.4679L65.4174 55.468Z" fill="#CD6625"/>
<path d="M66.0865 55.5506C66.4435 55.5879 66.8013 55.596 67.1567 55.6421C67.5946 55.8114 68.0578 55.9775 68.3944 56.3169C68.5308 56.4497 68.6558 56.5914 68.7914 56.7267C67.8429 56.4537 66.9427 56.0366 66.0865 55.5506Z" fill="#ED6C28"/>
<path d="M67.1567 55.6421C67.5733 55.6843 67.9851 55.749 68.4001 55.7936C68.7416 56.0463 69.0397 56.3566 69.2481 56.726C69.4588 57.0969 69.7333 57.4258 69.9588 57.7871C70.1099 58.0058 70.0871 58.2804 70.083 58.5323C70.0127 58.589 69.9408 58.6456 69.8681 58.7007C69.8828 57.9012 69.3632 57.2338 68.7914 56.7267C68.6558 56.5914 68.5308 56.4497 68.3944 56.3169C68.0578 55.9775 67.5946 55.8114 67.1567 55.6421Z" fill="#F28349"/>
<path d="M68.4001 55.7936C68.6198 55.8592 68.8446 55.9175 69.057 56.0042C69.3494 56.2982 69.5446 56.6659 69.7758 57.0061C69.9997 57.3463 70.373 57.5351 70.7088 57.7457C70.5518 58.044 70.3398 58.3105 70.0838 58.5314C70.0838 58.2803 70.11 58.0057 69.9597 57.7862C69.7334 57.4257 69.4597 57.0977 69.2481 56.726C69.0341 56.3599 68.7457 56.0416 68.4001 55.7936Z" fill="#F4906C"/>
<path d="M71.2911 55.9289C71.3393 55.9272 71.4357 55.9289 71.4823 55.9289C72.1546 56.1176 72.7984 56.4262 73.3694 56.8239L73.2534 56.7705C73.3122 57.011 73.3858 57.2581 73.3457 57.5076C73.2363 58.3565 72.9512 59.1779 72.9152 60.0365C72.885 60.6472 72.6513 61.2215 72.5917 61.8266C72.5549 62.2089 72.4022 62.5637 72.2241 62.8983C72.8057 62.6472 73.3359 62.294 73.9274 62.0583C73.3269 62.5994 72.5876 62.9469 71.8507 63.2628C70.908 63.6273 69.9424 63.9432 68.9506 64.1449C69.3901 63.8565 69.9024 63.7221 70.3656 63.4823C70.7585 63.2863 70.7912 62.8075 70.8304 62.426C70.8688 61.7829 71.0771 61.1673 71.1621 60.5306C71.2364 59.9773 71.3737 59.4346 71.4692 58.8854C71.5934 58.0463 71.7241 57.2087 71.89 56.3776C71.6855 56.2356 71.4858 56.0871 71.2911 55.9321V55.9289Z" fill="#894412"/>
<path d="M69.0569 56.0026C69.6255 56.2002 70.0757 56.6182 70.6304 56.8434C70.7742 57.122 70.7611 57.4444 70.7088 57.7457C70.373 57.5351 69.9997 57.3463 69.7758 57.0061C69.5455 56.6659 69.3494 56.2966 69.0569 56.0026Z" fill="#FAA887"/>
<path d="M73.2534 56.7664L73.3686 56.8207C74.6373 57.5351 75.6626 58.9494 75.4404 60.4512C75.112 60.9299 74.7697 61.4038 74.3473 61.8064C74.2109 61.8938 74.0696 61.974 73.9266 62.055C73.3376 62.2907 72.8058 62.6431 72.2241 62.895C72.403 62.5605 72.555 62.2065 72.5917 61.8234C72.6505 61.2183 72.8858 60.644 72.9152 60.0332C72.9512 59.1746 73.2363 58.354 73.3457 57.5051C73.3858 57.254 73.3114 57.0078 73.2534 56.7664Z" fill="#773C10"/>
<path d="M51.7991 58.2293C51.88 58.081 52.0091 57.9652 52.1234 57.8429C52.8105 58.3953 53.563 58.8603 54.3366 59.2815C53.9534 59.6541 53.4984 59.9895 53.2623 60.482C53.1104 60.7979 53.4421 61.053 53.6536 61.2369C54.3627 61.7675 55.0874 62.3029 55.9263 62.618C56.7245 62.9744 57.597 63.2182 58.2832 63.7812C58.1786 63.7909 58.0741 63.7974 57.9695 63.8128C57.1812 63.3672 56.3021 63.1161 55.4926 62.7111C54.5024 62.2648 53.6185 61.6233 52.7771 60.9477C52.3637 60.6205 52.0075 60.2284 51.5925 59.9028C51.4741 59.6946 51.3531 59.4873 51.2355 59.2791C51.3499 59.2118 51.4683 59.1511 51.5671 59.062C51.6954 58.8003 51.6782 58.4942 51.7991 58.2293Z" fill="#F78664"/>
<path d="M42.7198 58.2747C43.0286 58.4416 43.3325 58.6198 43.6119 58.832C44.1347 59.2265 44.5195 59.7724 45.0439 60.1653C45.4606 60.4771 45.9777 60.597 46.4327 60.8344C47.4327 61.3487 48.3648 61.9797 49.3892 62.4439C49.6302 62.5508 49.8933 62.5897 50.1539 62.6221C50.1865 62.3256 50.2176 62.0299 50.2478 61.7343C51.1513 61.7148 52.0238 61.9951 52.8685 62.281C53.4249 62.5079 54.0065 62.6804 54.6119 62.6942L54.9059 62.8521C53.7132 63.1777 52.5695 62.4779 51.3752 62.5111C51.3752 62.8983 51.3858 63.2847 51.3752 63.6718C49.9635 63.1469 48.7177 62.2835 47.4163 61.5464C46.9327 61.2758 46.4597 60.9704 45.9213 60.8173C45.5513 60.7088 45.1485 60.6229 44.8798 60.3265C44.4076 59.8324 43.8913 59.3423 43.2181 59.1414C43.2083 59.1827 43.1969 59.267 43.1879 59.3083C43.0139 59.0345 42.8105 58.7631 42.7329 58.4456C42.7329 58.4019 42.723 58.3176 42.7181 58.2755L42.7198 58.2747Z" fill="#F08956"/>
<path d="M69.6116 58.9057C69.6933 58.8628 69.7775 58.8223 69.8616 58.7826C69.8118 59.2362 69.7195 59.6841 69.6541 60.1353C69.5013 61.2126 69.213 62.264 69.0725 63.343C69.0292 63.5398 69.03 63.8047 68.8078 63.8938C68.298 64.1417 67.7212 64.1943 67.169 64.2883C67.5195 63.8857 67.5358 63.3381 67.6208 62.84C67.7433 61.876 67.972 60.9299 68.1077 59.9676C67.9573 59.915 67.8087 59.8623 67.6583 59.8145C68.3201 59.5359 68.9932 59.2743 69.6116 58.9057Z" fill="#A44F12"/>
<path d="M43.2206 59.1414C43.8937 59.3423 44.4108 59.8331 44.8814 60.3256C45.151 60.6229 45.5546 60.7088 45.9238 60.8181C46.463 60.9704 46.9352 61.2758 47.4188 61.5471C48.721 62.2835 49.9668 63.1469 51.3785 63.6718V62.5119C52.5712 62.477 53.7165 63.1769 54.9093 62.8505C55.022 62.912 55.1364 62.9703 55.2507 63.0303C54.7426 63.1396 54.2288 63.2458 53.7067 63.2174C53.2276 63.1892 52.7468 63.2082 52.2714 63.2741C52.3555 63.6848 52.4544 64.0922 52.5451 64.5029C51.8768 64.3895 51.3115 64.0064 50.7266 63.6953C50.4384 63.5391 50.1529 63.3779 49.8704 63.2117C48.8541 62.6196 47.8632 61.9837 46.8371 61.4094C46.5471 61.2426 46.2473 61.0854 45.9214 61.0069C45.5595 60.9145 45.1592 60.8692 44.8863 60.5913C44.5391 60.2552 44.1339 59.9692 43.6519 59.8664C43.6519 59.9052 43.6413 59.9846 43.6372 60.0235C43.4706 59.7975 43.3039 59.5675 43.1936 59.3082C43.2034 59.2669 43.2157 59.1835 43.223 59.1414H43.2206Z" fill="#E87A4C"/>
<path d="M53.2623 60.482C53.4984 59.9895 53.9534 59.6541 54.3366 59.2815C54.9762 59.5836 55.6322 59.8485 56.2972 60.0883C56.0701 60.3977 55.8446 60.7323 55.8267 61.1268C55.7973 61.6233 55.5996 62.1725 55.9263 62.618C55.0874 62.3029 54.3627 61.7675 53.6536 61.2369C53.4421 61.053 53.1104 60.7979 53.2623 60.482Z" fill="#EA7A5A"/>
<path d="M43.6503 59.8663C44.1323 59.9684 44.5367 60.2551 44.8839 60.5913C45.1576 60.8691 45.5571 60.9145 45.9173 61.006C46.2441 61.0838 46.5447 61.2425 46.8347 61.4094C47.86 61.9845 48.8517 62.6196 49.868 63.2117L49.9048 63.5276C48.5952 62.8812 47.2881 62.2267 46.017 61.5074C45.5905 61.2498 45.0775 61.2498 44.5988 61.33L44.5441 61.3406C44.2516 60.895 43.893 60.4933 43.6356 60.0275C43.6356 59.987 43.6454 59.9093 43.6495 59.8696L43.6503 59.8663Z" fill="#E3742F"/>
<path d="M51.5303 59.859L51.5925 59.9028C52.0091 60.2276 52.3637 60.6197 52.7771 60.9477C53.6185 61.6233 54.5024 62.2648 55.4926 62.7111C56.3021 63.1161 57.1812 63.3672 57.9695 63.8128L57.882 63.8249C57.3069 63.6961 56.7767 63.4393 56.2384 63.2109C55.7065 62.9744 55.1698 62.7443 54.6674 62.4495C53.7328 61.8906 52.8824 61.2069 52.0549 60.5054C51.84 60.324 51.6848 60.0875 51.5304 59.8575L51.5303 59.859Z" fill="#FECB88"/>
<path d="M66.1952 60.2446C66.6878 60.1207 67.1649 59.936 67.6583 59.8145C67.8087 59.8623 67.9573 59.915 68.1077 59.9676C67.972 60.9299 67.7433 61.876 67.6208 62.84C67.5358 63.3381 67.5195 63.8857 67.169 64.2883C66.8169 64.3278 66.4694 64.401 66.1315 64.507C66.3325 64.5434 66.5342 64.5798 66.7385 64.6042C66.4084 64.6333 66.0792 64.6771 65.75 64.6876C65.3105 64.6754 64.8726 64.6341 64.4355 64.5944C64.8048 64.464 65.2035 64.434 65.567 64.2947C65.8505 63.7382 65.7312 63.0813 65.9003 62.4924C66.1054 61.7618 66.272 61.0085 66.1952 60.2446Z" fill="#AF551A"/>
<path d="M55.8267 61.1268C55.8463 60.7323 56.0709 60.3977 56.2972 60.0883C56.9785 60.3135 57.6803 60.4674 58.3755 60.6342C58.3216 60.6342 58.2129 60.6213 58.1582 60.6156C58.2464 60.7938 58.3649 60.9655 58.382 61.1672C58.4171 61.8201 58.0438 62.4066 58.0242 63.0497C58.0079 63.266 58.2203 63.3802 58.3763 63.4807C58.8632 63.7601 59.3419 64.0687 59.8835 64.2332C60.3704 64.3709 60.872 64.4413 61.3679 64.5312C61.4112 64.5418 61.4986 64.5523 61.5419 64.5596L61.3581 64.669C60.2878 64.5579 59.2463 64.2572 58.2832 63.7812C57.597 63.2182 56.7245 62.9744 55.9263 62.618C55.5996 62.1725 55.7973 61.6233 55.8267 61.1268Z" fill="#DF7350"/>
<path d="M62.8956 60.8011C64.0115 60.7242 65.1095 60.5014 66.1952 60.2446C66.272 61.0085 66.1054 61.7618 65.9003 62.4924C65.7312 63.0813 65.8505 63.7382 65.567 64.2947C65.2035 64.434 64.8048 64.464 64.4355 64.5944C64.8726 64.6349 65.3104 64.6754 65.7491 64.6884C64.3456 64.801 62.9389 64.6884 61.5419 64.5596C61.4978 64.5499 61.4112 64.5385 61.3679 64.5312C61.3785 64.4705 61.3883 64.3506 61.3965 64.2899C61.7339 64.2607 62.0942 64.319 62.4144 64.2032C62.8939 63.6281 62.8711 62.8448 62.9389 62.1433C62.9716 61.6986 63.2322 61.1972 62.8956 60.8011Z" fill="#BC5B27"/>
<path d="M74.3482 61.8055C74.7689 61.4038 75.112 60.9307 75.4404 60.4512C75.4257 60.7381 75.3594 61.0202 75.2444 61.2839C75.2444 61.2385 75.2566 61.1486 75.2615 61.1041C74.9772 61.4791 74.7305 61.8849 74.4005 62.2259C73.7371 62.946 72.9137 63.4896 72.1073 64.0355C71.4293 64.481 70.8329 65.0561 70.4081 65.7463C70.2831 65.9634 70.0577 66.0841 69.8404 66.1934C70.0144 65.5584 70.2872 64.9589 70.5486 64.3571L71.105 64.1319C71.8163 63.9118 72.4888 63.5834 73.0983 63.1583C73.5402 62.8472 74.0124 62.5338 74.2918 62.0591L74.3498 61.8055H74.3482Z" fill="#DB743A"/>
<path d="M58.1582 60.6156C58.2129 60.6253 58.3208 60.6302 58.3755 60.6342C58.9498 60.7233 59.5355 60.7549 60.1024 60.8789C60.4247 61.0002 60.7674 61.0593 61.1121 61.053C60.6645 61.825 60.7494 62.7387 60.5305 63.5746C60.4676 63.9553 59.9913 63.8946 59.7005 63.9829L59.8835 64.2332C59.3411 64.0687 58.8631 63.7593 58.3779 63.479C58.2202 63.3786 58.0087 63.2652 58.0242 63.0497C58.0438 62.4066 58.4171 61.8201 58.382 61.1672C58.364 60.9655 58.2456 60.7922 58.1582 60.6156Z" fill="#D46B45"/>
<path d="M60.1024 60.8789C61.0321 60.8554 61.9684 60.9194 62.8956 60.8011C63.2322 61.1972 62.9716 61.6986 62.9389 62.1433C62.8711 62.8448 62.8939 63.6281 62.4144 64.2032C62.0942 64.319 61.7339 64.2607 61.3965 64.2899C61.3867 64.3506 61.3753 64.4705 61.3679 64.5312C60.872 64.4413 60.3704 64.3709 59.8835 64.2332L59.7005 63.9829C59.9913 63.8946 60.4676 63.9553 60.5305 63.5746C60.7494 62.7387 60.6645 61.825 61.1121 61.053C60.7682 61.053 60.4226 61.006 60.1024 60.8789Z" fill="#C96437"/>
<path d="M62.0231 66.4C62.5974 66.3708 63.2607 66.3238 63.7101 66.7548C63.4102 67.2408 62.9471 67.5729 62.4871 67.8969C62.5043 67.9236 62.5345 67.9763 62.5492 68.0038C63.0124 68.127 63.5083 68.0135 63.9797 68.1091C62.8433 68.3311 61.6751 68.3489 60.5208 68.3732C59.4872 68.3852 58.4546 68.3057 57.4352 68.1359C57.7701 68.0605 58.1508 68.0492 58.4343 67.8394C58.672 67.4789 58.6222 67.0099 58.8322 66.6373C59.0094 66.532 59.2194 66.5061 59.4212 66.4802C60.2855 66.3927 61.158 66.4705 62.0231 66.4ZM74.4005 62.2259C74.7305 61.8849 74.9772 61.4791 75.2615 61.1041C75.2615 61.1478 75.2485 61.2377 75.2444 61.2839C74.8931 62.3288 74.1366 63.1883 73.3499 63.9432C72.5362 64.6617 71.6899 65.3672 70.7136 65.8573C70.7586 65.5924 70.8672 65.3364 71.0666 65.1485C71.4276 64.7913 71.7896 64.4332 72.1073 64.0355C72.9137 63.4896 73.7371 62.946 74.4005 62.2259Z" fill="#723A10"/>
<path d="M73.9266 62.055C74.0696 61.974 74.2109 61.8938 74.3473 61.8064C74.3304 61.8912 74.3119 61.9749 74.2918 62.0591C74.05 62.2551 73.8065 62.4495 73.5533 62.631C72.8344 62.959 72.1579 63.3786 71.4006 63.6232C70.3027 63.9828 69.1982 64.3376 68.0545 64.532C67.722 64.596 67.3797 64.5879 67.0431 64.5847C67.673 64.4113 68.3347 64.3676 68.9506 64.1416C69.9432 63.9399 70.908 63.6248 71.8508 63.2587C72.5876 62.9428 73.3261 62.5961 73.9266 62.055ZM44.5988 61.33C45.0767 61.2515 45.5897 61.2515 46.017 61.5074C47.2881 62.2267 48.5952 62.8812 49.9048 63.5276C50.8967 64.0419 51.9008 64.5348 52.9151 65.0043C51.8236 64.7613 50.7927 64.3255 49.7421 63.9577C48.8443 63.6394 47.953 63.2967 47.1418 62.7937C46.5209 62.4778 46.0267 61.9246 45.3225 61.782L45.2081 62.106C44.9875 61.8606 44.7695 61.6119 44.5988 61.33Z" fill="#D26621"/>
<path d="M45.3225 61.782C46.0275 61.9246 46.5226 62.4778 47.1418 62.7937C47.953 63.2967 48.8443 63.6394 49.7421 63.9577C50.7927 64.3255 51.8236 64.7613 52.9151 65.0043C53.1283 65.0804 53.3415 65.1614 53.5605 65.2262C53.8162 65.2797 54.0784 65.287 54.3382 65.2991C54.263 64.8763 54.0596 64.4567 54.1241 64.0209C54.7295 63.7811 55.3839 63.6775 55.9631 63.3697C56.1085 63.4328 56.2539 63.4952 56.4009 63.5552C55.9385 63.8362 55.3839 63.9764 54.9705 64.3287C54.8332 64.7272 54.9975 65.1533 55.044 65.5567C54.2859 65.6377 53.5523 65.3996 52.8154 65.2675C52.3972 65.1906 51.9871 65.082 51.5696 65.0018C51.1154 64.9111 50.6489 65.0018 50.1947 64.9241C49.966 64.8917 49.7429 64.8196 49.5109 64.8139C49.3255 64.9127 49.2078 65.0974 49.0714 65.2497C47.6446 64.3827 46.345 63.3252 45.209 62.1068L45.3225 61.782Z" fill="#BD5B18"/>
<path d="M71.4006 63.6232C72.1579 63.3786 72.8344 62.959 73.5533 62.631C72.8246 63.266 71.9047 63.5973 71.0233 63.9643C70.386 64.2129 69.7439 64.46 69.0683 64.5831C68.1836 64.6576 67.3144 64.8536 66.4296 64.9152C64.7419 65.0529 63.0165 65.0383 61.3581 64.669L61.5419 64.5596C62.9389 64.686 64.3457 64.8002 65.75 64.6876C66.0792 64.6771 66.4084 64.6333 66.7385 64.6042C66.8398 64.5936 66.9419 64.592 67.044 64.5839C67.3806 64.5839 67.722 64.5952 68.0545 64.532C69.1982 64.3376 70.3035 63.982 71.4015 63.6216L71.4006 63.6232Z" fill="#EF8246"/>
<path d="M53.7034 63.2174C54.2262 63.2458 54.7409 63.1404 55.2474 63.0303C55.2989 63.0554 55.3986 63.1048 55.4484 63.1307C54.8341 63.5398 54.0677 63.4912 53.4003 63.7464C53.1814 64.2478 53.7222 64.7135 53.5605 65.2262C53.3415 65.1614 53.1283 65.0804 52.9151 65.0043C51.9008 64.5348 50.8967 64.0419 49.9048 63.5276L49.868 63.2117C50.1501 63.378 50.4352 63.5393 50.7232 63.6954C51.3089 64.0064 51.8734 64.3895 52.5417 64.5029C52.4518 64.0931 52.353 63.6848 52.268 63.2741C52.7434 63.2082 53.2242 63.1893 53.7034 63.2174Z" fill="#DA6C3D"/>
<path d="M53.4003 63.7464C54.0677 63.4912 54.8341 63.5398 55.4484 63.1307C55.6191 63.2117 55.7915 63.2927 55.9631 63.3697C55.3839 63.6775 54.7295 63.7811 54.1241 64.0209C54.058 64.4567 54.263 64.8771 54.3382 65.2991C54.0792 65.2886 53.8162 65.2805 53.5605 65.2262C53.7222 64.7135 53.1814 64.2478 53.4003 63.7464Z" fill="#CC6129"/>
<path d="M54.9705 64.3287C55.3839 63.9764 55.9385 63.8362 56.4009 63.5552C56.5504 63.6175 56.7032 63.6775 56.8551 63.7374L56.6689 63.85C56.6036 64.0015 56.5439 64.1538 56.4622 64.2972C56.2882 64.6074 55.9557 64.8026 55.8128 65.1347C55.7066 65.3826 55.6429 65.645 55.5702 65.9059C54.8905 65.9302 54.2247 65.6928 53.5499 65.7536C53.0491 65.9585 52.7918 66.4777 52.5009 66.8989C51.3164 66.4429 50.1563 65.9083 49.0714 65.2497C49.2078 65.0974 49.3255 64.9127 49.5109 64.8139C49.7421 64.8236 49.9668 64.8917 50.1947 64.9241C50.6497 65.0043 51.1154 64.9119 51.5696 65.0018C51.9871 65.082 52.3972 65.1906 52.8154 65.2675C53.5523 65.3996 54.2859 65.6377 55.044 65.5567C54.9983 65.1541 54.8316 64.7272 54.9705 64.3287Z" fill="#AF5617"/>
<path d="M56.6689 63.85L56.8551 63.7374C56.9908 63.7909 57.1264 63.8427 57.2636 63.8954C57.2742 64.059 57.2424 64.2599 57.396 64.3725C57.7653 64.7005 58.2334 64.8877 58.6459 65.1525C57.9515 65.3307 57.1117 65.1768 56.5513 65.7033C56.3348 65.8775 56.1265 66.1003 55.8349 66.1391C55.3504 66.2201 54.8031 66.0581 54.3848 66.387C54.5237 66.6381 54.6601 66.8908 54.7949 67.1444C54.6634 67.2189 54.531 67.2942 54.4011 67.3696C54.4011 67.4092 54.3905 67.4878 54.3905 67.5275C53.7508 67.3467 53.1197 67.1369 52.4993 66.8989C52.7901 66.4777 53.0475 65.9593 53.5483 65.7536C54.2239 65.6936 54.8905 65.9293 55.5702 65.9059C55.6429 65.6466 55.7058 65.3826 55.8128 65.1347C55.9549 64.8026 56.2866 64.6082 56.4606 64.2972C56.5423 64.1538 56.6028 64.0015 56.6673 63.8508L56.6689 63.85Z" fill="#9F5116"/>
<path d="M57.9695 63.8128C58.0732 63.7982 58.1786 63.7876 58.2832 63.7812C59.2431 64.2583 60.2904 64.5572 61.3581 64.669C63.0165 65.0383 64.741 65.0545 66.4296 64.9152C67.3144 64.8536 68.1836 64.6576 69.0683 64.5831C67.3536 65.0164 65.5669 65.1355 63.8048 65.0586C61.787 64.9443 59.7397 64.6495 57.882 63.8249L57.9695 63.8128Z" fill="#FAB281"/>
<path d="M57.396 64.3725C57.2416 64.2591 57.2718 64.059 57.2636 63.8954C57.5471 63.995 57.8297 64.0971 58.1132 64.1943C58.0364 64.2056 57.8828 64.2323 57.806 64.2445C58.3648 64.7985 59.1654 64.9614 59.89 65.1979C60.6498 65.4441 61.4544 65.5259 62.1913 65.8346C61.3744 65.9852 60.5427 65.8475 59.7193 65.9269C59.1801 65.9747 58.6393 66.003 58.0968 65.9852C57.7145 65.9852 57.2824 65.9512 56.9621 66.2023C56.7685 66.3562 56.5814 66.5409 56.4834 66.7734C56.4426 67.0245 56.5414 67.2788 56.5038 67.5307C56.3364 67.7276 56.0684 67.7908 55.8331 67.8726C55.3454 67.7964 54.8691 67.6555 54.3929 67.5283C54.3929 67.4886 54.4027 67.4092 54.4027 67.3704C54.5334 67.2942 54.6649 67.2197 54.7973 67.1452C54.6633 66.8916 54.5277 66.6381 54.388 66.3878C54.8046 66.0589 55.3528 66.2209 55.8372 66.1399C56.128 66.1011 56.338 65.8783 56.5537 65.7042C57.1149 65.1776 57.9547 65.3315 58.6499 65.1533C58.2357 64.8885 57.7676 64.7013 57.3992 64.3733L57.396 64.3725Z" fill="#914A14"/>
<path d="M70.4081 65.7463C70.8329 65.0561 71.4293 64.481 72.1073 64.0355C71.7904 64.4324 71.426 64.7913 71.0666 65.1485C70.8656 65.3364 70.7586 65.5924 70.7136 65.8573L70.7013 65.9116C70.4097 66.0987 70.1107 66.2745 69.7986 66.4243C69.67 66.3822 69.5412 66.3406 69.4122 66.2996C69.6033 65.8016 69.7189 65.2783 69.7553 64.7468C69.6834 64.7362 69.5405 64.7265 69.4694 64.72C69.837 64.6188 70.1957 64.4956 70.5486 64.3571C70.2872 64.9589 70.0144 65.5584 69.8404 66.1934C70.0577 66.0841 70.2831 65.9634 70.4081 65.7463Z" fill="#C6611E"/>
<path d="M57.806 64.2445L58.114 64.1951C61.1122 65.2457 64.3619 65.4547 67.5071 65.1032C67.9427 65.0672 68.3796 65.0499 68.8167 65.0513C68.1386 65.4037 67.3519 65.3721 66.6199 65.5349C65.9345 65.6029 65.236 65.6402 64.5858 65.8864C64.888 66.089 65.2066 66.2672 65.5383 66.4186C65.5277 66.9071 65.1429 67.2408 64.9926 67.6758C65.5252 67.739 66.0481 67.5891 66.5554 67.4465C67.066 67.3088 67.5684 67.1031 68.1076 67.1112C67.1926 67.4895 66.218 67.709 65.2532 67.9172C64.83 67.9884 64.4101 68.1116 63.9796 68.1075C63.5082 68.0136 63.0132 68.1261 62.5492 68.0038C62.5295 67.9676 62.5088 67.932 62.4871 67.8969C62.9462 67.5729 63.4102 67.24 63.7092 66.754C63.2599 66.3239 62.5982 66.3716 62.0231 66.4C61.1571 66.4729 60.2847 66.3895 59.4212 66.4802C59.2186 66.5061 59.0094 66.5312 58.8313 66.6365C58.6213 67.0091 58.672 67.4789 58.4334 67.8386C58.1508 68.0492 57.7701 68.0597 57.4352 68.1359C56.8944 68.1027 56.3625 67.9835 55.8331 67.8726C56.0684 67.7908 56.3364 67.7276 56.5038 67.5307C56.5414 67.2788 56.4426 67.0245 56.4834 66.7734C56.5814 66.5409 56.7669 66.3554 56.9622 66.2007C57.2816 65.9496 57.7145 65.9901 58.0968 65.9852C58.6393 66.0022 59.1793 65.9731 59.7185 65.9253C60.5411 65.8476 61.3736 65.9852 62.1913 65.8346C61.4536 65.5259 60.6481 65.4441 59.89 65.1979C59.1646 64.9606 58.364 64.7978 57.8044 64.2429L57.806 64.2445Z" fill="#834413"/>
<path d="M67.5071 65.1032C68.1653 64.9952 68.8191 64.869 69.4694 64.7216C69.5397 64.7313 69.6843 64.7387 69.7553 64.7468C69.7189 65.2783 69.6033 65.8016 69.4122 66.2996C69.5413 66.3401 69.6687 66.3822 69.7986 66.4243C69.2448 66.6706 68.708 66.9929 68.1076 67.1112C67.5676 67.1007 67.0668 67.3088 66.5554 67.4465C66.419 67.4279 66.2835 67.4117 66.1487 67.3915C66.2524 67.0804 66.4044 66.7799 66.4379 66.4518C66.3643 66.225 66.2034 66.0436 66.0702 65.8524C66.25 65.7414 66.4313 65.6313 66.6217 65.5365C67.352 65.3745 68.1395 65.4053 68.8176 65.0537C68.3797 65.0537 67.9434 65.0675 67.5071 65.1032Z" fill="#B15717"/>
<path d="M64.5858 65.8864C65.236 65.6402 65.9345 65.6029 66.6199 65.5349C66.4312 65.6297 66.2499 65.7406 66.0694 65.8516C66.2034 66.0427 66.3652 66.225 66.4379 66.4518C66.4044 66.7799 66.2524 67.0804 66.1487 67.3915C66.2835 67.4117 66.419 67.4279 66.5554 67.4465C66.0481 67.5891 65.5252 67.739 64.9926 67.6758C65.1446 67.24 65.5302 66.9071 65.5383 66.4186C65.2066 66.2672 64.888 66.089 64.5858 65.8864Z" fill="#A05116"/>
</g>
<path d="M0.370226 4C0.370226 1.99533 1.99533 0.370226 4 0.370226H116C118.005 0.370226 119.63 1.99533 119.63 4V116C119.63 118.005 118.005 119.63 116 119.63H4C1.99533 119.63 0.370226 118.005 0.370226 116V4Z" stroke="#E5E5E5" stroke-width="0.740451"/>
</g>
</svg>
